<svg id="Hardware_Icon" xmlns="http://www.w3.org/2000/svg" viewBox="0 0 128 128"><defs><style>.cls-1{fill:#0080d6;}.cls-2{fill:#fff;}</style></defs><rect class="cls-1" x="-0.32" y="-0.21" width="128.21" height="128.21" rx="15"/><path class="cls-2" d="M84.81,49a20.77,20.77,0,0,0-1.3-3.16l.64-1a4.58,4.58,0,0,0-.61-5.68L81.33,37a4.58,4.58,0,0,0-5.68-.61l-1,.64a19.8,19.8,0,0,0-3.16-1.3L71.31,35a4.56,4.56,0,0,0-4.41-3.42H63.63A4.57,4.57,0,0,0,59.21,35L59,35.7A20.08,20.08,0,0,0,55.89,37l-1-.64A4.58,4.58,0,0,0,49.2,37L47,39.18a4.6,4.6,0,0,0-.62,5.68l.65,1A19.8,19.8,0,0,0,45.72,49l-.66.17a4.56,4.56,0,0,0-3.42,4.41v3.27a4.56,4.56,0,0,0,3.42,4.41l.66.17A19.8,19.8,0,0,0,47,64.62l-.65,1A4.6,4.6,0,0,0,47,71.31l2.21,2.21a4.58,4.58,0,0,0,5.68.61l1-.64A20.08,20.08,0,0,0,59,74.79l.17.66a4.57,4.57,0,0,0,4.42,3.42H66.9a4.56,4.56,0,0,0,4.41-3.42l.17-.66a19.8,19.8,0,0,0,3.16-1.3l1,.64a4.58,4.58,0,0,0,5.68-.61l2.21-2.21a4.58,4.58,0,0,0,.61-5.68l-.64-1a20.77,20.77,0,0,0,1.3-3.16l.66-.17a4.55,4.55,0,0,0,3.41-4.41V53.61a4.55,4.55,0,0,0-3.41-4.41Zm-.15,7.85a.34.34,0,0,1-.25.33l-1.83.47a2.11,2.11,0,0,0-1.52,1.53,16.3,16.3,0,0,1-1.82,4.4,2.13,2.13,0,0,0,0,2.23l1.33,2.07a.35.35,0,0,1,0,.42l-2.21,2.2a.35.35,0,0,1-.42,0l-2.06-1.33a2.13,2.13,0,0,0-2.23,0A16,16,0,0,1,69.23,71a2.11,2.11,0,0,0-1.53,1.52l-.48,1.83a.32.32,0,0,1-.32.25H63.63a.33.33,0,0,1-.33-.25l-.47-1.83A2.11,2.11,0,0,0,61.3,71a15.86,15.86,0,0,1-4.4-1.82,2.16,2.16,0,0,0-1.09-.3,2.13,2.13,0,0,0-1.14.33L52.6,70.58a.35.35,0,0,1-.42,0L50,68.33a.34.34,0,0,1,0-.42l1.32-2.07a2.11,2.11,0,0,0,0-2.23,16,16,0,0,1-1.82-4.4A2.12,2.12,0,0,0,48,57.68l-1.83-.47a.34.34,0,0,1-.25-.33V53.61a.34.34,0,0,1,.25-.33L48,52.81a2.12,2.12,0,0,0,1.52-1.53,16,16,0,0,1,1.82-4.4,2.11,2.11,0,0,0,0-2.23l-1.32-2.07a.32.32,0,0,1,0-.42l2.2-2.2a.35.35,0,0,1,.42-.05l2.07,1.33a2.13,2.13,0,0,0,2.23,0,15.86,15.86,0,0,1,4.4-1.82,2.11,2.11,0,0,0,1.53-1.52l.47-1.83a.34.34,0,0,1,.33-.25H66.9a.34.34,0,0,1,.33.25l.47,1.83a2.11,2.11,0,0,0,1.53,1.52,16,16,0,0,1,4.4,1.82,2.13,2.13,0,0,0,2.23,0l2.06-1.33a.35.35,0,0,1,.42.05l2.21,2.2a.34.34,0,0,1,0,.42l-1.33,2.07a2.13,2.13,0,0,0,0,2.23,16.3,16.3,0,0,1,1.82,4.4,2.11,2.11,0,0,0,1.52,1.53l1.83.47a.34.34,0,0,1,.25.33v3.27Z"/><path class="cls-2" d="M65.26,19.37a34.95,34.95,0,0,0-8.33,68.92V93.2H55.09A2.11,2.11,0,0,0,53,95.31V106a2.11,2.11,0,0,0,2.11,2.12h3.27v5.77A2.11,2.11,0,0,0,60.47,116h9.59a2.11,2.11,0,0,0,2.11-2.11v-5.77h3.27A2.11,2.11,0,0,0,77.55,106V95.31a2.11,2.11,0,0,0-2.11-2.11H73.6V88.29a34.95,34.95,0,0,0-8.34-68.92Zm2.68,92.4H62.58v-3.66h5.36Zm5.39-7.89H57.2V97.42H73.33ZM71.1,84.52a2.11,2.11,0,0,0-1.72,2.07V93.2H61.15V86.59a2.11,2.11,0,0,0-1.72-2.07,30.87,30.87,0,1,1,11.67,0Z"/><path class="cls-2" d="M65.26,15.4a2.1,2.1,0,0,0,2.11-2.11V10a2.11,2.11,0,1,0-4.22,0v3.28A2.11,2.11,0,0,0,65.26,15.4Z"/><path class="cls-2" d="M109.59,52h-3.3a2.12,2.12,0,0,0,0,4.23h3.3a2.12,2.12,0,0,0,0-4.23Z"/><path class="cls-2" d="M24.23,52H20.94a2.12,2.12,0,0,0,0,4.23h3.29a2.12,2.12,0,1,0,0-4.23Z"/><path class="cls-2" d="M94.28,27.37a2.13,2.13,0,0,0,1.49-.61l2.33-2.32a2.12,2.12,0,0,0,0-3,2.1,2.1,0,0,0-3,0l-2.33,2.32a2.11,2.11,0,0,0,1.49,3.61Z"/><path class="cls-2" d="M34.76,81.55l-2.33,2.32a2.11,2.11,0,0,0,3,3l2.33-2.32a2.11,2.11,0,0,0-3-3Z"/><path class="cls-2" d="M95.77,81.55a2.11,2.11,0,1,0-3,3l2.33,2.32a2.11,2.11,0,0,0,3,0,2.12,2.12,0,0,0,0-3Z"/><path class="cls-2" d="M34.76,26.76a2.1,2.1,0,0,0,1.49.61,2.15,2.15,0,0,0,1.5-.62,2.12,2.12,0,0,0,0-3l-2.33-2.32a2.11,2.11,0,0,0-3,3Z"/><path class="cls-2" d="M65.26,45.09A10.16,10.16,0,1,0,75.42,55.24,10.16,10.16,0,0,0,65.26,45.09Zm0,16.09a5.94,5.94,0,1,1,5.94-5.94A5.94,5.94,0,0,1,65.26,61.18Z"/></svg>