<svg width="60" id="Hardware_Icon" xmlns="http://www.w3.org/2000/svg" viewBox="0 0 100 100"><defs><style>.cls-1{fill:#0080d6;}.cls-2{fill:#fff;}</style></defs><rect class="cls-1" x="9.08" y="11.22" width="80" height="80" rx="15"/><path class="cls-2" d="M62.2,41.94a12.59,12.59,0,0,0-.82-2l.41-.63a2.87,2.87,0,0,0-.39-3.55L60,34.42A2.87,2.87,0,0,0,56.48,34l-.63.4a13.58,13.58,0,0,0-2-.81l-.11-.41A2.84,2.84,0,0,0,51,31.08H49a2.84,2.84,0,0,0-2.75,2.13l-.11.41a13.58,13.58,0,0,0-2,.81l-.63-.4a2.87,2.87,0,0,0-3.55.39L38.6,35.79a2.87,2.87,0,0,0-.39,3.55l.41.63a12.59,12.59,0,0,0-.82,2l-.41.1a2.86,2.86,0,0,0-2.13,2.76v2a2.84,2.84,0,0,0,2.13,2.75l.41.11a12.59,12.59,0,0,0,.82,2l-.41.63a2.86,2.86,0,0,0,.39,3.54L40,57.22a2.86,2.86,0,0,0,3.55.38l.63-.4a11.66,11.66,0,0,0,2,.81l.11.41A2.83,2.83,0,0,0,49,60.56h2a2.83,2.83,0,0,0,2.75-2.14l.11-.41a11.66,11.66,0,0,0,2-.81l.63.4A2.84,2.84,0,0,0,60,57.22l1.38-1.38a2.86,2.86,0,0,0,.39-3.54l-.41-.63a12.59,12.59,0,0,0,.82-2l.41-.11a2.84,2.84,0,0,0,2.13-2.75v-2A2.86,2.86,0,0,0,62.61,42Zm-.1,4.9A.2.2,0,0,1,62,47l-1.14.3a1.29,1.29,0,0,0-1,.95A10.06,10.06,0,0,1,58.72,51a1.31,1.31,0,0,0,0,1.39l.83,1.29a.21.21,0,0,1,0,.26l-1.38,1.38a.21.21,0,0,1-.26,0l-1.29-.83a1.31,1.31,0,0,0-1.39,0,10.38,10.38,0,0,1-2.75,1.14,1.31,1.31,0,0,0-.95.94l-.3,1.15a.2.2,0,0,1-.2.15H49a.2.2,0,0,1-.2-.15l-.3-1.15a1.31,1.31,0,0,0-.95-.94,10.38,10.38,0,0,1-2.75-1.14,1.27,1.27,0,0,0-.68-.19,1.31,1.31,0,0,0-.71.21l-1.29.83a.21.21,0,0,1-.26,0L40.46,54a.21.21,0,0,1,0-.26l.83-1.29a1.31,1.31,0,0,0,0-1.39,10.06,10.06,0,0,1-1.14-2.75,1.29,1.29,0,0,0-1-.95L38.05,47a.2.2,0,0,1-.15-.2v-2a.22.22,0,0,1,.15-.21l1.14-.29a1.31,1.31,0,0,0,1-1,10.12,10.12,0,0,1,1.14-2.74,1.31,1.31,0,0,0,0-1.39l-.83-1.29a.21.21,0,0,1,0-.26l1.38-1.38a.21.21,0,0,1,.26,0l1.29.83a1.31,1.31,0,0,0,1.39,0A10.06,10.06,0,0,1,47.53,36a1.32,1.32,0,0,0,.95-1l.3-1.14a.2.2,0,0,1,.2-.16h2a.2.2,0,0,1,.2.16l.3,1.14a1.32,1.32,0,0,0,.95,1,10.06,10.06,0,0,1,2.75,1.14,1.31,1.31,0,0,0,1.39,0l1.29-.83a.21.21,0,0,1,.26,0l1.38,1.38a.21.21,0,0,1,0,.26l-.83,1.29a1.31,1.31,0,0,0,0,1.39,10.12,10.12,0,0,1,1.14,2.74,1.31,1.31,0,0,0,1,1l1.14.29a.22.22,0,0,1,.15.21v2Z"/><path class="cls-2" d="M50,23.43a21.81,21.81,0,0,0-5.2,43V69.5H43.65a1.32,1.32,0,0,0-1.32,1.32v6.66a1.32,1.32,0,0,0,1.32,1.32h2v3.61A1.32,1.32,0,0,0,47,83.72h6a1.32,1.32,0,0,0,1.32-1.31V78.8h2a1.32,1.32,0,0,0,1.32-1.32V70.82a1.32,1.32,0,0,0-1.32-1.32H55.2V66.44a21.81,21.81,0,0,0-5.2-43Zm1.67,57.66H48.33V78.8h3.34ZM55,76.17H45v-4H55ZM53.64,64.08a1.32,1.32,0,0,0-1.07,1.3V69.5H47.43V65.38a1.32,1.32,0,0,0-1.07-1.3,19.26,19.26,0,1,1,7.28,0Z"/><path class="cls-2" d="M50,21a1.32,1.32,0,0,0,1.32-1.32V17.59a1.32,1.32,0,0,0-2.64,0v2.05A1.32,1.32,0,0,0,50,21Z"/><path class="cls-2" d="M77.66,43.82H75.6a1.32,1.32,0,1,0,0,2.64h2.06a1.32,1.32,0,0,0,0-2.64Z"/><path class="cls-2" d="M24.4,43.82H22.34a1.32,1.32,0,0,0,0,2.64H24.4a1.32,1.32,0,1,0,0-2.64Z"/><path class="cls-2" d="M68.1,28.43A1.29,1.29,0,0,0,69,28l1.46-1.45a1.32,1.32,0,1,0-1.86-1.86l-1.46,1.45a1.32,1.32,0,0,0,0,1.86A1.3,1.3,0,0,0,68.1,28.43Z"/><path class="cls-2" d="M31,62.23l-1.46,1.45a1.33,1.33,0,0,0,0,1.87,1.35,1.35,0,0,0,.93.38,1.28,1.28,0,0,0,.93-.38l1.46-1.45A1.32,1.32,0,0,0,31,62.23Z"/><path class="cls-2" d="M69,62.23a1.32,1.32,0,0,0-1.86,1.87l1.46,1.45a1.28,1.28,0,0,0,.93.38,1.35,1.35,0,0,0,.93-.38,1.33,1.33,0,0,0,0-1.87Z"/><path class="cls-2" d="M31,28a1.29,1.29,0,0,0,.93.39,1.32,1.32,0,0,0,.93-2.25l-1.46-1.45a1.32,1.32,0,0,0-1.86,1.86Z"/><path class="cls-2" d="M50,39.48a6.34,6.34,0,1,0,6.34,6.34A6.35,6.35,0,0,0,50,39.48Zm0,10a3.7,3.7,0,1,1,3.7-3.7A3.7,3.7,0,0,1,50,49.52Z"/></svg>