<svg xmlns="http://www.w3.org/2000/svg" viewBox="0 0 382.94 335.1"><defs><style>.cls-1{font-size:12px;font-family:MyriadPro-Regular, Myriad Pro;}.cls-2{letter-spacing:-0.01em;}.cls-3{letter-spacing:-0.01em;}.cls-4{letter-spacing:0em;}.cls-5{fill:#00afff;}.cls-6{fill:#0043ff;}.cls-7{fill:#0080ff;}.cls-8{fill:#005dff;}.cls-9{fill:#00aeff;}.cls-10{fill:#fff51f;}.cls-11{fill:#8bffff;}.cls-12{fill:#8bbfff;}.cls-13{fill:#07f;}.cls-14{fill:#0067ff;}.cls-15{fill:#0054ff;}</style></defs><g id="Layer_2" data-name="Layer 2"><g id="Laptop"><text class="cls-1" transform="translate(273.11 266.65)"><tspan class="cls-2">L</tspan><tspan x="5.5" y="0">o</tspan><tspan class="cls-3" x="12.08" y="0">r</tspan><tspan class="cls-4" x="15.89" y="0">em ipsum</tspan></text><polygon class="cls-5" points="191.77 191.37 280 242.31 382.94 182.88 294.71 131.94 191.77 191.37"/><polygon class="cls-6" points="191.77 191.37 191.78 275.25 280 326.19 280 242.31 191.77 191.37"/><polygon class="cls-7" points="280 326.19 382.94 266.76 382.94 182.88 280 242.31 280 326.19"/><polygon class="cls-5" points="103.41 59.43 191.64 110.37 294.58 50.94 206.35 0 103.41 59.43"/><polygon class="cls-6" points="103.41 59.43 103.41 143.31 191.64 194.25 191.64 110.37 103.41 59.43"/><polygon class="cls-7" points="191.64 194.25 294.58 134.82 294.58 50.94 191.64 110.37 191.64 194.25"/><polygon class="cls-5" points="0 200.28 88.23 251.22 191.17 191.79 102.94 140.85 0 200.28"/><polygon class="cls-6" points="0 200.28 0 284.16 88.23 335.1 88.23 251.22 0 200.28"/><polygon class="cls-7" points="88.23 335.1 191.17 275.67 191.17 191.79 88.23 251.22 88.23 335.1"/><path class="cls-8" d="M66.2,169.61,17.12,197.94c-1.3.75-1.3,2,0,2.72l18.24,10.53a5.14,5.14,0,0,0,4.69,0l48.57-28.6c1.29-.77,1.29-2,0-2.74l-17.7-10.22A5.21,5.21,0,0,0,66.2,169.61Z"/><polygon class="cls-8" points="89.54 176.01 16.15 194.5 16.15 199.3 38.06 211.73 89.59 180.75 89.54 176.01"/><path class="cls-9" d="M66.2,164.72,17.12,193.05c-1.3.75-1.3,2,0,2.72L35.36,206.3a5.14,5.14,0,0,0,4.69,0l48.57-28.6c1.29-.77,1.29-2,0-2.74l-17.7-10.22A5.21,5.21,0,0,0,66.2,164.72Z"/><path class="cls-10" d="M66.45,166.09l-42,24.24a1.22,1.22,0,0,0,0,2.32l15.6,9a4.42,4.42,0,0,0,4,0l41.55-24.46a1.25,1.25,0,0,0,0-2.35l-15.15-8.74A4.45,4.45,0,0,0,66.45,166.09Z"/><path class="cls-11" d="M30.49,201.44l-5.65-3.26c-.65-.37-.57-1,.18-1.46h0a2.86,2.86,0,0,1,2.54-.11l5.64,3.26c.65.38.57,1-.18,1.47h0A2.8,2.8,0,0,1,30.49,201.44Z"/><path class="cls-12" d="M28.68,205.61l-4.2-2.42a1.3,1.3,0,0,1-.62-1h0c0-.34.28-.45.62-.26l4.2,2.43a1.26,1.26,0,0,1,.61,1h0C29.29,205.69,29,205.81,28.68,205.61Z"/><path class="cls-13" d="M243.66,193.27V156.91a7.84,7.84,0,0,1,3.67-6.1L303,119c2-1.15,3.67-.2,3.67,2.13v35.71"/><polygon class="cls-7" points="245.35 194.12 308.39 157.72 336.01 173.8 273.36 210.1 245.35 194.12"/><path class="cls-14" d="M255.92,193.25l-2.16,1.24a1.34,1.34,0,0,1-1.23-.05l-.48-.27c-.37-.21-.41-.53-.09-.72l2.16-1.24a1.37,1.37,0,0,1,1.23,0l.48.28C256.2,192.75,256.24,193.07,255.92,193.25Z"/><path class="cls-14" d="M260.26,195.76,258.11,197a1.36,1.36,0,0,1-1.24-.05L255,195.88c-.37-.21-.41-.53-.09-.71l2.15-1.25a1.4,1.4,0,0,1,1.24.05l1.86,1.07C260.54,195.26,260.58,195.58,260.26,195.76Z"/><path class="cls-14" d="M277,205.43l-2.16,1.24a1.34,1.34,0,0,1-1.23,0l-1.86-1.07c-.36-.21-.4-.53-.09-.71l2.16-1.25a1.4,1.4,0,0,1,1.24,0l1.85,1.07C277.29,204.92,277.33,205.24,277,205.43Z"/><path class="cls-14" d="M281.05,203.09l-2.16,1.25a1.37,1.37,0,0,1-1.23-.05l-1.86-1.07c-.36-.21-.4-.53-.09-.72l2.16-1.24a1.4,1.4,0,0,1,1.24.05l1.85,1.07C281.33,202.59,281.37,202.91,281.05,203.09Z"/><path class="cls-14" d="M285.09,200.76,282.93,202a1.37,1.37,0,0,1-1.23,0l-1.86-1.07c-.37-.21-.41-.53-.09-.72l2.16-1.24a1.36,1.36,0,0,1,1.24,0l1.85,1.07C285.37,200.26,285.41,200.58,285.09,200.76Z"/><path class="cls-14" d="M289.22,198.38l-2.16,1.24a1.34,1.34,0,0,1-1.23-.05L284,198.5c-.36-.21-.4-.53-.09-.71l2.16-1.25a1.4,1.4,0,0,1,1.24.05l1.85,1.07C289.5,197.88,289.54,198.2,289.22,198.38Z"/><path class="cls-14" d="M314.55,183.75l-3.53,2a1.4,1.4,0,0,1-1.24,0l-1.85-1.07c-.37-.21-.41-.53-.09-.71l3.53-2a1.36,1.36,0,0,1,1.24.05l1.86,1.07C314.83,183.25,314.87,183.57,314.55,183.75Z"/><path class="cls-14" d="M319.69,180.78l-3.53,2a1.36,1.36,0,0,1-1.24,0l-1.85-1.07c-.37-.21-.41-.53-.09-.71l3.53-2a1.36,1.36,0,0,1,1.24.05l1.86,1.07C320,180.28,320,180.6,319.69,180.78Z"/><path class="cls-14" d="M309.23,186.83,291,197.34a1.36,1.36,0,0,1-1.24-.05l-1.85-1.07c-.37-.21-.41-.53-.09-.71L306.05,185a1.4,1.4,0,0,1,1.24,0l1.85,1.07C309.51,186.32,309.55,186.64,309.23,186.83Z"/><path class="cls-14" d="M263.94,193.64l-2.16,1.24a1.36,1.36,0,0,1-1.24,0l-1.85-1.07c-.37-.21-.41-.53-.09-.71l2.16-1.25a1.37,1.37,0,0,1,1.23,0l1.86,1.07C264.21,193.14,264.25,193.46,263.94,193.64Z"/><path class="cls-14" d="M270.67,194.77,268.51,196a1.36,1.36,0,0,1-1.24,0l-1.85-1.07c-.37-.21-.41-.53-.09-.71l2.16-1.25a1.37,1.37,0,0,1,1.23,0l1.86,1.08C271,194.27,271,194.59,270.67,194.77Z"/><path class="cls-14" d="M280.74,198.25l-2.15,1.25a1.4,1.4,0,0,1-1.24-.05l-1.86-1.07c-.36-.21-.4-.53-.08-.72l2.15-1.24a1.4,1.4,0,0,1,1.24.05l1.85,1.07C281,197.75,281.06,198.07,280.74,198.25Z"/><path class="cls-14" d="M284.76,195.93l-2.16,1.25a1.37,1.37,0,0,1-1.23-.05l-1.86-1.07c-.36-.21-.4-.53-.09-.72l2.16-1.24a1.4,1.4,0,0,1,1.24.05l1.85,1.07C285,195.43,285.08,195.75,284.76,195.93Z"/><path class="cls-14" d="M288.78,193.61l-2.16,1.25a1.37,1.37,0,0,1-1.23-.05l-1.86-1.07c-.36-.21-.4-.53-.09-.72l2.16-1.24a1.4,1.4,0,0,1,1.24.05l1.85,1.07C289.06,193.11,289.1,193.43,288.78,193.61Z"/><path class="cls-14" d="M292.8,191.29l-2.16,1.25a1.37,1.37,0,0,1-1.23,0l-1.86-1.07c-.37-.21-.41-.53-.09-.72l2.16-1.24a1.37,1.37,0,0,1,1.23,0l1.86,1.07C293.08,190.79,293.12,191.11,292.8,191.29Z"/><path class="cls-14" d="M296.82,189l-2.16,1.25a1.4,1.4,0,0,1-1.24-.05l-1.85-1.07c-.37-.21-.41-.53-.09-.72l2.16-1.24a1.37,1.37,0,0,1,1.23.05l1.86,1.07C297.09,188.47,297.13,188.79,296.82,189Z"/><path class="cls-14" d="M300.84,186.65l-2.16,1.25a1.4,1.4,0,0,1-1.24-.05l-1.85-1.07c-.37-.21-.41-.53-.09-.72l2.16-1.24a1.37,1.37,0,0,1,1.23.05l1.86,1.07C301.11,186.15,301.15,186.47,300.84,186.65Z"/><path class="cls-14" d="M304.85,184.33l-2.15,1.25a1.4,1.4,0,0,1-1.24-.05l-1.85-1.07c-.37-.21-.41-.53-.09-.72l2.15-1.24a1.4,1.4,0,0,1,1.24.05l1.85,1.07C305.13,183.83,305.17,184.15,304.85,184.33Z"/><path class="cls-14" d="M308.87,182l-2.15,1.25a1.39,1.39,0,0,1-1.24,0l-1.86-1.07c-.36-.21-.4-.53-.08-.72l2.15-1.24a1.36,1.36,0,0,1,1.24,0l1.85,1.07C309.15,181.51,309.19,181.83,308.87,182Z"/><path class="cls-14" d="M312.89,179.69l-2.16,1.25a1.37,1.37,0,0,1-1.23-.05l-1.86-1.07c-.36-.21-.4-.53-.09-.72l2.16-1.24a1.36,1.36,0,0,1,1.24,0L312.8,179C313.17,179.19,313.21,179.51,312.89,179.69Z"/><path class="cls-14" d="M316.91,177.37l-2.16,1.25a1.37,1.37,0,0,1-1.23-.05l-1.86-1.07c-.36-.21-.4-.53-.09-.72l2.16-1.24a1.36,1.36,0,0,1,1.24.05l1.85,1.07C317.19,176.87,317.23,177.19,316.91,177.37Z"/><path class="cls-14" d="M275.43,196.67l-2.16,1.25a1.35,1.35,0,0,1-1.23-.06l-1.86-1.07c-.36-.21-.4-.53-.09-.71l2.16-1.25a1.37,1.37,0,0,1,1.24.06l1.85,1.07C275.71,196.17,275.75,196.49,275.43,196.67Z"/><path class="cls-14" d="M279.34,194.41l-2.16,1.25a1.37,1.37,0,0,1-1.23,0l-1.86-1.07c-.36-.21-.4-.53-.09-.72l2.16-1.24a1.36,1.36,0,0,1,1.24,0l1.85,1.07C279.62,193.91,279.66,194.23,279.34,194.41Z"/><path class="cls-14" d="M283.25,192.16l-2.16,1.24a1.37,1.37,0,0,1-1.23-.05L278,192.28c-.36-.21-.4-.53-.09-.72l2.16-1.24a1.4,1.4,0,0,1,1.24.05l1.85,1.07C283.53,191.65,283.57,192,283.25,192.16Z"/><path class="cls-14" d="M287.16,189.9,285,191.14a1.34,1.34,0,0,1-1.23,0L281.91,190c-.36-.21-.4-.53-.09-.71l2.16-1.25a1.4,1.4,0,0,1,1.24.05l1.85,1.07C287.44,189.4,287.48,189.71,287.16,189.9Z"/><path class="cls-14" d="M291.07,187.64l-2.16,1.25a1.35,1.35,0,0,1-1.23-.06l-1.86-1.07c-.36-.21-.4-.53-.09-.71l2.16-1.25a1.37,1.37,0,0,1,1.24.06l1.85,1.07C291.35,187.14,291.39,187.46,291.07,187.64Z"/><path class="cls-14" d="M295,185.38l-2.16,1.25a1.37,1.37,0,0,1-1.23,0l-1.86-1.07c-.36-.22-.4-.53-.08-.72l2.15-1.24a1.36,1.36,0,0,1,1.24,0l1.85,1.07C295.26,184.88,295.3,185.2,295,185.38Z"/><path class="cls-14" d="M298.89,183.12l-2.15,1.25a1.39,1.39,0,0,1-1.24-.05l-1.86-1.07c-.36-.21-.4-.53-.08-.72l2.15-1.24a1.4,1.4,0,0,1,1.24.05l1.85,1.07C299.17,182.62,299.21,182.94,298.89,183.12Z"/><path class="cls-14" d="M306.71,178.61l-2.15,1.25a1.4,1.4,0,0,1-1.24-.06l-1.86-1.07c-.36-.21-.4-.53-.08-.71l2.15-1.25a1.4,1.4,0,0,1,1.24,0l1.85,1.08C307,178.11,307,178.43,306.71,178.61Z"/><path class="cls-14" d="M302.8,180.87l-2.15,1.24a1.36,1.36,0,0,1-1.24-.05L297.55,181c-.36-.21-.4-.53-.08-.71l2.15-1.25a1.4,1.4,0,0,1,1.24.05l1.85,1.07C303.08,180.36,303.12,180.68,302.8,180.87Z"/><path class="cls-14" d="M310.62,176.35l-2.15,1.25a1.4,1.4,0,0,1-1.24,0l-1.85-1.07c-.37-.22-.41-.54-.09-.72l2.15-1.24a1.36,1.36,0,0,1,1.24,0l1.85,1.07C310.9,175.85,310.94,176.17,310.62,176.35Z"/><path class="cls-14" d="M314.53,174.09l-2.15,1.25a1.4,1.4,0,0,1-1.24-.05l-1.85-1.07c-.37-.21-.41-.53-.09-.72l2.15-1.24a1.4,1.4,0,0,1,1.24.05l1.85,1.07C314.81,173.59,314.85,173.91,314.53,174.09Z"/><path class="cls-14" d="M274.53,192.54l-2.16,1.24a1.34,1.34,0,0,1-1.23-.05l-1.86-1.07c-.36-.21-.4-.53-.09-.71l2.16-1.25a1.4,1.4,0,0,1,1.24.05l1.85,1.08C274.81,192,274.85,192.36,274.53,192.54Z"/><path class="cls-14" d="M278.39,190.31l-2.15,1.24a1.36,1.36,0,0,1-1.24-.05l-1.85-1.07c-.37-.21-.41-.53-.09-.71l2.15-1.25a1.4,1.4,0,0,1,1.24.05l1.86,1.08C278.67,189.81,278.71,190.13,278.39,190.31Z"/><path class="cls-14" d="M282.26,188.08l-2.16,1.24a1.36,1.36,0,0,1-1.24,0L277,188.2c-.37-.21-.41-.53-.09-.71l2.16-1.25a1.37,1.37,0,0,1,1.23,0l1.86,1.07C282.53,187.58,282.57,187.9,282.26,188.08Z"/><path class="cls-14" d="M286.12,185.85,284,187.09a1.34,1.34,0,0,1-1.23-.05L280.87,186c-.36-.21-.4-.53-.09-.71l2.16-1.25a1.4,1.4,0,0,1,1.24.05l1.85,1.07C286.4,185.35,286.44,185.67,286.12,185.85Z"/><path class="cls-14" d="M290,183.62l-2.15,1.24a1.36,1.36,0,0,1-1.24-.05l-1.86-1.07c-.36-.21-.4-.53-.08-.71l2.15-1.25a1.4,1.4,0,0,1,1.24.05l1.85,1.07C290.26,183.12,290.3,183.44,290,183.62Z"/><path class="cls-14" d="M293.85,181.39l-2.16,1.24a1.36,1.36,0,0,1-1.24,0l-1.85-1.07c-.37-.21-.41-.53-.09-.71l2.16-1.25a1.37,1.37,0,0,1,1.23,0l1.86,1.07C294.12,180.89,294.16,181.2,293.85,181.39Z"/><path class="cls-14" d="M297.71,179.16l-2.16,1.24a1.34,1.34,0,0,1-1.23-.05l-1.86-1.07c-.37-.21-.41-.53-.09-.71l2.16-1.25a1.37,1.37,0,0,1,1.23.05l1.86,1.07C298,178.66,298,179,297.71,179.16Z"/><path class="cls-14" d="M301.57,176.93l-2.16,1.24a1.34,1.34,0,0,1-1.23,0l-1.86-1.07c-.36-.21-.4-.53-.09-.71l2.16-1.25a1.4,1.4,0,0,1,1.24,0l1.85,1.07C301.85,176.42,301.89,176.74,301.57,176.93Z"/><path class="cls-14" d="M317,168l-2.15,1.24a1.4,1.4,0,0,1-1.24-.05l-1.85-1.07c-.37-.21-.41-.53-.09-.71l2.15-1.25a1.4,1.4,0,0,1,1.24.05l1.85,1.07C317.3,167.5,317.34,167.82,317,168Z"/><path class="cls-14" d="M313.16,170.24,311,171.48a1.37,1.37,0,0,1-1.23,0l-1.86-1.07c-.36-.21-.4-.53-.09-.71L310,168.4a1.4,1.4,0,0,1,1.24,0l1.85,1.07C313.44,169.73,313.48,170.05,313.16,170.24Z"/><path class="cls-14" d="M309.3,172.47l-2.16,1.24a1.36,1.36,0,0,1-1.24-.05l-1.85-1.07c-.37-.21-.41-.53-.09-.71l2.16-1.25a1.37,1.37,0,0,1,1.23.05l1.86,1.07C309.57,172,309.61,172.28,309.3,172.47Z"/><path class="cls-14" d="M305.43,174.7l-2.15,1.24a1.36,1.36,0,0,1-1.24-.05l-1.85-1.07c-.37-.21-.41-.53-.09-.71l2.15-1.25a1.4,1.4,0,0,1,1.24,0l1.86,1.07C305.71,174.19,305.75,174.51,305.43,174.7Z"/><path class="cls-14" d="M268,191.31l-2.15,1.24a1.4,1.4,0,0,1-1.24-.05l-1.85-1.07c-.37-.21-.41-.53-.09-.71l2.15-1.25a1.39,1.39,0,0,1,1.24.05l1.86,1.07C268.25,190.8,268.29,191.12,268,191.31Z"/><path class="cls-14" d="M272,189l-2.15,1.25a1.4,1.4,0,0,1-1.24-.05l-1.85-1.07c-.37-.21-.41-.53-.09-.72l2.15-1.24a1.4,1.4,0,0,1,1.24.05l1.85,1.07C272.29,188.47,272.33,188.79,272,189Z"/><path class="cls-14" d="M276.05,186.64l-2.15,1.25a1.4,1.4,0,0,1-1.24,0l-1.86-1.07c-.36-.22-.4-.53-.08-.72l2.15-1.24a1.36,1.36,0,0,1,1.24.05l1.85,1.07C276.33,186.14,276.37,186.46,276.05,186.64Z"/><path class="cls-14" d="M280.09,184.31l-2.16,1.25a1.37,1.37,0,0,1-1.23-.05l-1.86-1.08c-.36-.21-.4-.53-.09-.71l2.16-1.24a1.36,1.36,0,0,1,1.24.05L280,183.6C280.37,183.81,280.41,184.13,280.09,184.31Z"/><path class="cls-14" d="M284.13,182,282,183.22a1.34,1.34,0,0,1-1.23-.05l-1.86-1.07c-.36-.21-.4-.53-.09-.71l2.16-1.25a1.4,1.4,0,0,1,1.24.05l1.85,1.08C284.41,181.48,284.45,181.8,284.13,182Z"/><path class="cls-14" d="M288.17,179.65,286,180.89a1.34,1.34,0,0,1-1.23,0l-1.86-1.07c-.37-.21-.4-.53-.09-.71l2.16-1.25a1.4,1.4,0,0,1,1.24.05l1.85,1.07C288.45,179.14,288.49,179.46,288.17,179.65Z"/><path class="cls-14" d="M292.21,177.32l-2.16,1.24a1.4,1.4,0,0,1-1.24-.05L287,177.44c-.37-.21-.41-.53-.09-.72l2.16-1.24a1.37,1.37,0,0,1,1.23.05l1.86,1.07C292.48,176.81,292.52,177.13,292.21,177.32Z"/><path class="cls-14" d="M296.25,175l-2.16,1.25a1.4,1.4,0,0,1-1.24,0L291,175.11c-.37-.21-.41-.53-.09-.72l2.16-1.24a1.34,1.34,0,0,1,1.23,0l1.86,1.07C296.52,174.48,296.56,174.8,296.25,175Z"/><path class="cls-14" d="M300.29,172.65l-2.16,1.25a1.4,1.4,0,0,1-1.24-.05L295,172.77c-.37-.21-.41-.53-.09-.71l2.16-1.24a1.34,1.34,0,0,1,1.23.05l1.86,1.07C300.56,172.15,300.6,172.47,300.29,172.65Z"/><path class="cls-14" d="M304.32,170.32l-2.15,1.25a1.37,1.37,0,0,1-1.24-.06l-1.85-1.07c-.37-.21-.41-.53-.09-.71l2.15-1.25a1.37,1.37,0,0,1,1.24.06l1.86,1.07C304.6,169.82,304.64,170.14,304.32,170.32Z"/><path class="cls-14" d="M308.18,168.09,306,169.34a1.37,1.37,0,0,1-1.23-.05l-1.86-1.07c-.36-.21-.4-.53-.09-.72l2.16-1.24a1.4,1.4,0,0,1,1.24.05l1.85,1.07C308.46,167.59,308.5,167.91,308.18,168.09Z"/><path class="cls-14" d="M312.77,165.44l-3.08,1.78a1.37,1.37,0,0,1-1.23-.05l-1.86-1.07c-.36-.21-.4-.53-.09-.72l3.08-1.77a1.4,1.4,0,0,1,1.24,0l1.85,1.07C313.05,164.94,313.09,165.26,312.77,165.44Z"/><path class="cls-14" d="M260,190.92l-2.16,1.24a1.36,1.36,0,0,1-1.24,0l-.47-.27c-.37-.22-.41-.53-.09-.72l2.16-1.24a1.34,1.34,0,0,1,1.23.05l.48.27C260.23,190.41,260.27,190.73,260,190.92Z"/><path class="cls-14" d="M264,188.59l-2.16,1.24a1.4,1.4,0,0,1-1.24-.05l-.47-.28c-.37-.21-.41-.53-.09-.71l2.15-1.24a1.36,1.36,0,0,1,1.24,0l.48.27C264.27,188.08,264.31,188.4,264,188.59Z"/><path class="cls-14" d="M268,186.25l-2.16,1.25a1.4,1.4,0,0,1-1.24-.05l-.48-.28c-.36-.21-.4-.53-.08-.71l2.15-1.25a1.4,1.4,0,0,1,1.24,0l.48.28C268.31,185.75,268.35,186.07,268,186.25Z"/><path class="cls-14" d="M272.07,183.92l-2.15,1.25a1.4,1.4,0,0,1-1.24,0l-.48-.28c-.36-.21-.4-.53-.09-.71l2.16-1.25a1.4,1.4,0,0,1,1.24.05l.48.28C272.35,183.42,272.39,183.74,272.07,183.92Z"/><path class="cls-14" d="M276.11,181.59,274,182.84a1.37,1.37,0,0,1-1.24-.06l-.48-.27c-.36-.21-.4-.53-.09-.72l2.16-1.24a1.4,1.4,0,0,1,1.24,0l.47.28C276.39,181.09,276.43,181.41,276.11,181.59Z"/><path class="cls-14" d="M280.15,179.26,278,180.5a1.34,1.34,0,0,1-1.23-.05l-.48-.27c-.36-.21-.4-.53-.09-.72l2.16-1.24a1.36,1.36,0,0,1,1.24.05l.47.27C280.43,178.76,280.47,179.08,280.15,179.26Z"/><path class="cls-14" d="M284.19,176.93,282,178.17a1.37,1.37,0,0,1-1.23,0l-.48-.27c-.37-.22-.41-.54-.09-.72l2.16-1.24a1.34,1.34,0,0,1,1.23.05l.48.27C284.47,176.42,284.51,176.74,284.19,176.93Z"/><path class="cls-14" d="M288.23,174.59l-2.16,1.25a1.37,1.37,0,0,1-1.23-.05l-.48-.28c-.37-.21-.41-.53-.09-.71l2.16-1.25a1.35,1.35,0,0,1,1.23.06l.48.27C288.51,174.09,288.55,174.41,288.23,174.59Z"/><path class="cls-14" d="M292.27,172.26l-2.16,1.25a1.4,1.4,0,0,1-1.24,0l-.47-.28c-.37-.21-.41-.53-.09-.71l2.16-1.25a1.37,1.37,0,0,1,1.23.05l.48.28C292.55,171.76,292.59,172.08,292.27,172.26Z"/><path class="cls-14" d="M296.31,169.93l-2.16,1.25a1.37,1.37,0,0,1-1.24-.06l-.47-.27c-.37-.21-.41-.53-.09-.71l2.16-1.25a1.37,1.37,0,0,1,1.23.05l.48.28C296.58,169.43,296.62,169.75,296.31,169.93Z"/><path class="cls-14" d="M300.35,167.6l-2.16,1.24a1.36,1.36,0,0,1-1.24-.05l-.47-.27c-.37-.21-.41-.53-.09-.72l2.15-1.24a1.4,1.4,0,0,1,1.24.05l.48.28C300.62,167.1,300.66,167.42,300.35,167.6Z"/><path class="cls-14" d="M304.38,165.27l-2.15,1.24a1.36,1.36,0,0,1-1.24,0l-.48-.27c-.36-.22-.4-.53-.08-.72l2.15-1.24a1.36,1.36,0,0,1,1.24.05l.48.27C304.66,164.76,304.7,165.08,304.38,165.27Z"/><path class="cls-14" d="M308.42,162.94l-2.15,1.24a1.4,1.4,0,0,1-1.24-.05l-.48-.28c-.36-.21-.4-.53-.09-.71l2.16-1.25a1.37,1.37,0,0,1,1.24.06l.47.27C308.7,162.43,308.74,162.75,308.42,162.94Z"/><path class="cls-14" d="M266.63,197.1l-4.18,2.41a1.34,1.34,0,0,1-1.23,0l-1.86-1.07c-.36-.21-.4-.53-.09-.71l4.18-2.41a1.36,1.36,0,0,1,1.24,0l1.85,1.07C266.91,196.6,267,196.92,266.63,197.1Z"/><path class="cls-14" d="M271.39,199l-4.91,2.84a1.4,1.4,0,0,1-1.24-.05l-1.85-1.07c-.37-.22-.41-.54-.09-.72l4.91-2.83a1.36,1.36,0,0,1,1.24.05l1.85,1.07C271.67,198.5,271.71,198.82,271.39,199Z"/><path class="cls-14" d="M321.14,170.28l-4.91,2.83a1.34,1.34,0,0,1-1.23-.05L313.14,172c-.37-.21-.4-.53-.09-.71l4.91-2.84a1.4,1.4,0,0,1,1.24.05l1.85,1.07C321.42,169.78,321.46,170.1,321.14,170.28Z"/><path class="cls-14" d="M277.07,200.37l-6.56,3.79a1.36,1.36,0,0,1-1.24,0L267.42,203c-.37-.21-.41-.53-.09-.71l6.56-3.79a1.4,1.4,0,0,1,1.24.05l1.85,1.07C277.35,199.87,277.39,200.19,277.07,200.37Z"/><path class="cls-14" d="M325.17,172.6l-6.56,3.79a1.36,1.36,0,0,1-1.24,0l-1.85-1.07c-.37-.21-.41-.53-.09-.71l6.56-3.79a1.4,1.4,0,0,1,1.24,0l1.85,1.07C325.45,172.1,325.49,172.42,325.17,172.6Z"/><path class="cls-14" d="M322.47,177.77l-1.41.82a1.4,1.4,0,0,1-1.24-.05h0c-.36-.21-.4-.53-.09-.72l1.42-.81a1.37,1.37,0,0,1,1.23.05h0C322.75,177.27,322.79,177.59,322.47,177.77Z"/><path class="cls-14" d="M328.25,174.43l-1.41.82a1.4,1.4,0,0,1-1.24-.05h0c-.36-.21-.4-.53-.08-.72l1.41-.81a1.37,1.37,0,0,1,1.23.05h0C328.53,173.93,328.57,174.25,328.25,174.43Z"/><path class="cls-14" d="M326.51,176.59l-1.41.81a1.36,1.36,0,0,1-1.24-.05h0c-.36-.21-.4-.53-.09-.71l1.42-.82a1.37,1.37,0,0,1,1.23.05h0C326.79,176.09,326.83,176.41,326.51,176.59Z"/><path class="cls-14" d="M324.6,175.49l-1.41.81a1.4,1.4,0,0,1-1.24-.05h0c-.36-.21-.4-.53-.08-.71l1.41-.82a1.37,1.37,0,0,1,1.23.05h0C324.88,175,324.92,175.3,324.6,175.49Z"/><path class="cls-10" d="M245.35,194.12V157.76a7.83,7.83,0,0,1,3.67-6.11l55.71-31.77c2-1.15,3.66-.2,3.66,2.13v35.71"/><polygon class="cls-15" points="243.6 192.7 245.35 193.57 245.35 158.16 246.21 154.69 248.13 152.28 250.87 150.59 304.92 119.78 305.77 119.46 304.53 118.55 246.8 151.15 245.14 152.85 244.24 154.42 243.74 156.06 243.66 157.99 243.6 192.7"/></g></g></svg>