<svg xmlns="http://www.w3.org/2000/svg" viewBox="0 0 40 40"><defs><style>.cls-1{fill:#191717;}</style></defs><g id="Laptop"><path class="cls-1" d="M14.14,29.27H6.47a1.25,1.25,0,0,0-.88,2.13l7.66,7.67a1.26,1.26,0,0,0,2.14-.89V30.52A1.25,1.25,0,0,0,14.14,29.27ZM31,.64H9A3.75,3.75,0,0,0,5.22,4.4V27a1.25,1.25,0,0,0,1.26,1.25h8.45a1.51,1.51,0,0,1,1.51,1.51c0,5,0,7.31,0,8.46a1.25,1.25,0,0,0,1.25,1.26H31a3.76,3.76,0,0,0,3.75-3.76V4.4A3.75,3.75,0,0,0,31,.64ZM20,4.58A4.22,4.22,0,1,1,15.74,8.8,4.22,4.22,0,0,1,20,4.58ZM13.61,17.42a2.75,2.75,0,0,1,1.63-2.51c2.18-1,2.15-1,2.5-1h4.4c.35,0,.33,0,2.49,1a2.75,2.75,0,0,1,1.63,2.51v1.72A1.25,1.25,0,0,1,25,20.39H14.87a1.25,1.25,0,0,1-1.26-1.25ZM27,33.57H19.77a1.25,1.25,0,0,1,0-2.5H27a1.25,1.25,0,0,1,0,2.5Zm0-7.2H12.88a1.25,1.25,0,1,1,0-2.5H27a1.25,1.25,0,0,1,0,2.5Z"/></g></svg>