<svg xmlns="http://www.w3.org/2000/svg" viewBox="0 0 100 100"><defs><style>.cls-1{fill:#09f;}.cls-2{fill:#007bff;}.cls-3{fill:#0067ff;}.cls-4{fill:#08f;}.cls-5{fill:#00b2ff;}.cls-6{fill:#00afff;}.cls-7{fill:#0093ff;}.cls-8{font-size:7.46px;fill:#fff;font-family:MyriadPro-Regular, Myriad Pro;}</style></defs><g id="Laptop"><path class="cls-1" d="M27.9,87.46,44.43,97a4.32,4.32,0,0,0,3.9,0L80.2,78.61a1.19,1.19,0,0,0,0-2.25L63.66,66.81a4.32,4.32,0,0,0-3.9,0L27.9,85.21A1.19,1.19,0,0,0,27.9,87.46Z"/><path class="cls-2" d="M33.81,85.26l-1.15.66a.74.74,0,0,1-.66,0l-.26-.14c-.19-.12-.21-.29,0-.39l1.15-.66a.72.72,0,0,1,.65,0l.26.15C34,85,34,85.16,33.81,85.26Z"/><path class="cls-2" d="M36.12,86.59,35,87.26a.77.77,0,0,1-.66,0l-1-.57c-.19-.11-.21-.28,0-.38l1.15-.67a.77.77,0,0,1,.66,0l1,.57C36.27,86.32,36.29,86.5,36.12,86.59Z"/><path class="cls-2" d="M45.05,91.75l-1.15.66a.74.74,0,0,1-.66,0l-1-.57c-.2-.11-.22-.28,0-.38l1.15-.66a.73.73,0,0,1,.66,0l1,.58C45.19,91.48,45.22,91.65,45.05,91.75Z"/><path class="cls-2" d="M47.2,90.5l-1.15.67a.77.77,0,0,1-.66,0l-1-.57c-.19-.11-.21-.28,0-.38l1.15-.67a.77.77,0,0,1,.66,0l1,.57C47.35,90.24,47.37,90.41,47.2,90.5Z"/><path class="cls-2" d="M49.35,89.26l-1.15.66a.73.73,0,0,1-.66,0l-1-.57c-.19-.12-.21-.29,0-.38l1.15-.67a.74.74,0,0,1,.66,0l1,.57C49.5,89,49.52,89.16,49.35,89.26Z"/><path class="cls-2" d="M51.55,88l-1.15.66a.73.73,0,0,1-.66,0l-1-.58c-.2-.11-.22-.28,0-.38L49.86,87a.74.74,0,0,1,.66,0l1,.57C51.7,87.72,51.72,87.89,51.55,88Z"/><path class="cls-2" d="M65.06,80.19l-1.89,1.09a.71.71,0,0,1-.66,0l-1-.57c-.19-.11-.21-.28,0-.38l1.88-1.08a.73.73,0,0,1,.66,0l1,.57C65.2,79.93,65.22,80.1,65.06,80.19Z"/><path class="cls-2" d="M67.79,78.61,65.91,79.7a.74.74,0,0,1-.66,0l-1-.57c-.19-.11-.21-.28,0-.38l1.88-1.09a.77.77,0,0,1,.66,0l1,.57C67.94,78.34,68,78.51,67.79,78.61Z"/><path class="cls-2" d="M62.22,81.83l-9.71,5.61a.74.74,0,0,1-.66,0l-1-.57c-.2-.11-.22-.28,0-.38l9.71-5.61a.77.77,0,0,1,.66,0l1,.57C62.37,81.56,62.39,81.73,62.22,81.83Z"/><path class="cls-2" d="M38.08,85.46l-1.15.67a.77.77,0,0,1-.66,0l-1-.57c-.19-.11-.21-.28-.05-.38l1.15-.67a.77.77,0,0,1,.66,0l1,.57C38.23,85.2,38.25,85.37,38.08,85.46Z"/><path class="cls-2" d="M41.67,86.07l-1.15.66a.74.74,0,0,1-.66,0l-1-.57c-.2-.11-.22-.28,0-.38L40,85.09a.73.73,0,0,1,.66,0l1,.58C41.81,85.8,41.84,86,41.67,86.07Z"/><path class="cls-2" d="M47,87.92l-1.15.67a.77.77,0,0,1-.66,0l-1-.57c-.2-.11-.22-.28-.05-.38l1.15-.67A.77.77,0,0,1,46,87l1,.57C47.18,87.66,47.2,87.83,47,87.92Z"/><path class="cls-2" d="M49.18,86.69,48,87.35a.71.71,0,0,1-.66,0l-1-.57c-.19-.11-.22-.28-.05-.38l1.15-.66a.71.71,0,0,1,.66,0l1,.57C49.32,86.42,49.35,86.59,49.18,86.69Z"/><path class="cls-2" d="M51.32,85.45l-1.15.66a.73.73,0,0,1-.66,0l-1-.57c-.19-.12-.21-.29-.05-.38l1.15-.67a.74.74,0,0,1,.66,0l1,.57C51.47,85.18,51.49,85.35,51.32,85.45Z"/><path class="cls-2" d="M53.46,84.21l-1.15.67a.77.77,0,0,1-.66,0l-1-.57c-.19-.11-.21-.28,0-.38l1.15-.66a.71.71,0,0,1,.65,0l1,.57C53.61,84,53.63,84.12,53.46,84.21Z"/><path class="cls-2" d="M55.6,83l-1.15.66a.71.71,0,0,1-.66,0l-1-.57c-.2-.11-.22-.28-.05-.38L53.91,82a.71.71,0,0,1,.66,0l1,.57C55.75,82.71,55.77,82.88,55.6,83Z"/><path class="cls-2" d="M57.74,81.74l-1.15.66a.71.71,0,0,1-.65,0l-1-.57c-.2-.12-.22-.29-.05-.38l1.15-.67a.74.74,0,0,1,.66,0l1,.57C57.89,81.47,57.91,81.64,57.74,81.74Z"/><path class="cls-2" d="M59.89,80.5l-1.15.67a.74.74,0,0,1-.66,0l-1-.57c-.2-.11-.22-.28-.05-.38l1.15-.66a.73.73,0,0,1,.66,0l1,.57C60,80.24,60.05,80.41,59.89,80.5Z"/><path class="cls-2" d="M62,79.27l-1.15.66a.71.71,0,0,1-.66,0l-1-.57c-.19-.11-.22-.28,0-.38l1.15-.66a.71.71,0,0,1,.66,0l1,.57C62.17,79,62.2,79.17,62,79.27Z"/><path class="cls-2" d="M64.17,78,63,78.7a.77.77,0,0,1-.66,0l-1-.57c-.19-.12-.21-.29,0-.38l1.15-.67a.77.77,0,0,1,.66,0l1,.57C64.32,77.76,64.34,77.93,64.17,78Z"/><path class="cls-2" d="M66.31,76.79l-1.15.67a.74.74,0,0,1-.66,0l-1-.57c-.19-.11-.21-.28,0-.38l1.15-.66a.71.71,0,0,1,.65,0l1,.57C66.46,76.53,66.48,76.7,66.31,76.79Z"/><path class="cls-2" d="M44.2,87.08l-1.15.66a.71.71,0,0,1-.65,0l-1-.58c-.2-.11-.22-.28,0-.38l1.15-.66a.74.74,0,0,1,.66,0l1,.57C44.35,86.81,44.37,87,44.2,87.08Z"/><path class="cls-2" d="M46.29,85.88l-1.15.66a.74.74,0,0,1-.66,0l-1-.57c-.19-.11-.21-.28-.05-.38l1.15-.66a.73.73,0,0,1,.66,0l1,.58C46.44,85.61,46.46,85.78,46.29,85.88Z"/><path class="cls-2" d="M48.37,84.67l-1.15.67a.77.77,0,0,1-.66,0l-1-.57c-.2-.11-.22-.28,0-.38l1.15-.67a.77.77,0,0,1,.66,0l1,.57C48.52,84.4,48.54,84.58,48.37,84.67Z"/><path class="cls-2" d="M50.46,83.47l-1.15.66a.73.73,0,0,1-.66,0l-1-.57c-.2-.12-.22-.29,0-.39l1.15-.66a.74.74,0,0,1,.66,0l1,.57C50.6,83.2,50.63,83.37,50.46,83.47Z"/><path class="cls-2" d="M52.54,82.27l-1.15.66a.71.71,0,0,1-.66,0l-1-.57c-.19-.11-.21-.28,0-.38l1.15-.66a.69.69,0,0,1,.65,0l1,.57C52.69,82,52.71,82.17,52.54,82.27Z"/><path class="cls-2" d="M54.62,81.06l-1.15.67a.75.75,0,0,1-.65,0l-1-.57c-.2-.11-.22-.28,0-.38l1.15-.67a.77.77,0,0,1,.66,0l1,.57C54.77,80.8,54.79,81,54.62,81.06Z"/><path class="cls-2" d="M56.71,79.86l-1.15.66a.73.73,0,0,1-.66,0l-1-.57c-.19-.12-.21-.29,0-.38L55,78.88a.74.74,0,0,1,.66,0l1,.57C56.86,79.59,56.88,79.76,56.71,79.86Z"/><path class="cls-2" d="M60.88,77.45l-1.15.67a.77.77,0,0,1-.66,0l-1-.57c-.2-.11-.22-.28,0-.38l1.15-.66a.73.73,0,0,1,.66,0l1,.57C61,77.19,61.05,77.36,60.88,77.45Z"/><path class="cls-2" d="M58.79,78.66l-1.15.66a.71.71,0,0,1-.66,0l-1-.57c-.2-.11-.22-.28,0-.38l1.15-.66a.71.71,0,0,1,.66,0l1,.57C58.94,78.39,59,78.56,58.79,78.66Z"/><path class="cls-2" d="M63,76.25l-1.15.66a.73.73,0,0,1-.66,0l-1-.57c-.19-.12-.21-.29,0-.38l1.15-.67a.72.72,0,0,1,.65,0l1,.57C63.11,76,63.13,76.15,63,76.25Z"/><path class="cls-2" d="M65,75.05l-1.15.66a.69.69,0,0,1-.65,0l-1-.57c-.2-.11-.22-.28,0-.38l1.15-.66a.71.71,0,0,1,.66,0l1,.57C65.19,74.78,65.21,75,65,75.05Z"/><path class="cls-2" d="M43.73,84.88l-1.15.66a.71.71,0,0,1-.66,0l-1-.57c-.2-.11-.22-.28,0-.38L42,83.9a.71.71,0,0,1,.66,0l1,.57C43.87,84.61,43.89,84.78,43.73,84.88Z"/><path class="cls-2" d="M45.78,83.69l-1.15.66a.69.69,0,0,1-.65,0l-1-.57c-.2-.11-.22-.28-.05-.38l1.15-.66a.71.71,0,0,1,.66,0l1,.57C45.93,83.42,46,83.59,45.78,83.69Z"/><path class="cls-2" d="M47.84,82.5l-1.15.66a.73.73,0,0,1-.66,0l-1-.57c-.2-.12-.22-.29,0-.38l1.15-.67a.74.74,0,0,1,.66,0l1,.57C48,82.23,48,82.4,47.84,82.5Z"/><path class="cls-2" d="M49.9,81.31,48.75,82a.77.77,0,0,1-.66,0l-1-.57c-.19-.12-.21-.29,0-.38l1.15-.67a.77.77,0,0,1,.66,0l1,.57C50.05,81,50.07,81.21,49.9,81.31Z"/><path class="cls-2" d="M52,80.12l-1.15.67a.77.77,0,0,1-.66,0l-1-.57c-.19-.11-.21-.28,0-.38l1.15-.67a.75.75,0,0,1,.65,0l1,.57C52.11,79.85,52.13,80,52,80.12Z"/><path class="cls-2" d="M54,78.93l-1.15.67a.74.74,0,0,1-.66,0l-1-.57c-.19-.11-.21-.28,0-.38L52.32,78A.73.73,0,0,1,53,78l1,.57C54.17,78.67,54.19,78.84,54,78.93Z"/><path class="cls-2" d="M56.08,77.75l-1.15.66a.74.74,0,0,1-.66,0l-1-.57c-.19-.11-.22-.28-.05-.38l1.15-.66a.73.73,0,0,1,.66,0l1,.58C56.23,77.48,56.25,77.65,56.08,77.75Z"/><path class="cls-2" d="M58.14,76.56,57,77.22a.71.71,0,0,1-.66,0l-1-.57c-.2-.11-.22-.28-.05-.38l1.15-.66a.71.71,0,0,1,.66,0l1,.57C58.28,76.29,58.3,76.46,58.14,76.56Z"/><path class="cls-2" d="M66.37,71.8l-1.15.67a.77.77,0,0,1-.66,0l-1-.57c-.19-.11-.21-.28,0-.38l1.15-.67a.77.77,0,0,1,.66,0l1,.57C66.52,71.53,66.54,71.71,66.37,71.8Z"/><path class="cls-2" d="M64.31,73l-1.15.66a.73.73,0,0,1-.66,0l-1-.57c-.2-.12-.22-.29-.05-.38L62.62,72a.77.77,0,0,1,.66,0l1,.57C64.46,72.72,64.48,72.89,64.31,73Z"/><path class="cls-2" d="M62.25,74.18l-1.15.66a.71.71,0,0,1-.65,0l-1-.57c-.2-.12-.22-.29-.05-.38l1.15-.67a.74.74,0,0,1,.66,0l1,.57C62.4,73.91,62.42,74.08,62.25,74.18Z"/><path class="cls-2" d="M60.19,75.37,59.05,76a.71.71,0,0,1-.66,0l-1-.57c-.2-.11-.22-.28,0-.38l1.15-.66a.71.71,0,0,1,.66,0l1,.57C60.34,75.1,60.36,75.27,60.19,75.37Z"/><path class="cls-2" d="M40.23,84.22l-1.15.66a.73.73,0,0,1-.66,0l-1-.57c-.19-.12-.21-.29,0-.38l1.15-.67a.74.74,0,0,1,.66,0l1,.57C40.38,84,40.4,84.12,40.23,84.22Z"/><path class="cls-2" d="M42.38,83l-1.15.66a.69.69,0,0,1-.65,0l-1-.57c-.2-.11-.22-.28-.05-.38L40.69,82a.71.71,0,0,1,.66,0l1,.57C42.53,82.71,42.55,82.88,42.38,83Z"/><path class="cls-2" d="M44.54,81.73l-1.15.67a.74.74,0,0,1-.66,0l-1-.57c-.2-.11-.22-.28-.05-.38l1.15-.66a.73.73,0,0,1,.66,0l1,.57C44.68,81.47,44.7,81.64,44.54,81.73Z"/><path class="cls-2" d="M46.69,80.49l-1.15.67a.77.77,0,0,1-.66,0l-1-.57c-.19-.11-.21-.29,0-.38L45,79.51a.77.77,0,0,1,.66,0l1,.57C46.84,80.22,46.86,80.39,46.69,80.49Z"/><path class="cls-2" d="M48.84,79.25l-1.15.66a.73.73,0,0,1-.66,0l-1-.58c-.19-.11-.21-.28,0-.38l1.15-.66a.74.74,0,0,1,.66,0l1,.57C49,79,49,79.15,48.84,79.25Z"/><path class="cls-2" d="M51,78l-1.15.66a.71.71,0,0,1-.66,0l-1-.57c-.2-.11-.22-.28-.05-.38L49.3,77a.71.71,0,0,1,.66,0l1,.57C51.14,77.74,51.16,77.91,51,78Z"/><path class="cls-2" d="M53.15,76.76,52,77.43a.74.74,0,0,1-.66,0l-1-.57c-.2-.11-.22-.28-.05-.38l1.15-.66a.73.73,0,0,1,.66,0l1,.57C53.29,76.5,53.31,76.67,53.15,76.76Z"/><path class="cls-2" d="M55.3,75.52l-1.15.66a.73.73,0,0,1-.66,0l-1-.57c-.19-.12-.21-.29,0-.38l1.15-.67a.77.77,0,0,1,.66,0l1,.57C55.45,75.25,55.47,75.42,55.3,75.52Z"/><path class="cls-2" d="M57.45,74.28l-1.15.66a.71.71,0,0,1-.66,0l-1-.57c-.19-.11-.21-.28,0-.38l1.15-.66a.69.69,0,0,1,.65,0l1,.57C57.6,74,57.62,74.18,57.45,74.28Z"/><path class="cls-2" d="M59.6,73l-1.15.66a.74.74,0,0,1-.66,0l-1-.57c-.2-.11-.22-.28-.05-.38l1.15-.66a.73.73,0,0,1,.66,0l1,.58C59.75,72.77,59.77,72.94,59.6,73Z"/><path class="cls-2" d="M61.66,71.85l-1.15.66a.73.73,0,0,1-.66,0l-1-.57c-.19-.12-.22-.29,0-.39L60,70.87a.74.74,0,0,1,.66,0l1,.57C61.81,71.58,61.83,71.75,61.66,71.85Z"/><path class="cls-2" d="M64.1,70.44l-1.63.94a.73.73,0,0,1-.66,0l-1-.57c-.2-.12-.22-.29,0-.39l1.64-.94a.71.71,0,0,1,.66,0l1,.57C64.25,70.17,64.27,70.34,64.1,70.44Z"/><path class="cls-2" d="M36,84l-1.15.67a.77.77,0,0,1-.66,0l-.25-.15c-.2-.11-.22-.28,0-.38L35,83.46a.71.71,0,0,1,.66,0l.25.14C36.11,83.75,36.13,83.92,36,84Z"/><path class="cls-2" d="M38.11,82.77,37,83.43a.73.73,0,0,1-.66,0l-.25-.15c-.2-.11-.22-.28,0-.38l1.15-.66a.73.73,0,0,1,.66,0l.25.15C38.26,82.5,38.28,82.67,38.11,82.77Z"/><path class="cls-2" d="M40.26,81.53l-1.15.66a.71.71,0,0,1-.66,0L38.2,82c-.19-.12-.22-.29-.05-.38L39.3,81A.77.77,0,0,1,40,81l.26.15C40.41,81.26,40.43,81.43,40.26,81.53Z"/><path class="cls-2" d="M42.42,80.28,41.27,81a.74.74,0,0,1-.66,0l-.26-.15c-.19-.11-.21-.28,0-.38l1.15-.66a.69.69,0,0,1,.65,0l.26.14C42.56,80,42.58,80.19,42.42,80.28Z"/><path class="cls-2" d="M44.57,79l-1.15.67a.77.77,0,0,1-.66,0l-.25-.15c-.2-.11-.22-.28,0-.38l1.15-.66a.73.73,0,0,1,.66,0l.25.15C44.72,78.77,44.74,78.94,44.57,79Z"/><path class="cls-2" d="M46.72,77.8l-1.15.66a.73.73,0,0,1-.66,0l-.25-.15c-.2-.11-.22-.28,0-.38l1.15-.67a.77.77,0,0,1,.66,0l.25.15C46.87,77.53,46.89,77.7,46.72,77.8Z"/><path class="cls-2" d="M48.87,76.56l-1.15.66a.71.71,0,0,1-.66,0l-.25-.14c-.19-.12-.22-.29-.05-.38L47.91,76a.74.74,0,0,1,.66,0l.26.15C49,76.29,49,76.46,48.87,76.56Z"/><path class="cls-2" d="M51,75.31,49.88,76a.77.77,0,0,1-.66,0L49,75.8c-.19-.11-.21-.28,0-.38l1.15-.66a.69.69,0,0,1,.65,0l.26.14C51.17,75.05,51.19,75.22,51,75.31Z"/><path class="cls-2" d="M53.18,74.07,52,74.73a.73.73,0,0,1-.66,0l-.25-.15c-.2-.11-.22-.28,0-.38l1.15-.66a.73.73,0,0,1,.66,0l.25.15C53.33,73.8,53.35,74,53.18,74.07Z"/><path class="cls-2" d="M55.33,72.83l-1.15.66a.71.71,0,0,1-.66,0l-.25-.14c-.2-.11-.22-.28-.05-.38l1.15-.67a.77.77,0,0,1,.66,0l.25.15C55.48,72.56,55.5,72.73,55.33,72.83Z"/><path class="cls-2" d="M57.48,71.59l-1.15.66a.74.74,0,0,1-.66,0l-.25-.14c-.19-.12-.22-.29-.05-.39L56.52,71a.74.74,0,0,1,.66,0l.26.15C57.63,71.32,57.65,71.49,57.48,71.59Z"/><path class="cls-2" d="M59.64,70.34,58.49,71a.77.77,0,0,1-.66,0l-.26-.15c-.19-.11-.21-.28,0-.38l1.15-.66a.69.69,0,0,1,.65,0l.26.14C59.78,70.07,59.8,70.25,59.64,70.34Z"/><path class="cls-2" d="M61.79,69.1l-1.15.66a.73.73,0,0,1-.66,0l-.25-.15c-.2-.11-.22-.28,0-.38l1.15-.66a.73.73,0,0,1,.66,0l.25.15C61.94,68.83,62,69,61.79,69.1Z"/><path class="cls-2" d="M39.51,87.31l-2.22,1.28a.73.73,0,0,1-.66,0l-1-.57c-.19-.12-.22-.29,0-.38l2.23-1.29a.71.71,0,0,1,.66,0l1,.57C39.66,87,39.68,87.21,39.51,87.31Z"/><path class="cls-2" d="M42.05,88.32l-2.62,1.51a.71.71,0,0,1-.65,0l-1-.58c-.2-.11-.22-.28,0-.38l2.62-1.51a.77.77,0,0,1,.66,0l1,.57C42.2,88.05,42.22,88.22,42.05,88.32Z"/><path class="cls-2" d="M68.57,73,66,74.52a.73.73,0,0,1-.66,0l-1-.57c-.19-.12-.21-.29,0-.38L66.87,72a.73.73,0,0,1,.66,0l1,.57C68.71,72.75,68.74,72.92,68.57,73Z"/><path class="cls-2" d="M45.08,89.05l-3.5,2a.71.71,0,0,1-.66,0l-1-.57c-.19-.11-.21-.28,0-.38l3.49-2a.77.77,0,0,1,.66,0l1,.57C45.23,88.78,45.25,89,45.08,89.05Z"/><path class="cls-2" d="M70.71,74.25l-3.49,2a.73.73,0,0,1-.66,0l-1-.58c-.2-.11-.22-.28,0-.38l3.5-2a.77.77,0,0,1,.66,0l1,.57C70.86,74,70.88,74.16,70.71,74.25Z"/><path class="cls-2" d="M69.27,77l-.75.43a.73.73,0,0,1-.66,0h0c-.19-.12-.21-.29,0-.39l.75-.43a.74.74,0,0,1,.66,0h0C69.42,76.74,69.44,76.91,69.27,77Z"/><path class="cls-2" d="M72.36,75.23l-.76.43a.73.73,0,0,1-.66,0h0c-.19-.12-.21-.29,0-.38l.75-.44a.74.74,0,0,1,.66,0h0C72.5,75,72.52,75.13,72.36,75.23Z"/><path class="cls-2" d="M71.43,76.38l-.76.43a.69.69,0,0,1-.65,0h0c-.2-.11-.22-.28,0-.38l.75-.43a.71.71,0,0,1,.66,0h0C71.58,76.11,71.6,76.28,71.43,76.38Z"/><path class="cls-2" d="M70.41,75.79l-.75.43a.73.73,0,0,1-.66,0h0c-.2-.12-.22-.29,0-.38l.75-.44a.74.74,0,0,1,.66,0h0C70.56,75.52,70.58,75.69,70.41,75.79Z"/><path class="cls-1" d="M70.19,64.91,81.45,71.4a4.34,4.34,0,0,0,3.91,0l11.58-6.53a1.17,1.17,0,0,0,0-2.23l-11.43-6.6a4.3,4.3,0,0,0-3.89,0l-11.44,6.6A1.19,1.19,0,0,0,70.19,64.91Z"/><path class="cls-1" d="M76.2,63.13l5.89,3.4Z"/><polygon class="cls-1" points="85 68.21 90.94 64.81 82.09 59.7 76.2 63.13 85 68.21"/><path class="cls-1" d="M85.22,66l5.5-3.14c.12-.08.12-.19,0-.26l-8.41-4.86a.51.51,0,0,0-.45,0L76.43,61c-.13.07-.13.19,0,.26L84.77,66A.48.48,0,0,0,85.22,66Z"/><path class="cls-3" d="M76.2,61.34v1.53a.48.48,0,0,0,.23.39l8.34,4.82A.14.14,0,0,0,85,68V66.42a.54.54,0,0,0-.23-.4l-8.34-4.81C76.3,61.14,76.2,61.19,76.2,61.34Z"/><path class="cls-4" d="M90.94,63v1.53a.51.51,0,0,1-.22.39l-5.5,3.14c-.12.07-.22,0-.22-.13V66.42a.49.49,0,0,1,.22-.39l5.5-3.14C90.84,62.81,90.94,62.87,90.94,63Z"/><polygon class="cls-5" points="80.03 59.19 82.16 60.42 84.3 59.19 82.16 57.95 80.03 59.19"/><polygon class="cls-5" points="77.38 60.75 79.52 61.98 81.65 60.75 79.52 59.52 77.38 60.75"/><polygon class="cls-6" points="17.5 47.3 34.82 57.3 55.02 45.64 37.7 35.64 17.5 47.3"/><polygon class="cls-7" points="17.5 47.3 17.5 63.77 34.82 73.76 34.82 57.3 17.5 47.3"/><polygon points="34.82 73.76 55.02 62.1 55.02 45.64 34.82 57.3 34.82 73.76"/><text class="cls-8" transform="matrix(0.75, -0.43, 0, 1, 35.89, 62.93)">&gt;</text><text class="cls-8" transform="matrix(0.75, -0.43, 0, 1, 35.89, 62.93)">&gt;</text><text class="cls-8" transform="matrix(0.75, -0.43, 0, 1, 40.07, 60.34)">_</text></g></svg>