<svg xmlns="http://www.w3.org/2000/svg" viewBox="0 0 100 100"><defs><style>.cls-1,.cls-238{fill:#fff;}.cls-189,.cls-190,.cls-192,.cls-2,.cls-243{fill:#0043ff;}.cls-3,.cls-4{fill:#2500bf;}.cls-3{stroke:#002f44;}.cls-10,.cls-100,.cls-101,.cls-102,.cls-103,.cls-104,.cls-105,.cls-106,.cls-107,.cls-108,.cls-109,.cls-11,.cls-110,.cls-111,.cls-112,.cls-113,.cls-114,.cls-115,.cls-116,.cls-117,.cls-118,.cls-119,.cls-12,.cls-120,.cls-121,.cls-122,.cls-123,.cls-124,.cls-125,.cls-126,.cls-127,.cls-128,.cls-129,.cls-130,.cls-131,.cls-132,.cls-133,.cls-134,.cls-135,.cls-136,.cls-137,.cls-138,.cls-139,.cls-14,.cls-140,.cls-141,.cls-142,.cls-143,.cls-144,.cls-145,.cls-146,.cls-147,.cls-148,.cls-149,.cls-15,.cls-150,.cls-151,.cls-152,.cls-153,.cls-154,.cls-155,.cls-156,.cls-157,.cls-158,.cls-159,.cls-16,.cls-160,.cls-161,.cls-162,.cls-163,.cls-164,.cls-165,.cls-166,.cls-167,.cls-168,.cls-169,.cls-17,.cls-170,.cls-171,.cls-172,.cls-173,.cls-174,.cls-175,.cls-176,.cls-177,.cls-178,.cls-179,.cls-18,.cls-180,.cls-181,.cls-182,.cls-183,.cls-184,.cls-185,.cls-186,.cls-187,.cls-188,.cls-189,.cls-19,.cls-190,.cls-191,.cls-192,.cls-21,.cls-22,.cls-23,.cls-239,.cls-24,.cls-243,.cls-25,.cls-26,.cls-27,.cls-271,.cls-28,.cls-282,.cls-29,.cls-3,.cls-30,.cls-32,.cls-34,.cls-35,.cls-36,.cls-37,.cls-38,.cls-39,.cls-4,.cls-40,.cls-41,.cls-42,.cls-43,.cls-44,.cls-45,.cls-46,.cls-47,.cls-48,.cls-49,.cls-50,.cls-51,.cls-52,.cls-53,.cls-54,.cls-55,.cls-56,.cls-57,.cls-58,.cls-59,.cls-6,.cls-60,.cls-61,.cls-62,.cls-63,.cls-64,.cls-65,.cls-66,.cls-67,.cls-68,.cls-69,.cls-7,.cls-70,.cls-71,.cls-72,.cls-73,.cls-74,.cls-75,.cls-76,.cls-77,.cls-78,.cls-79,.cls-8,.cls-80,.cls-81,.cls-82,.cls-83,.cls-84,.cls-85,.cls-86,.cls-87,.cls-88,.cls-89,.cls-9,.cls-90,.cls-91,.cls-92,.cls-93,.cls-94,.cls-95,.cls-96,.cls-97,.cls-98,.cls-99{stroke-miterlimit:10;}.cls-4{stroke:#002f45;}.cls-5{fill:#2501c0;stroke:#002f46;}.cls-20,.cls-33,.cls-5{stroke-miterlimit:10;}.cls-6,.cls-7{fill:#2401c0;}.cls-6{stroke:#002f47;}.cls-7{stroke:#002f48;}.cls-8,.cls-9{fill:#2402c1;}.cls-8{stroke:#002f49;}.cls-9{stroke:#002f4a;}.cls-10{fill:#2403c1;stroke:#002f4b;}.cls-11,.cls-12{fill:#2303c2;}.cls-11{stroke:#002f4c;}.cls-12{stroke:#002f4d;}.cls-13{fill:#2304c2;stroke:#002f4e;}.cls-13,.cls-31{stroke-miterlimit:10;}.cls-14,.cls-15{fill:#2304c3;}.cls-14{stroke:#002f4f;}.cls-15{stroke:#002f50;}.cls-16{fill:#2205c3;stroke:#002f51;}.cls-17,.cls-18{fill:#2205c4;}.cls-17{stroke:#002f52;}.cls-18{stroke:#002f53;}.cls-19{fill:#2206c4;stroke:#002f54;}.cls-20{fill:#2206c5;stroke:#002f55;}.cls-21{fill:#2106c5;stroke:#002f56;}.cls-22,.cls-23{fill:#2107c6;}.cls-22{stroke:#002f57;}.cls-23{stroke:#002f58;}.cls-24{fill:#2108c6;stroke:#002f59;}.cls-25{fill:#2108c7;stroke:#002f5a;}.cls-26{fill:#2008c7;stroke:#002f5b;}.cls-27{fill:#2009c7;stroke:#002f5c;}.cls-28,.cls-29{fill:#2009c8;}.cls-28{stroke:#002f5d;}.cls-29{stroke:#002f5e;}.cls-30{fill:#200ac8;stroke:#002f5f;}.cls-31,.cls-32{fill:#1f0ac9;}.cls-31{stroke:#002f60;}.cls-32{stroke:#002f61;}.cls-33{fill:#1f0bc9;stroke:#002f62;}.cls-34,.cls-35{fill:#1f0bca;}.cls-34{stroke:#002f63;}.cls-35{stroke:#002f64;}.cls-36{fill:#1e0cca;stroke:#002f65;}.cls-37{fill:#1e0ccb;stroke:#002f66;}.cls-38,.cls-39{fill:#1e0dcb;}.cls-38{stroke:#002f67;}.cls-39{stroke:#002f68;}.cls-40{fill:#1e0dcc;stroke:#002f69;}.cls-41,.cls-42{fill:#1d0ecc;}.cls-41{stroke:#002f6a;}.cls-42{stroke:#002f6b;}.cls-43{fill:#1d0ecd;stroke:#002f6c;}.cls-44,.cls-45{fill:#1d0fcd;}.cls-44{stroke:#002f6d;}.cls-45{stroke:#002f6e;}.cls-46{fill:#1c0fce;stroke:#002f6f;}.cls-47,.cls-48{fill:#1c10ce;}.cls-47{stroke:#002f70;}.cls-48{stroke:#002f71;}.cls-49{fill:#1c10cf;stroke:#002f72;}.cls-50,.cls-51{fill:#1c11cf;}.cls-50{stroke:#002f73;}.cls-51{stroke:#002f74;}.cls-52,.cls-53,.cls-54{fill:#1b12d0;}.cls-52{stroke:#002f75;}.cls-53{stroke:#002f76;}.cls-54{stroke:#002f77;}.cls-55,.cls-56{fill:#1b13d1;}.cls-55{stroke:#002f78;}.cls-56{stroke:#002f79;}.cls-57{fill:#1a13d1;stroke:#002f7a;}.cls-58,.cls-59{fill:#1a14d2;}.cls-58{stroke:#002f7b;}.cls-59{stroke:#002f7c;}.cls-60{fill:#1a14d3;stroke:#002f7d;}.cls-61{fill:#1a15d3;stroke:#002f7e;}.cls-62{fill:#1915d3;stroke:#002f7f;}.cls-63{fill:#1915d4;stroke:#002f80;}.cls-64,.cls-65{fill:#1916d4;}.cls-64{stroke:#002f81;}.cls-65{stroke:#002f82;}.cls-66{fill:#1917d5;stroke:#002f83;}.cls-67,.cls-68{fill:#1817d5;}.cls-67{stroke:#002f84;}.cls-68{stroke:#002f85;}.cls-69,.cls-70,.cls-71{fill:#1818d6;}.cls-69{stroke:#002f86;}.cls-70{stroke:#002f87;}.cls-71{stroke:#002f88;}.cls-72,.cls-73,.cls-74{fill:#1719d7;}.cls-72{stroke:#002f89;}.cls-73{stroke:#002f8a;}.cls-74{stroke:#002f8b;}.cls-75,.cls-76{fill:#171ad8;}.cls-75{stroke:#002f8c;}.cls-76{stroke:#002f8d;}.cls-77{fill:#161bd8;stroke:#002f8e;}.cls-78,.cls-79{fill:#161bd9;}.cls-78{stroke:#002f8f;}.cls-79{stroke:#002f90;}.cls-80{fill:#161cd9;stroke:#002f91;}.cls-81{fill:#161cda;stroke:#002f92;}.cls-82{fill:#151cda;stroke:#002f93;}.cls-83{fill:#151dda;stroke:#002f94;}.cls-84,.cls-85{fill:#151ddb;}.cls-84{stroke:#002f95;}.cls-85{stroke:#002f96;}.cls-86{fill:#151edb;stroke:#002f97;}.cls-87,.cls-88{fill:#141edc;}.cls-87{stroke:#002f98;}.cls-88{stroke:#002f99;}.cls-89{fill:#141fdc;stroke:#002f9a;}.cls-90{fill:#141fdd;stroke:#002f9b;}.cls-91{fill:#1420dd;stroke:#002f9c;}.cls-92{fill:#1320dd;stroke:#002f9d;}.cls-93{fill:#1320de;stroke:#002f9e;}.cls-94,.cls-95{fill:#1321de;}.cls-94{stroke:#002f9f;}.cls-95{stroke:#002fa0;}.cls-96{fill:#1321df;stroke:#002fa1;}.cls-97{fill:#1222df;stroke:#002fa2;}.cls-98,.cls-99{fill:#1222e0;}.cls-98{stroke:#002fa3;}.cls-99{stroke:#002fa4;}.cls-100{fill:#1223e0;stroke:#002fa5;}.cls-101{fill:#1223e1;stroke:#002fa6;}.cls-102{fill:#1123e1;stroke:#002fa7;}.cls-103{fill:#1124e1;stroke:#002fa8;}.cls-104{fill:#1124e2;stroke:#002fa9;}.cls-105,.cls-106{fill:#1125e2;}.cls-105{stroke:#002faa;}.cls-106{stroke:#002fab;}.cls-107{fill:#1025e3;stroke:#002fac;}.cls-108,.cls-109{fill:#1026e3;}.cls-108{stroke:#002fad;}.cls-109{stroke:#002fae;}.cls-110{fill:#1026e4;stroke:#002faf;}.cls-111{fill:#1027e4;stroke:#002fb0;}.cls-112{fill:#0f27e4;stroke:#002fb1;}.cls-113{fill:#0f27e5;stroke:#002fb2;}.cls-114,.cls-115{fill:#0f28e5;}.cls-114{stroke:#002fb3;}.cls-115{stroke:#002fb4;}.cls-116{fill:#0f28e6;stroke:#002fb5;}.cls-117,.cls-118{fill:#0e29e6;}.cls-117{stroke:#002fb6;}.cls-118{stroke:#002fb7;}.cls-119,.cls-120,.cls-121{fill:#0e2ae7;}.cls-119{stroke:#002fb8;}.cls-120{stroke:#002fb9;}.cls-121{stroke:#002fba;}.cls-122,.cls-123,.cls-124{fill:#0d2be8;}.cls-122{stroke:#002fbb;}.cls-123{stroke:#002fbc;}.cls-124{stroke:#002fbd;}.cls-125,.cls-126{fill:#0d2ce9;}.cls-125{stroke:#002fbe;}.cls-126{stroke:#002fbf;}.cls-127{fill:#0c2ce9;stroke:#002fc0;}.cls-128,.cls-129{fill:#0c2dea;}.cls-128{stroke:#002fc1;}.cls-129{stroke:#002fc2;}.cls-130{fill:#0c2eea;stroke:#002fc3;}.cls-131{fill:#0c2eeb;stroke:#002fc4;}.cls-132{fill:#0b2eeb;stroke:#002fc5;}.cls-133{fill:#0b2feb;stroke:#002fc6;}.cls-134,.cls-135{fill:#0b2fec;}.cls-134{stroke:#002fc7;}.cls-135{stroke:#002fc8;}.cls-136{fill:#0b30ed;stroke:#002fc9;}.cls-137,.cls-138{fill:#0a30ed;}.cls-137{stroke:#002fca;}.cls-138{stroke:#002fcb;}.cls-139,.cls-140,.cls-141{fill:#0a31ee;}.cls-139{stroke:#002fcc;}.cls-140{stroke:#002fcd;}.cls-141{stroke:#002fce;}.cls-142,.cls-143{fill:#0932ef;}.cls-142{stroke:#002fcf;}.cls-143{stroke:#002fd0;}.cls-144{fill:#0933ef;stroke:#002fd1;}.cls-145,.cls-146{fill:#0933f0;}.cls-145{stroke:#002fd2;}.cls-146{stroke:#002fd3;}.cls-147{fill:#0934f0;stroke:#002fd4;}.cls-148,.cls-149{fill:#0834f1;}.cls-148{stroke:#002fd5;}.cls-149{stroke:#002fd6;}.cls-150{fill:#0835f1;stroke:#002fd7;}.cls-151,.cls-152{fill:#0835f2;}.cls-151{stroke:#002fd8;}.cls-152{stroke:#002fd9;}.cls-153{fill:#0736f2;stroke:#002fda;}.cls-154,.cls-155{fill:#0736f3;}.cls-154{stroke:#002fdb;}.cls-155{stroke:#002fdc;}.cls-156{fill:#0737f3;stroke:#002fdd;}.cls-157{fill:#0737f4;stroke:#002fde;}.cls-158,.cls-159{fill:#0638f4;}.cls-158{stroke:#002fdf;}.cls-159{stroke:#002fe0;}.cls-160{fill:#0638f5;stroke:#002fe1;}.cls-161,.cls-162{fill:#0639f5;}.cls-161{stroke:#002fe2;}.cls-162{stroke:#002fe3;}.cls-163{fill:#0539f6;stroke:#002fe4;}.cls-164,.cls-165{fill:#053af6;}.cls-164{stroke:#002fe5;}.cls-165{stroke:#002fe6;}.cls-166{fill:#053af7;stroke:#002fe7;}.cls-167{fill:#053bf7;stroke:#002fe8;}.cls-168{fill:#043bf7;stroke:#002fe9;}.cls-169{fill:#043bf8;stroke:#002fea;}.cls-170,.cls-171{fill:#043cf8;}.cls-170{stroke:#002feb;}.cls-171{stroke:#002fec;}.cls-172{fill:#043df9;stroke:#002fed;}.cls-173{fill:#033df9;stroke:#002fee;}.cls-174{fill:#033dfa;stroke:#002fef;}.cls-175,.cls-176{fill:#033efa;}.cls-175{stroke:#002ff0;}.cls-176{stroke:#002ff1;}.cls-177{fill:#033efb;stroke:#002ff2;}.cls-178,.cls-179{fill:#023ffb;}.cls-178{stroke:#002ff3;}.cls-179{stroke:#002ff4;}.cls-180{fill:#023ffc;stroke:#002ff5;}.cls-181,.cls-182{fill:#0240fc;}.cls-181{stroke:#002ff6;}.cls-182{stroke:#002ff7;}.cls-183{fill:#0140fd;stroke:#002ff8;}.cls-184,.cls-185{fill:#0141fd;}.cls-184{stroke:#002ff9;}.cls-185{stroke:#002ffa;}.cls-186,.cls-187{fill:#0142fe;}.cls-186{stroke:#002ffb;}.cls-187{stroke:#002ffc;}.cls-188{fill:#0042fe;stroke:#002ffd;}.cls-189{stroke:#002ffe;}.cls-190{stroke:#002fff;}.cls-191{fill:#00afff;}.cls-191,.cls-192,.cls-271{stroke:#00afff;}.cls-193{fill:#00007b;}.cls-194{fill:#00007a;}.cls-195{fill:#000079;}.cls-196{fill:#000078;}.cls-197{fill:#007;}.cls-198{fill:#000076;}.cls-199{fill:#000075;}.cls-200{fill:#000074;}.cls-201{fill:#000073;}.cls-202{fill:#000072;}.cls-203{fill:#000071;}.cls-204{fill:#000070;}.cls-205{fill:#00006f;}.cls-206{fill:#00006e;}.cls-207{fill:#00006d;}.cls-208{fill:#00006c;}.cls-209{fill:#00006b;}.cls-210{fill:#00006a;}.cls-211{fill:#000069;}.cls-212{fill:#000068;}.cls-213{fill:#000067;}.cls-214{fill:#006;}.cls-215{fill:#000065;}.cls-216{fill:#000064;}.cls-217{fill:#000063;}.cls-218{fill:#000062;}.cls-219{fill:#000061;}.cls-220{fill:#000060;}.cls-221{fill:#00005f;}.cls-222{fill:#00005e;}.cls-223{fill:#00005d;}.cls-224{fill:#00005c;}.cls-225{fill:#00005b;}.cls-226{fill:#00005a;}.cls-227{fill:#000059;}.cls-228{fill:#000058;}.cls-229{fill:#000057;}.cls-230{fill:#000056;}.cls-231{fill:#005;}.cls-232{fill:#000054;}.cls-233{fill:#000053;}.cls-234{fill:#000052;}.cls-235{fill:#000051;}.cls-236{fill:#000050;}.cls-237{font-size:2.53px;}.cls-237,.cls-270{fill:#40b5ff;}.cls-237,.cls-238,.cls-270{font-family:MyriadPro-Regular, Myriad Pro;}.cls-238{font-size:2.25px;}.cls-239,.cls-271,.cls-282{fill:none;}.cls-239,.cls-243{stroke:#fff;}.cls-239,.cls-243,.cls-282{stroke-width:0.25px;}.cls-240{fill:#5f7fff;}.cls-241{fill:#94c4ff;}.cls-242{fill:#74c6ff;}.cls-244{fill:gray;}.cls-245{fill:#808081;}.cls-246{fill:#808082;}.cls-247{fill:#808083;}.cls-248{fill:#808084;}.cls-249{fill:#808085;}.cls-250{fill:#808086;}.cls-251{fill:#808087;}.cls-252{fill:#808088;}.cls-253{fill:#808089;}.cls-254{fill:#80808a;}.cls-255{fill:#80808b;}.cls-256{fill:#80808c;}.cls-257{fill:#80808d;}.cls-258{fill:#80808e;}.cls-259{fill:#80808f;}.cls-260{fill:#808090;}.cls-261{fill:#808091;}.cls-262{fill:#808092;}.cls-263{fill:#808093;}.cls-264{fill:#808094;}.cls-265{fill:#808095;}.cls-266{fill:#808096;}.cls-267{fill:#808097;}.cls-268{fill:#808098;}.cls-269{fill:#808099;}.cls-270{font-size:1.12px;}.cls-272{fill:#002ea5;}.cls-273{fill:#07e;}.cls-274{fill:#f5f5f5;}.cls-275{fill:#0056ff;}.cls-276{fill:#007aff;}.cls-276,.cls-277,.cls-278,.cls-279,.cls-280,.cls-281{opacity:0.5;}.cls-277{fill:#007bff;}.cls-278{fill:#007cff;}.cls-279{fill:#007dff;}.cls-280{fill:#007eff;}.cls-281{fill:#007fff;}.cls-282{stroke:#999;}.cls-283{fill:#4d4d4d;}.cls-284{fill:#535353;}.cls-285{fill:#5a5a5a;}.cls-286{fill:#606060;}.cls-287{fill:#676767;}.cls-288{fill:#6d6d6d;}.cls-289{fill:#737373;}.cls-290{fill:#7a7a7a;}.cls-291{fill:#00c7ff;opacity:0.19;}</style></defs><g id="Windmill"><circle class="cls-1" cx="16.3" cy="86.3" r="0.33"/><polyline class="cls-2" points="32.09 67.57 29.9 71.36 39.17 76.72"/><path class="cls-3" d="M5.75,73l41.7,24.08a7,7,0,0,0,6.33,0L95.81,73c1.74-1,1.75-2.64,0-3.66L53.94,45a6.89,6.89,0,0,0-6.31,0L5.75,69.34C4,70.36,4,72,5.75,73Z"/><path class="cls-4" d="M5.75,73l41.7,24.08a7,7,0,0,0,6.33,0l42-24.1c1.74-1,1.75-2.63,0-3.65L53.94,45a6.89,6.89,0,0,0-6.31,0L5.75,69.33C4,70.35,4,72,5.75,73Z"/><path class="cls-5" d="M5.75,73l41.7,24.07a7,7,0,0,0,6.33,0L95.81,73c1.74-1,1.75-2.64,0-3.65L53.94,45a7,7,0,0,0-6.31,0L5.75,69.32C4,70.33,4,72,5.75,73Z"/><path class="cls-6" d="M5.75,73,47.45,97a7,7,0,0,0,6.33,0L95.81,73c1.74-1,1.75-2.64,0-3.65L53.94,45a7,7,0,0,0-6.31,0L5.75,69.31C4,70.32,4,72,5.75,73Z"/><path class="cls-7" d="M5.75,73,47.45,97a7,7,0,0,0,6.33,0L95.81,73c1.74-1,1.75-2.64,0-3.65L53.94,45a7,7,0,0,0-6.31,0L5.75,69.3C4,70.31,4,72,5.75,73Z"/><path class="cls-8" d="M5.75,72.94,47.45,97a7,7,0,0,0,6.33,0l42-24.09c1.74-1,1.75-2.64,0-3.66L53.94,44.94a6.89,6.89,0,0,0-6.31,0L5.75,69.28C4,70.3,4,71.94,5.75,72.94Z"/><path class="cls-9" d="M5.75,72.93,47.45,97a7,7,0,0,0,6.33,0l42-24.1c1.74-1,1.75-2.63,0-3.65L53.94,44.93a6.89,6.89,0,0,0-6.31,0L5.75,69.27C4,70.29,4,71.92,5.75,72.93Z"/><path class="cls-10" d="M5.75,72.92,47.45,97a7,7,0,0,0,6.33,0l42-24.09c1.74-1,1.75-2.64,0-3.65L53.94,44.91a7,7,0,0,0-6.31,0L5.75,69.26C4,70.27,4,71.91,5.75,72.92Z"/><path class="cls-11" d="M5.75,72.91,47.45,97a7,7,0,0,0,6.33,0l42-24.09c1.74-1,1.75-2.64,0-3.65L53.94,44.9a7,7,0,0,0-6.31,0L5.75,69.25C4,70.26,4,71.9,5.75,72.91Z"/><path class="cls-12" d="M5.75,72.9,47.45,97a7,7,0,0,0,6.33,0l42-24.09c1.74-1,1.75-2.64,0-3.65L53.94,44.89a7,7,0,0,0-6.31,0L5.75,69.24C4,70.25,4,71.89,5.75,72.9Z"/><path class="cls-13" d="M5.75,72.88,47.45,97a7,7,0,0,0,6.33,0l42-24.09c1.74-1,1.75-2.64,0-3.66L53.94,44.88a6.89,6.89,0,0,0-6.31,0L5.75,69.22C4,70.24,4,71.88,5.75,72.88Z"/><path class="cls-14" d="M5.75,72.87,47.45,97a7.05,7.05,0,0,0,6.33,0l42-24.1c1.74-1,1.75-2.63,0-3.65L53.94,44.86a7,7,0,0,0-6.31,0L5.75,69.21C4,70.23,4,71.86,5.75,72.87Z"/><path class="cls-15" d="M5.75,72.86l41.7,24.07a7,7,0,0,0,6.33,0l42-24.09c1.74-1,1.75-2.64,0-3.65L53.94,44.85a7,7,0,0,0-6.31,0L5.75,69.2C4,70.21,4,71.85,5.75,72.86Z"/><path class="cls-16" d="M5.75,72.85l41.7,24.07a7,7,0,0,0,6.33,0l42-24.09c1.74-1,1.75-2.64,0-3.65L53.94,44.84a7,7,0,0,0-6.31,0L5.75,69.19C4,70.2,4,71.84,5.75,72.85Z"/><path class="cls-17" d="M5.75,72.84l41.7,24.07a7,7,0,0,0,6.33,0l42-24.09c1.74-1,1.75-2.64,0-3.65L53.94,44.83a7,7,0,0,0-6.31,0L5.75,69.18C4,70.19,4,71.83,5.75,72.84Z"/><path class="cls-18" d="M5.75,72.82,47.45,96.9a7,7,0,0,0,6.33,0l42-24.09c1.74-1,1.75-2.64,0-3.66L53.94,44.82a6.89,6.89,0,0,0-6.31,0L5.75,69.16C4,70.18,4,71.82,5.75,72.82Z"/><path class="cls-19" d="M5.75,72.81l41.7,24.08a7.05,7.05,0,0,0,6.33,0l42-24.1c1.74-1,1.75-2.64,0-3.65L53.94,44.8a7,7,0,0,0-6.31,0L5.75,69.15C4,70.16,4,71.8,5.75,72.81Z"/><path class="cls-20" d="M5.75,72.8l41.7,24.07a7,7,0,0,0,6.33,0l42-24.09c1.74-1,1.75-2.64,0-3.65L53.94,44.79a7,7,0,0,0-6.31,0L5.75,69.14C4,70.15,4,71.79,5.75,72.8Z"/><path class="cls-21" d="M5.75,72.79l41.7,24.07a7,7,0,0,0,6.33,0l42-24.09c1.74-1,1.75-2.64,0-3.65L53.94,44.78a7,7,0,0,0-6.31,0L5.75,69.13C4,70.14,4,71.78,5.75,72.79Z"/><path class="cls-22" d="M5.75,72.78l41.7,24.07a7,7,0,0,0,6.33,0l42-24.09c1.74-1,1.75-2.64,0-3.65L53.94,44.77a7,7,0,0,0-6.31,0L5.75,69.12C4,70.13,4,71.77,5.75,72.78Z"/><path class="cls-23" d="M5.75,72.76l41.7,24.08a7,7,0,0,0,6.33,0l42-24.1c1.74-1,1.75-2.63,0-3.65L53.94,44.76a6.89,6.89,0,0,0-6.31,0L5.75,69.1C4,70.12,4,71.76,5.75,72.76Z"/><path class="cls-24" d="M5.75,72.75l41.7,24.08a7.05,7.05,0,0,0,6.33,0l42-24.1c1.74-1,1.75-2.64,0-3.65L53.94,44.74a7,7,0,0,0-6.31,0L5.75,69.09C4,70.1,4,71.74,5.75,72.75Z"/><path class="cls-25" d="M5.75,72.74l41.7,24.07a7,7,0,0,0,6.33,0l42-24.09c1.74-1,1.75-2.64,0-3.65L53.94,44.73a7,7,0,0,0-6.31,0L5.75,69.08C4,70.09,4,71.73,5.75,72.74Z"/><path class="cls-26" d="M5.75,72.73,47.45,96.8a7,7,0,0,0,6.33,0l42-24.09c1.74-1,1.75-2.64,0-3.65L53.94,44.72a7,7,0,0,0-6.31,0L5.75,69.07C4,70.08,4,71.72,5.75,72.73Z"/><path class="cls-27" d="M5.75,72.72l41.7,24.07a7,7,0,0,0,6.33,0l42-24.09c1.74-1,1.75-2.64,0-3.65L53.94,44.71a7,7,0,0,0-6.31,0L5.75,69.06C4,70.07,4,71.71,5.75,72.72Z"/><path class="cls-28" d="M5.75,72.7l41.7,24.08a7,7,0,0,0,6.33,0l42-24.1c1.74-1,1.75-2.63,0-3.65L53.94,44.7a6.89,6.89,0,0,0-6.31,0L5.75,69C4,70.06,4,71.7,5.75,72.7Z"/><path class="cls-29" d="M5.75,72.69l41.7,24.08a7.05,7.05,0,0,0,6.33,0l42-24.1c1.74-1,1.75-2.64,0-3.65L53.94,44.68a7,7,0,0,0-6.31,0L5.75,69C4,70,4,71.68,5.75,72.69Z"/><path class="cls-30" d="M5.75,72.68l41.7,24.07a7,7,0,0,0,6.33,0l42-24.09c1.74-1,1.75-2.64,0-3.65L53.94,44.67a7,7,0,0,0-6.31,0L5.75,69C4,70,4,71.67,5.75,72.68Z"/><path class="cls-31" d="M5.75,72.67l41.7,24.07a7,7,0,0,0,6.33,0l42-24.09c1.74-1,1.75-2.64,0-3.65L53.94,44.66a7,7,0,0,0-6.31,0L5.75,69C4,70,4,71.66,5.75,72.67Z"/><path class="cls-32" d="M5.75,72.66l41.7,24.07a7,7,0,0,0,6.33,0l42-24.09c1.74-1,1.75-2.64,0-3.66L53.94,44.65a6.89,6.89,0,0,0-6.31,0L5.75,69C4,70,4,71.65,5.75,72.66Z"/><path class="cls-33" d="M5.75,72.64l41.7,24.08a7,7,0,0,0,6.33,0l42-24.1c1.74-1,1.75-2.63,0-3.65L53.94,44.64a6.89,6.89,0,0,0-6.31,0L5.75,69C4,70,4,71.64,5.75,72.64Z"/><path class="cls-34" d="M5.75,72.63l41.7,24.08a7.05,7.05,0,0,0,6.33,0l42-24.1c1.74-1,1.75-2.64,0-3.65L53.94,44.62a7,7,0,0,0-6.31,0L5.75,69C4,70,4,71.62,5.75,72.63Z"/><path class="cls-35" d="M5.75,72.62l41.7,24.07a7,7,0,0,0,6.33,0l42-24.09c1.74-1,1.75-2.64,0-3.65L53.94,44.61a7,7,0,0,0-6.31,0L5.75,69C4,70,4,71.61,5.75,72.62Z"/><path class="cls-36" d="M5.75,72.61l41.7,24.07a7,7,0,0,0,6.33,0l42-24.09c1.74-1,1.75-2.64,0-3.65L53.94,44.6a7,7,0,0,0-6.31,0L5.75,69C4,70,4,71.6,5.75,72.61Z"/><path class="cls-37" d="M5.75,72.6l41.7,24.07a7,7,0,0,0,6.33,0l42-24.09c1.74-1,1.75-2.64,0-3.66L53.94,44.59a6.89,6.89,0,0,0-6.31,0L5.75,68.93C4,70,4,71.59,5.75,72.6Z"/><path class="cls-38" d="M5.75,72.58l41.7,24.08a7,7,0,0,0,6.33,0l42-24.1c1.74-1,1.75-2.63,0-3.65L53.94,44.58a6.89,6.89,0,0,0-6.31,0L5.75,68.92C4,69.94,4,71.58,5.75,72.58Z"/><path class="cls-39" d="M5.75,72.57l41.7,24.08a7.05,7.05,0,0,0,6.33,0l42-24.1c1.74-1,1.75-2.64,0-3.65L53.94,44.56a7,7,0,0,0-6.31,0L5.75,68.91C4,69.92,4,71.56,5.75,72.57Z"/><path class="cls-40" d="M5.75,72.56l41.7,24.07a7,7,0,0,0,6.33,0l42-24.09c1.74-1,1.75-2.64,0-3.65L53.94,44.55a7,7,0,0,0-6.31,0L5.75,68.9C4,69.91,4,71.55,5.75,72.56Z"/><path class="cls-41" d="M5.75,72.55l41.7,24.07a7,7,0,0,0,6.33,0l42-24.09c1.74-1,1.75-2.64,0-3.65L53.94,44.54a7,7,0,0,0-6.31,0L5.75,68.89C4,69.9,4,71.54,5.75,72.55Z"/><path class="cls-42" d="M5.75,72.54l41.7,24.07a7,7,0,0,0,6.33,0l42-24.09c1.74-1,1.75-2.64,0-3.66L53.94,44.53a6.89,6.89,0,0,0-6.31,0L5.75,68.87C4,69.89,4,71.53,5.75,72.54Z"/><path class="cls-43" d="M5.75,72.52,47.45,96.6a7,7,0,0,0,6.33,0l42-24.1c1.74-1,1.75-2.63,0-3.65L53.94,44.52a6.89,6.89,0,0,0-6.31,0L5.75,68.86C4,69.88,4,71.52,5.75,72.52Z"/><path class="cls-44" d="M5.75,72.51l41.7,24.08a7.05,7.05,0,0,0,6.33,0l42-24.1c1.74-1,1.75-2.64,0-3.65L53.94,44.5a7,7,0,0,0-6.31,0L5.75,68.85C4,69.86,4,71.5,5.75,72.51Z"/><path class="cls-45" d="M5.75,72.5l41.7,24.07a7,7,0,0,0,6.33,0l42-24.09c1.74-1,1.75-2.64,0-3.65L53.94,44.49a7,7,0,0,0-6.31,0L5.75,68.84C4,69.85,4,71.49,5.75,72.5Z"/><path class="cls-46" d="M5.75,72.49l41.7,24.07a7,7,0,0,0,6.33,0l42-24.09c1.74-1,1.75-2.64,0-3.65L53.94,44.48a7,7,0,0,0-6.31,0L5.75,68.83C4,69.84,4,71.48,5.75,72.49Z"/><path class="cls-47" d="M5.75,72.48l41.7,24.07a7,7,0,0,0,6.33,0l42-24.09c1.74-1,1.75-2.64,0-3.66L53.94,44.47a6.89,6.89,0,0,0-6.31,0L5.75,68.81C4,69.83,4,71.47,5.75,72.48Z"/><path class="cls-48" d="M5.75,72.46l41.7,24.08a7,7,0,0,0,6.33,0l42-24.1c1.74-1,1.75-2.63,0-3.65L53.94,44.46a6.89,6.89,0,0,0-6.31,0L5.75,68.8C4,69.82,4,71.46,5.75,72.46Z"/><path class="cls-49" d="M5.75,72.45l41.7,24.08a7.05,7.05,0,0,0,6.33,0l42-24.1c1.74-1,1.75-2.64,0-3.65L53.94,44.44a7,7,0,0,0-6.31,0L5.75,68.79C4,69.8,4,71.44,5.75,72.45Z"/><path class="cls-50" d="M5.75,72.44l41.7,24.07a7,7,0,0,0,6.33,0l42-24.09c1.74-1,1.75-2.64,0-3.65L53.94,44.43a7,7,0,0,0-6.31,0L5.75,68.78C4,69.79,4,71.43,5.75,72.44Z"/><path class="cls-51" d="M5.75,72.43,47.45,96.5a7,7,0,0,0,6.33,0l42-24.09c1.74-1,1.75-2.64,0-3.65L53.94,44.42a7,7,0,0,0-6.31,0L5.75,68.77C4,69.78,4,71.42,5.75,72.43Z"/><path class="cls-52" d="M5.75,72.42l41.7,24.07a7,7,0,0,0,6.33,0l42-24.09c1.74-1,1.75-2.64,0-3.66L53.94,44.41a6.89,6.89,0,0,0-6.31,0L5.75,68.75C4,69.77,4,71.41,5.75,72.42Z"/><path class="cls-53" d="M5.75,72.4l41.7,24.08a7,7,0,0,0,6.33,0l42-24.1c1.74-1,1.75-2.63,0-3.65L53.94,44.4a6.89,6.89,0,0,0-6.31,0L5.75,68.74C4,69.76,4,71.4,5.75,72.4Z"/><path class="cls-54" d="M5.75,72.39l41.7,24.08a7.05,7.05,0,0,0,6.33,0l42-24.1c1.74-1,1.75-2.64,0-3.65L53.94,44.38a7,7,0,0,0-6.31,0L5.75,68.73C4,69.74,4,71.38,5.75,72.39Z"/><path class="cls-55" d="M5.75,72.38l41.7,24.07a7,7,0,0,0,6.33,0l42-24.09c1.74-1,1.75-2.64,0-3.65L53.94,44.37a7,7,0,0,0-6.31,0L5.75,68.72C4,69.73,4,71.37,5.75,72.38Z"/><path class="cls-56" d="M5.75,72.37l41.7,24.07a7,7,0,0,0,6.33,0l42-24.09c1.74-1,1.75-2.64,0-3.65L53.94,44.36a7,7,0,0,0-6.31,0L5.75,68.71C4,69.72,4,71.36,5.75,72.37Z"/><path class="cls-57" d="M5.75,72.36l41.7,24.07a7,7,0,0,0,6.33,0l42-24.09c1.74-1,1.75-2.64,0-3.66L53.94,44.35a6.89,6.89,0,0,0-6.31,0L5.75,68.69C4,69.71,4,71.35,5.75,72.36Z"/><path class="cls-58" d="M5.75,72.34l41.7,24.08a7,7,0,0,0,6.33,0l42-24.1c1.74-1,1.75-2.63,0-3.65L53.94,44.34a6.89,6.89,0,0,0-6.31,0L5.75,68.68C4,69.7,4,71.34,5.75,72.34Z"/><path class="cls-59" d="M5.75,72.33l41.7,24.08a7.05,7.05,0,0,0,6.33,0l42-24.1c1.74-1,1.75-2.64,0-3.65L53.94,44.32a7,7,0,0,0-6.31,0L5.75,68.67C4,69.68,4,71.32,5.75,72.33Z"/><path class="cls-60" d="M5.75,72.32l41.7,24.07a7,7,0,0,0,6.33,0l42-24.09c1.74-1,1.75-2.64,0-3.65L53.94,44.31a7,7,0,0,0-6.31,0L5.75,68.66C4,69.67,4,71.31,5.75,72.32Z"/><path class="cls-61" d="M5.75,72.31l41.7,24.07a7,7,0,0,0,6.33,0l42-24.09c1.74-1,1.75-2.64,0-3.65L53.94,44.3a7,7,0,0,0-6.31,0L5.75,68.65C4,69.66,4,71.3,5.75,72.31Z"/><path class="cls-62" d="M5.75,72.3l41.7,24.07a7,7,0,0,0,6.33,0l42-24.09c1.74-1,1.75-2.64,0-3.66L53.94,44.29a6.89,6.89,0,0,0-6.31,0L5.75,68.63C4,69.65,4,71.29,5.75,72.3Z"/><path class="cls-63" d="M5.75,72.28l41.7,24.08a7,7,0,0,0,6.33,0l42-24.1c1.74-1,1.75-2.63,0-3.65L53.94,44.28a6.89,6.89,0,0,0-6.31,0L5.75,68.62C4,69.64,4,71.28,5.75,72.28Z"/><path class="cls-64" d="M5.75,72.27l41.7,24.08a7.05,7.05,0,0,0,6.33,0l42-24.1c1.74-1,1.75-2.64,0-3.65L53.94,44.26a7,7,0,0,0-6.31,0L5.75,68.61C4,69.62,4,71.26,5.75,72.27Z"/><path class="cls-65" d="M5.75,72.26l41.7,24.07a7,7,0,0,0,6.33,0l42-24.09c1.74-1,1.75-2.64,0-3.65L53.94,44.25a7,7,0,0,0-6.31,0L5.75,68.6C4,69.61,4,71.25,5.75,72.26Z"/><path class="cls-66" d="M5.75,72.25l41.7,24.07a7,7,0,0,0,6.33,0l42-24.09c1.74-1,1.75-2.64,0-3.65L53.94,44.24a7,7,0,0,0-6.31,0L5.75,68.59C4,69.6,4,71.24,5.75,72.25Z"/><path class="cls-67" d="M5.75,72.24l41.7,24.07a7,7,0,0,0,6.33,0l42-24.09c1.74-1,1.75-2.64,0-3.66L53.94,44.23a6.89,6.89,0,0,0-6.31,0L5.75,68.57C4,69.59,4,71.23,5.75,72.24Z"/><path class="cls-68" d="M5.75,72.22,47.45,96.3a7,7,0,0,0,6.33,0l42-24.1c1.74-1,1.75-2.63,0-3.65L53.94,44.22a6.89,6.89,0,0,0-6.31,0L5.75,68.56C4,69.58,4,71.22,5.75,72.22Z"/><path class="cls-69" d="M5.75,72.21l41.7,24.08a7,7,0,0,0,6.33,0l42-24.09c1.74-1,1.75-2.64,0-3.65L53.94,44.2a7,7,0,0,0-6.31,0L5.75,68.55C4,69.56,4,71.2,5.75,72.21Z"/><path class="cls-70" d="M5.75,72.2l41.7,24.07a7,7,0,0,0,6.33,0l42-24.09c1.74-1,1.75-2.64,0-3.65L53.94,44.19a7,7,0,0,0-6.31,0L5.75,68.54C4,69.55,4,71.19,5.75,72.2Z"/><path class="cls-71" d="M5.75,72.19l41.7,24.07a7,7,0,0,0,6.33,0l42-24.09c1.74-1,1.75-2.64,0-3.65L53.94,44.18a7,7,0,0,0-6.31,0L5.75,68.53C4,69.54,4,71.18,5.75,72.19Z"/><path class="cls-72" d="M5.75,72.18l41.7,24.07a7,7,0,0,0,6.33,0l42-24.09c1.74-1,1.75-2.64,0-3.66L53.94,44.17a6.89,6.89,0,0,0-6.31,0L5.75,68.51C4,69.53,4,71.17,5.75,72.18Z"/><path class="cls-73" d="M5.75,72.16l41.7,24.08a7,7,0,0,0,6.33,0l42-24.1c1.74-1,1.75-2.63,0-3.65L53.94,44.16a6.89,6.89,0,0,0-6.31,0L5.75,68.5C4,69.52,4,71.15,5.75,72.16Z"/><path class="cls-74" d="M5.75,72.15l41.7,24.08a7,7,0,0,0,6.33,0l42-24.09c1.74-1,1.75-2.64,0-3.65L53.94,44.14a7,7,0,0,0-6.31,0L5.75,68.49C4,69.5,4,71.14,5.75,72.15Z"/><path class="cls-75" d="M5.75,72.14l41.7,24.07a7,7,0,0,0,6.33,0l42-24.09c1.74-1,1.75-2.64,0-3.65L53.94,44.13a7,7,0,0,0-6.31,0L5.75,68.48C4,69.49,4,71.13,5.75,72.14Z"/><path class="cls-76" d="M5.75,72.13,47.45,96.2a7,7,0,0,0,6.33,0l42-24.09c1.74-1,1.75-2.64,0-3.65L53.94,44.12a7,7,0,0,0-6.31,0L5.75,68.47C4,69.48,4,71.12,5.75,72.13Z"/><path class="cls-77" d="M5.75,72.12l41.7,24.07a7,7,0,0,0,6.33,0l42-24.09c1.74-1,1.75-2.64,0-3.66L53.94,44.11a6.89,6.89,0,0,0-6.31,0L5.75,68.45C4,69.47,4,71.11,5.75,72.12Z"/><path class="cls-78" d="M5.75,72.1l41.7,24.08a7,7,0,0,0,6.33,0l42-24.1c1.74-1,1.75-2.63,0-3.65L53.94,44.1a6.89,6.89,0,0,0-6.31,0L5.75,68.44C4,69.46,4,71.09,5.75,72.1Z"/><path class="cls-79" d="M5.75,72.09l41.7,24.08a7,7,0,0,0,6.33,0l42-24.09c1.74-1,1.75-2.64,0-3.65L53.94,44.08a7,7,0,0,0-6.31,0L5.75,68.43C4,69.44,4,71.08,5.75,72.09Z"/><path class="cls-80" d="M5.75,72.08l41.7,24.07a7,7,0,0,0,6.33,0l42-24.09c1.74-1,1.75-2.64,0-3.65L53.94,44.07a7,7,0,0,0-6.31,0L5.75,68.42C4,69.43,4,71.07,5.75,72.08Z"/><path class="cls-81" d="M5.75,72.07l41.7,24.07a7,7,0,0,0,6.33,0l42-24.09c1.74-1,1.75-2.64,0-3.65L53.94,44.06a7,7,0,0,0-6.31,0L5.75,68.41C4,69.42,4,71.06,5.75,72.07Z"/><path class="cls-82" d="M5.75,72.06l41.7,24.07a7,7,0,0,0,6.33,0l42-24.09c1.74-1,1.75-2.64,0-3.66L53.94,44.05a6.89,6.89,0,0,0-6.31,0L5.75,68.39C4,69.41,4,71.05,5.75,72.06Z"/><path class="cls-83" d="M5.75,72l41.7,24.08a7,7,0,0,0,6.33,0l42-24.1c1.74-1,1.75-2.63,0-3.65L53.94,44a6.89,6.89,0,0,0-6.31,0L5.75,68.38C4,69.4,4,71,5.75,72Z"/><path class="cls-84" d="M5.75,72l41.7,24.08a7,7,0,0,0,6.33,0L95.81,72c1.74-1,1.75-2.64,0-3.65L53.94,44a7,7,0,0,0-6.31,0L5.75,68.37C4,69.38,4,71,5.75,72Z"/><path class="cls-85" d="M5.75,72l41.7,24.07a7,7,0,0,0,6.33,0L95.81,72c1.74-1,1.75-2.64,0-3.65L53.94,44a7,7,0,0,0-6.31,0L5.75,68.36C4,69.37,4,71,5.75,72Z"/><path class="cls-86" d="M5.75,72l41.7,24.07a7,7,0,0,0,6.33,0L95.81,72c1.74-1,1.75-2.64,0-3.65L53.94,44a7,7,0,0,0-6.31,0L5.75,68.35C4,69.36,4,71,5.75,72Z"/><path class="cls-87" d="M5.75,72l41.7,24.07a7,7,0,0,0,6.33,0L95.81,72c1.74-1,1.75-2.64,0-3.66L53.94,44a6.89,6.89,0,0,0-6.31,0L5.75,68.33C4,69.35,4,71,5.75,72Z"/><path class="cls-88" d="M5.75,72l41.7,24.08a7,7,0,0,0,6.33,0l42-24.1c1.74-1,1.75-2.63,0-3.65L53.94,44a6.89,6.89,0,0,0-6.31,0L5.75,68.32C4,69.34,4,71,5.75,72Z"/><path class="cls-89" d="M5.75,72,47.45,96a7,7,0,0,0,6.33,0L95.81,72c1.74-1,1.75-2.64,0-3.65L53.94,44a7,7,0,0,0-6.31,0L5.75,68.31C4,69.32,4,71,5.75,72Z"/><path class="cls-90" d="M5.75,72,47.45,96a7,7,0,0,0,6.33,0L95.81,72c1.74-1,1.75-2.64,0-3.65L53.94,44a7,7,0,0,0-6.31,0L5.75,68.3C4,69.31,4,71,5.75,72Z"/><path class="cls-91" d="M5.75,72,47.45,96a7,7,0,0,0,6.33,0l42-24.09c1.74-1,1.75-2.64,0-3.65L53.94,43.94a7,7,0,0,0-6.31,0L5.75,68.29C4,69.3,4,70.94,5.75,72Z"/><path class="cls-92" d="M5.75,71.93,47.45,96a7,7,0,0,0,6.33,0l42-24.09c1.74-1,1.75-2.64,0-3.66L53.94,43.93a6.89,6.89,0,0,0-6.31,0L5.75,68.27C4,69.29,4,70.93,5.75,71.93Z"/><path class="cls-93" d="M5.75,71.92,47.45,96a7,7,0,0,0,6.33,0l42-24.1c1.74-1,1.75-2.63,0-3.65L53.94,43.92a6.89,6.89,0,0,0-6.31,0L5.75,68.26C4,69.28,4,70.91,5.75,71.92Z"/><path class="cls-94" d="M5.75,71.91,47.45,96a7,7,0,0,0,6.33,0l42-24.09c1.74-1,1.75-2.64,0-3.65L53.94,43.9a7,7,0,0,0-6.31,0L5.75,68.25C4,69.26,4,70.9,5.75,71.91Z"/><path class="cls-95" d="M5.75,71.9,47.45,96a7,7,0,0,0,6.33,0l42-24.09c1.74-1,1.75-2.64,0-3.65L53.94,43.89a7,7,0,0,0-6.31,0L5.75,68.24C4,69.25,4,70.89,5.75,71.9Z"/><path class="cls-96" d="M5.75,71.89,47.45,96a7,7,0,0,0,6.33,0l42-24.09c1.74-1,1.75-2.64,0-3.65L53.94,43.88a7,7,0,0,0-6.31,0L5.75,68.23C4,69.24,4,70.88,5.75,71.89Z"/><path class="cls-97" d="M5.75,71.87,47.45,96a7,7,0,0,0,6.33,0l42-24.09c1.74-1,1.75-2.64,0-3.66L53.94,43.87a6.89,6.89,0,0,0-6.31,0L5.75,68.21C4,69.23,4,70.87,5.75,71.87Z"/><path class="cls-98" d="M5.75,71.86l41.7,24.08a7,7,0,0,0,6.33,0l42-24.1c1.74-1,1.75-2.63,0-3.65L53.94,43.86a6.89,6.89,0,0,0-6.31,0L5.75,68.2C4,69.22,4,70.85,5.75,71.86Z"/><path class="cls-99" d="M5.75,71.85l41.7,24.07a7,7,0,0,0,6.33,0l42-24.09c1.74-1,1.75-2.64,0-3.65L53.94,43.84a7,7,0,0,0-6.31,0L5.75,68.19C4,69.2,4,70.84,5.75,71.85Z"/><path class="cls-100" d="M5.75,71.84l41.7,24.07a7,7,0,0,0,6.33,0l42-24.09c1.74-1,1.75-2.64,0-3.65L53.94,43.83a7,7,0,0,0-6.31,0L5.75,68.18C4,69.19,4,70.83,5.75,71.84Z"/><path class="cls-101" d="M5.75,71.83,47.45,95.9a7,7,0,0,0,6.33,0l42-24.09c1.74-1,1.75-2.64,0-3.65L53.94,43.82a7,7,0,0,0-6.31,0L5.75,68.17C4,69.18,4,70.82,5.75,71.83Z"/><path class="cls-102" d="M5.75,71.81l41.7,24.08a7,7,0,0,0,6.33,0l42-24.09c1.74-1,1.75-2.64,0-3.66L53.94,43.81a6.89,6.89,0,0,0-6.31,0L5.75,68.15C4,69.17,4,70.81,5.75,71.81Z"/><path class="cls-103" d="M5.75,71.8l41.7,24.08a7,7,0,0,0,6.33,0l42-24.1c1.74-1,1.75-2.63,0-3.65L53.94,43.8a6.89,6.89,0,0,0-6.31,0L5.75,68.14C4,69.16,4,70.79,5.75,71.8Z"/><path class="cls-104" d="M5.75,71.79l41.7,24.07a7,7,0,0,0,6.33,0l42-24.09c1.74-1,1.75-2.64,0-3.65L53.94,43.78a7,7,0,0,0-6.31,0L5.75,68.13C4,69.14,4,70.78,5.75,71.79Z"/><path class="cls-105" d="M5.75,71.78l41.7,24.07a7,7,0,0,0,6.33,0l42-24.09c1.74-1,1.75-2.64,0-3.65L53.94,43.77a7,7,0,0,0-6.31,0L5.75,68.12C4,69.13,4,70.77,5.75,71.78Z"/><path class="cls-106" d="M5.75,71.77l41.7,24.07a7,7,0,0,0,6.33,0l42-24.09c1.74-1,1.75-2.64,0-3.65L53.94,43.76a7,7,0,0,0-6.31,0L5.75,68.11C4,69.12,4,70.76,5.75,71.77Z"/><path class="cls-107" d="M5.75,71.75l41.7,24.08a7,7,0,0,0,6.33,0l42-24.09c1.74-1,1.75-2.64,0-3.66L53.94,43.75a6.89,6.89,0,0,0-6.31,0L5.75,68.09C4,69.11,4,70.75,5.75,71.75Z"/><path class="cls-108" d="M5.75,71.74l41.7,24.08a7.05,7.05,0,0,0,6.33,0l42-24.1c1.74-1,1.75-2.63,0-3.65L53.94,43.74a6.89,6.89,0,0,0-6.31,0L5.75,68.08C4,69.1,4,70.73,5.75,71.74Z"/><path class="cls-109" d="M5.75,71.73,47.45,95.8a7,7,0,0,0,6.33,0l42-24.09c1.74-1,1.75-2.64,0-3.65L53.94,43.72a7,7,0,0,0-6.31,0L5.75,68.07C4,69.08,4,70.72,5.75,71.73Z"/><path class="cls-110" d="M5.75,71.72l41.7,24.07a7,7,0,0,0,6.33,0l42-24.09c1.74-1,1.75-2.64,0-3.65L53.94,43.71a7,7,0,0,0-6.31,0L5.75,68.06C4,69.07,4,70.71,5.75,71.72Z"/><path class="cls-111" d="M5.75,71.71l41.7,24.07a7,7,0,0,0,6.33,0l42-24.09c1.74-1,1.75-2.64,0-3.65L53.94,43.7a7,7,0,0,0-6.31,0L5.75,68.05C4,69.06,4,70.7,5.75,71.71Z"/><path class="cls-112" d="M5.75,71.69l41.7,24.08a7,7,0,0,0,6.33,0l42-24.09c1.74-1,1.75-2.64,0-3.66L53.94,43.69a6.89,6.89,0,0,0-6.31,0L5.75,68C4,69.05,4,70.69,5.75,71.69Z"/><path class="cls-113" d="M5.75,71.68l41.7,24.08a7.05,7.05,0,0,0,6.33,0l42-24.1c1.74-1,1.75-2.64,0-3.65L53.94,43.67a7,7,0,0,0-6.31,0L5.75,68C4,69,4,70.67,5.75,71.68Z"/><path class="cls-114" d="M5.75,71.67l41.7,24.07a7,7,0,0,0,6.33,0l42-24.09c1.74-1,1.75-2.64,0-3.65L53.94,43.66a7,7,0,0,0-6.31,0L5.75,68C4,69,4,70.66,5.75,71.67Z"/><path class="cls-115" d="M5.75,71.66l41.7,24.07a7,7,0,0,0,6.33,0l42-24.09c1.74-1,1.75-2.64,0-3.65L53.94,43.65a7,7,0,0,0-6.31,0L5.75,68C4,69,4,70.65,5.75,71.66Z"/><path class="cls-116" d="M5.75,71.65l41.7,24.07a7,7,0,0,0,6.33,0l42-24.09c1.74-1,1.75-2.64,0-3.65L53.94,43.64a7,7,0,0,0-6.31,0L5.75,68C4,69,4,70.64,5.75,71.65Z"/><path class="cls-117" d="M5.75,71.63l41.7,24.08a7,7,0,0,0,6.33,0l42-24.1c1.74-1,1.75-2.63,0-3.65L53.94,43.63a6.89,6.89,0,0,0-6.31,0L5.75,68C4,69,4,70.63,5.75,71.63Z"/><path class="cls-118" d="M5.75,71.62,47.45,95.7a7.05,7.05,0,0,0,6.33,0l42-24.1c1.74-1,1.75-2.64,0-3.65L53.94,43.61a7,7,0,0,0-6.31,0L5.75,68C4,69,4,70.61,5.75,71.62Z"/><path class="cls-119" d="M5.75,71.61l41.7,24.07a7,7,0,0,0,6.33,0l42-24.09c1.74-1,1.75-2.64,0-3.65L53.94,43.6a7,7,0,0,0-6.31,0L5.75,68C4,69,4,70.6,5.75,71.61Z"/><path class="cls-120" d="M5.75,71.6l41.7,24.07a7,7,0,0,0,6.33,0l42-24.09c1.74-1,1.75-2.64,0-3.65L53.94,43.59a7,7,0,0,0-6.31,0L5.75,67.94C4,69,4,70.59,5.75,71.6Z"/><path class="cls-121" d="M5.75,71.59l41.7,24.07a7,7,0,0,0,6.33,0l42-24.09c1.74-1,1.75-2.64,0-3.65L53.94,43.58a7,7,0,0,0-6.31,0L5.75,67.93C4,68.94,4,70.58,5.75,71.59Z"/><path class="cls-122" d="M5.75,71.57l41.7,24.08a7,7,0,0,0,6.33,0l42-24.1c1.74-1,1.75-2.63,0-3.65L53.94,43.57a6.89,6.89,0,0,0-6.31,0L5.75,67.91C4,68.93,4,70.57,5.75,71.57Z"/><path class="cls-123" d="M5.75,71.56l41.7,24.08a7.05,7.05,0,0,0,6.33,0l42-24.1c1.74-1,1.75-2.64,0-3.65L53.94,43.55a7,7,0,0,0-6.31,0L5.75,67.9C4,68.91,4,70.55,5.75,71.56Z"/><path class="cls-124" d="M5.75,71.55l41.7,24.07a7,7,0,0,0,6.33,0l42-24.09c1.74-1,1.75-2.64,0-3.65L53.94,43.54a7,7,0,0,0-6.31,0L5.75,67.89C4,68.9,4,70.54,5.75,71.55Z"/><path class="cls-125" d="M5.75,71.54l41.7,24.07a7,7,0,0,0,6.33,0l42-24.09c1.74-1,1.75-2.64,0-3.65L53.94,43.53a7,7,0,0,0-6.31,0L5.75,67.88C4,68.89,4,70.53,5.75,71.54Z"/><path class="cls-126" d="M5.75,71.53,47.45,95.6a7,7,0,0,0,6.33,0l42-24.09c1.74-1,1.75-2.64,0-3.66L53.94,43.52a6.89,6.89,0,0,0-6.31,0L5.75,67.86C4,68.88,4,70.52,5.75,71.53Z"/><path class="cls-127" d="M5.75,71.51l41.7,24.08a7,7,0,0,0,6.33,0l42-24.1c1.74-1,1.75-2.63,0-3.65L53.94,43.51a6.89,6.89,0,0,0-6.31,0L5.75,67.85C4,68.87,4,70.51,5.75,71.51Z"/><path class="cls-128" d="M5.75,71.5l41.7,24.08a7.05,7.05,0,0,0,6.33,0l42-24.1c1.74-1,1.75-2.64,0-3.65L53.94,43.49a7,7,0,0,0-6.31,0L5.75,67.84C4,68.85,4,70.49,5.75,71.5Z"/><path class="cls-129" d="M5.75,71.49l41.7,24.07a7,7,0,0,0,6.33,0l42-24.09c1.74-1,1.75-2.64,0-3.65L53.94,43.48a7,7,0,0,0-6.31,0L5.75,67.83C4,68.84,4,70.48,5.75,71.49Z"/><path class="cls-130" d="M5.75,71.48l41.7,24.07a7,7,0,0,0,6.33,0l42-24.09c1.74-1,1.75-2.64,0-3.65L53.94,43.47a7,7,0,0,0-6.31,0L5.75,67.82C4,68.83,4,70.47,5.75,71.48Z"/><path class="cls-131" d="M5.75,71.47l41.7,24.07a7,7,0,0,0,6.33,0l42-24.09c1.74-1,1.75-2.64,0-3.66L53.94,43.46a6.89,6.89,0,0,0-6.31,0L5.75,67.8C4,68.82,4,70.46,5.75,71.47Z"/><path class="cls-132" d="M5.75,71.45l41.7,24.08a7,7,0,0,0,6.33,0l42-24.1c1.74-1,1.75-2.63,0-3.65L53.94,43.45a6.89,6.89,0,0,0-6.31,0L5.75,67.79C4,68.81,4,70.45,5.75,71.45Z"/><path class="cls-133" d="M5.75,71.44l41.7,24.08a7.05,7.05,0,0,0,6.33,0l42-24.1c1.74-1,1.75-2.64,0-3.65L53.94,43.43a7,7,0,0,0-6.31,0L5.75,67.78C4,68.79,4,70.43,5.75,71.44Z"/><path class="cls-134" d="M5.75,71.43,47.45,95.5a7,7,0,0,0,6.33,0l42-24.09c1.74-1,1.75-2.64,0-3.65L53.94,43.42a7,7,0,0,0-6.31,0L5.75,67.77C4,68.78,4,70.42,5.75,71.43Z"/><path class="cls-135" d="M5.75,71.42l41.7,24.07a7,7,0,0,0,6.33,0l42-24.09c1.74-1,1.75-2.64,0-3.65L53.94,43.41a7,7,0,0,0-6.31,0L5.75,67.76C4,68.77,4,70.41,5.75,71.42Z"/><path class="cls-136" d="M5.75,71.41l41.7,24.07a7,7,0,0,0,6.33,0l42-24.09c1.74-1,1.75-2.64,0-3.66L53.94,43.4a6.89,6.89,0,0,0-6.31,0L5.75,67.74C4,68.76,4,70.4,5.75,71.41Z"/><path class="cls-137" d="M5.75,71.39l41.7,24.08a7,7,0,0,0,6.33,0l42-24.1c1.74-1,1.75-2.63,0-3.65L53.94,43.39a6.89,6.89,0,0,0-6.31,0L5.75,67.73C4,68.75,4,70.39,5.75,71.39Z"/><path class="cls-138" d="M5.75,71.38l41.7,24.08a7.05,7.05,0,0,0,6.33,0l42-24.1c1.74-1,1.75-2.64,0-3.65L53.94,43.37a7,7,0,0,0-6.31,0L5.75,67.72C4,68.73,4,70.37,5.75,71.38Z"/><path class="cls-139" d="M5.75,71.37l41.7,24.07a7,7,0,0,0,6.33,0l42-24.09c1.74-1,1.75-2.64,0-3.65L53.94,43.36a7,7,0,0,0-6.31,0L5.75,67.71C4,68.72,4,70.36,5.75,71.37Z"/><path class="cls-140" d="M5.75,71.36l41.7,24.07a7,7,0,0,0,6.33,0l42-24.09c1.74-1,1.75-2.64,0-3.65L53.94,43.35a7,7,0,0,0-6.31,0L5.75,67.7C4,68.71,4,70.35,5.75,71.36Z"/><path class="cls-141" d="M5.75,71.35l41.7,24.07a7,7,0,0,0,6.33,0l42-24.09c1.74-1,1.75-2.64,0-3.66L53.94,43.34a6.89,6.89,0,0,0-6.31,0L5.75,67.68C4,68.7,4,70.34,5.75,71.35Z"/><path class="cls-142" d="M5.75,71.33l41.7,24.08a7,7,0,0,0,6.33,0l42-24.1c1.74-1,1.75-2.63,0-3.65L53.94,43.33a6.89,6.89,0,0,0-6.31,0L5.75,67.67C4,68.69,4,70.33,5.75,71.33Z"/><path class="cls-143" d="M5.75,71.32,47.45,95.4a7.05,7.05,0,0,0,6.33,0l42-24.1c1.74-1,1.75-2.64,0-3.65L53.94,43.31a7,7,0,0,0-6.31,0L5.75,67.66C4,68.67,4,70.31,5.75,71.32Z"/><path class="cls-144" d="M5.75,71.31l41.7,24.07a7,7,0,0,0,6.33,0l42-24.09c1.74-1,1.75-2.64,0-3.65L53.94,43.3a7,7,0,0,0-6.31,0L5.75,67.65C4,68.66,4,70.3,5.75,71.31Z"/><path class="cls-145" d="M5.75,71.3l41.7,24.07a7,7,0,0,0,6.33,0l42-24.09c1.74-1,1.75-2.64,0-3.65L53.94,43.29a7,7,0,0,0-6.31,0L5.75,67.64C4,68.65,4,70.29,5.75,71.3Z"/><path class="cls-146" d="M5.75,71.29l41.7,24.07a7,7,0,0,0,6.33,0l42-24.09c1.74-1,1.75-2.64,0-3.66L53.94,43.28a6.89,6.89,0,0,0-6.31,0L5.75,67.62C4,68.64,4,70.28,5.75,71.29Z"/><path class="cls-147" d="M5.75,71.27l41.7,24.08a7,7,0,0,0,6.33,0l42-24.1c1.74-1,1.75-2.63,0-3.65L53.94,43.27a6.89,6.89,0,0,0-6.31,0L5.75,67.61C4,68.63,4,70.27,5.75,71.27Z"/><path class="cls-148" d="M5.75,71.26l41.7,24.08a7.05,7.05,0,0,0,6.33,0l42-24.1c1.74-1,1.75-2.64,0-3.65L53.94,43.25a7,7,0,0,0-6.31,0L5.75,67.6C4,68.61,4,70.25,5.75,71.26Z"/><path class="cls-149" d="M5.75,71.25l41.7,24.07a7,7,0,0,0,6.33,0l42-24.09c1.74-1,1.75-2.64,0-3.65L53.94,43.24a7,7,0,0,0-6.31,0L5.75,67.59C4,68.6,4,70.24,5.75,71.25Z"/><path class="cls-150" d="M5.75,71.24l41.7,24.07a7,7,0,0,0,6.33,0l42-24.09c1.74-1,1.75-2.64,0-3.65L53.94,43.23a7,7,0,0,0-6.31,0L5.75,67.58C4,68.59,4,70.23,5.75,71.24Z"/><path class="cls-151" d="M5.75,71.23,47.45,95.3a7,7,0,0,0,6.33,0l42-24.09c1.74-1,1.75-2.64,0-3.66L53.94,43.22a6.89,6.89,0,0,0-6.31,0L5.75,67.56C4,68.58,4,70.22,5.75,71.23Z"/><path class="cls-152" d="M5.75,71.21l41.7,24.08a7,7,0,0,0,6.33,0l42-24.1c1.74-1,1.75-2.63,0-3.65L53.94,43.21a6.89,6.89,0,0,0-6.31,0L5.75,67.55C4,68.57,4,70.21,5.75,71.21Z"/><path class="cls-153" d="M5.75,71.2l41.7,24.08a7.05,7.05,0,0,0,6.33,0l42-24.1c1.74-1,1.75-2.64,0-3.65L53.94,43.19a7,7,0,0,0-6.31,0L5.75,67.54C4,68.55,4,70.19,5.75,71.2Z"/><path class="cls-154" d="M5.75,71.19l41.7,24.07a7,7,0,0,0,6.33,0l42-24.09c1.74-1,1.75-2.64,0-3.65L53.94,43.18a7,7,0,0,0-6.31,0L5.75,67.53C4,68.54,4,70.18,5.75,71.19Z"/><path class="cls-155" d="M5.75,71.18l41.7,24.07a7,7,0,0,0,6.33,0l42-24.09c1.74-1,1.75-2.64,0-3.65L53.94,43.17a7,7,0,0,0-6.31,0L5.75,67.52C4,68.53,4,70.17,5.75,71.18Z"/><path class="cls-156" d="M5.75,71.17l41.7,24.07a7,7,0,0,0,6.33,0l42-24.09c1.74-1,1.75-2.64,0-3.66L53.94,43.16a6.89,6.89,0,0,0-6.31,0L5.75,67.5C4,68.52,4,70.16,5.75,71.17Z"/><path class="cls-157" d="M5.75,71.15l41.7,24.08a7,7,0,0,0,6.33,0l42-24.1c1.74-1,1.75-2.63,0-3.65L53.94,43.15a6.89,6.89,0,0,0-6.31,0L5.75,67.49C4,68.51,4,70.15,5.75,71.15Z"/><path class="cls-158" d="M5.75,71.14l41.7,24.08a7.05,7.05,0,0,0,6.33,0l42-24.1c1.74-1,1.75-2.64,0-3.65L53.94,43.13a7,7,0,0,0-6.31,0L5.75,67.48C4,68.49,4,70.13,5.75,71.14Z"/><path class="cls-159" d="M5.75,71.13,47.45,95.2a7,7,0,0,0,6.33,0l42-24.09c1.74-1,1.75-2.64,0-3.65L53.94,43.12a7,7,0,0,0-6.31,0L5.75,67.47C4,68.48,4,70.12,5.75,71.13Z"/><path class="cls-160" d="M5.75,71.12l41.7,24.07a7,7,0,0,0,6.33,0l42-24.09c1.74-1,1.75-2.64,0-3.65L53.94,43.11a7,7,0,0,0-6.31,0L5.75,67.46C4,68.47,4,70.11,5.75,71.12Z"/><path class="cls-161" d="M5.75,71.11l41.7,24.07a7,7,0,0,0,6.33,0l42-24.09c1.74-1,1.75-2.64,0-3.66L53.94,43.1a6.89,6.89,0,0,0-6.31,0L5.75,67.44C4,68.46,4,70.1,5.75,71.11Z"/><path class="cls-162" d="M5.75,71.09l41.7,24.08a7,7,0,0,0,6.33,0l42-24.1c1.74-1,1.75-2.63,0-3.65L53.94,43.09a6.89,6.89,0,0,0-6.31,0L5.75,67.43C4,68.45,4,70.09,5.75,71.09Z"/><path class="cls-163" d="M5.75,71.08l41.7,24.08a7,7,0,0,0,6.33,0l42-24.09c1.74-1,1.75-2.64,0-3.65L53.94,43.07a7,7,0,0,0-6.31,0L5.75,67.42C4,68.43,4,70.07,5.75,71.08Z"/><path class="cls-164" d="M5.75,71.07l41.7,24.07a7,7,0,0,0,6.33,0l42-24.09c1.74-1,1.75-2.64,0-3.65L53.94,43.06a7,7,0,0,0-6.31,0L5.75,67.41C4,68.42,4,70.06,5.75,71.07Z"/><path class="cls-165" d="M5.75,71.06l41.7,24.07a7,7,0,0,0,6.33,0l42-24.09c1.74-1,1.75-2.64,0-3.65L53.94,43.05a7,7,0,0,0-6.31,0L5.75,67.4C4,68.41,4,70.05,5.75,71.06Z"/><path class="cls-166" d="M5.75,71.05l41.7,24.07a7,7,0,0,0,6.33,0L95.81,71c1.74-1,1.75-2.64,0-3.66L53.94,43a6.89,6.89,0,0,0-6.31,0L5.75,67.38C4,68.4,4,70,5.75,71.05Z"/><path class="cls-167" d="M5.75,71l41.7,24.08a7,7,0,0,0,6.33,0l42-24.1c1.74-1,1.75-2.63,0-3.65L53.94,43a6.89,6.89,0,0,0-6.31,0L5.75,67.37C4,68.39,4,70,5.75,71Z"/><path class="cls-168" d="M5.75,71,47.45,95.1a7,7,0,0,0,6.33,0L95.81,71c1.74-1,1.75-2.64,0-3.65L53.94,43a7,7,0,0,0-6.31,0L5.75,67.36C4,68.37,4,70,5.75,71Z"/><path class="cls-169" d="M5.75,71l41.7,24.07a7,7,0,0,0,6.33,0L95.81,71c1.74-1,1.75-2.64,0-3.65L53.94,43a7,7,0,0,0-6.31,0L5.75,67.35C4,68.36,4,70,5.75,71Z"/><path class="cls-170" d="M5.75,71l41.7,24.07a7,7,0,0,0,6.33,0L95.81,71c1.74-1,1.75-2.64,0-3.65L53.94,43a7,7,0,0,0-6.31,0L5.75,67.34C4,68.35,4,70,5.75,71Z"/><path class="cls-171" d="M5.75,71l41.7,24.07a7,7,0,0,0,6.33,0L95.81,71c1.74-1,1.75-2.64,0-3.66L53.94,43a6.89,6.89,0,0,0-6.31,0L5.75,67.32C4,68.34,4,70,5.75,71Z"/><path class="cls-172" d="M5.75,71l41.7,24.08a7,7,0,0,0,6.33,0l42-24.1c1.74-1,1.75-2.63,0-3.65L53.94,43a6.89,6.89,0,0,0-6.31,0L5.75,67.31C4,68.33,4,70,5.75,71Z"/><path class="cls-173" d="M5.75,71,47.45,95a7,7,0,0,0,6.33,0L95.81,71c1.74-1,1.75-2.64,0-3.65L53.94,43a7,7,0,0,0-6.31,0L5.75,67.3C4,68.31,4,70,5.75,71Z"/><path class="cls-174" d="M5.75,71,47.45,95a7,7,0,0,0,6.33,0l42-24.09c1.74-1,1.75-2.64,0-3.65L53.94,42.94a7,7,0,0,0-6.31,0L5.75,67.29C4,68.3,4,69.94,5.75,71Z"/><path class="cls-175" d="M5.75,70.94,47.45,95a7,7,0,0,0,6.33,0l42-24.09c1.74-1,1.75-2.64,0-3.65L53.94,42.93a7,7,0,0,0-6.31,0L5.75,67.28C4,68.29,4,69.93,5.75,70.94Z"/><path class="cls-176" d="M5.75,70.93,47.45,95a7,7,0,0,0,6.33,0l42-24.09c1.74-1,1.75-2.64,0-3.66L53.94,42.92a6.89,6.89,0,0,0-6.31,0L5.75,67.26C4,68.28,4,69.92,5.75,70.93Z"/><path class="cls-177" d="M5.75,70.91,47.45,95a7,7,0,0,0,6.33,0l42-24.1c1.74-1,1.75-2.63,0-3.65L53.94,42.91a6.89,6.89,0,0,0-6.31,0L5.75,67.25C4,68.27,4,69.9,5.75,70.91Z"/><path class="cls-178" d="M5.75,70.9,47.45,95a7,7,0,0,0,6.33,0l42-24.09c1.74-1,1.75-2.64,0-3.65L53.94,42.89a7,7,0,0,0-6.31,0L5.75,67.24C4,68.25,4,69.89,5.75,70.9Z"/><path class="cls-179" d="M5.75,70.89,47.45,95a7,7,0,0,0,6.33,0l42-24.09c1.74-1,1.75-2.64,0-3.65L53.94,42.88a7,7,0,0,0-6.31,0L5.75,67.23C4,68.24,4,69.88,5.75,70.89Z"/><path class="cls-180" d="M5.75,70.88,47.45,95a7,7,0,0,0,6.33,0l42-24.09c1.74-1,1.75-2.64,0-3.65L53.94,42.87a7,7,0,0,0-6.31,0L5.75,67.22C4,68.23,4,69.87,5.75,70.88Z"/><path class="cls-181" d="M5.75,70.87l41.7,24.07a7,7,0,0,0,6.33,0l42-24.09c1.74-1,1.75-2.64,0-3.66L53.94,42.86a6.89,6.89,0,0,0-6.31,0L5.75,67.2C4,68.22,4,69.86,5.75,70.87Z"/><path class="cls-182" d="M5.75,70.85l41.7,24.08a7,7,0,0,0,6.33,0l42-24.1c1.74-1,1.75-2.63,0-3.65L53.94,42.85a6.89,6.89,0,0,0-6.31,0L5.75,67.19C4,68.21,4,69.84,5.75,70.85Z"/><path class="cls-183" d="M5.75,70.84l41.7,24.07a7,7,0,0,0,6.33,0l42-24.09c1.74-1,1.75-2.64,0-3.65L53.94,42.83a7,7,0,0,0-6.31,0L5.75,67.18C4,68.19,4,69.83,5.75,70.84Z"/><path class="cls-184" d="M5.75,70.83,47.45,94.9a7,7,0,0,0,6.33,0l42-24.09c1.74-1,1.75-2.64,0-3.65L53.94,42.82a7,7,0,0,0-6.31,0L5.75,67.17C4,68.18,4,69.82,5.75,70.83Z"/><path class="cls-185" d="M5.75,70.82l41.7,24.07a7,7,0,0,0,6.33,0l42-24.09c1.74-1,1.75-2.64,0-3.65L53.94,42.81a7,7,0,0,0-6.31,0L5.75,67.16C4,68.17,4,69.81,5.75,70.82Z"/><path class="cls-186" d="M5.75,70.81l41.7,24.07a7,7,0,0,0,6.33,0l42-24.09c1.74-1,1.75-2.64,0-3.66L53.94,42.8a6.89,6.89,0,0,0-6.31,0L5.75,67.14C4,68.16,4,69.8,5.75,70.81Z"/><path class="cls-187" d="M5.75,70.79l41.7,24.08a7,7,0,0,0,6.33,0l42-24.1c1.74-1,1.75-2.63,0-3.65L53.94,42.79a6.89,6.89,0,0,0-6.31,0L5.75,67.13C4,68.15,4,69.78,5.75,70.79Z"/><path class="cls-188" d="M5.75,70.78l41.7,24.07a7,7,0,0,0,6.33,0l42-24.09c1.74-1,1.75-2.64,0-3.65L53.94,42.77a7,7,0,0,0-6.31,0L5.75,67.12C4,68.13,4,69.77,5.75,70.78Z"/><path class="cls-189" d="M5.75,70.77l41.7,24.07a7,7,0,0,0,6.33,0l42-24.09c1.74-1,1.75-2.64,0-3.65L53.94,42.76a7,7,0,0,0-6.31,0L5.75,67.11C4,68.12,4,69.76,5.75,70.77Z"/><path class="cls-190" d="M5.75,70.76l41.7,24.07a7,7,0,0,0,6.33,0l42-24.09c1.74-1,1.75-2.64,0-3.65L53.94,42.75a7,7,0,0,0-6.31,0L5.75,67.1C4,68.11,4,69.75,5.75,70.76Z"/><line class="cls-191" x1="42.25" y1="67.72" x2="37.81" y2="70.29"/><line class="cls-191" x1="32.89" y1="67.34" x2="37.48" y2="64.69"/><polyline class="cls-192" points="49.25 58.11 53.89 55.44 54.82 51.63 50.23 48.92 46.38 49.17"/><line class="cls-192" x1="51.57" y1="59.45" x2="56.21" y2="56.77"/><polyline class="cls-192" points="53.89 60.79 58.52 58.11 61.05 56.63 63.48 55.23 66.91 55.9 70.83 58.11"/><polyline class="cls-192" points="56.21 62.05 60.84 59.45 63.44 58.01 66.91 58.43 68.53 59.45"/><path class="cls-193" d="M35.81,64l10.24,5.91a1.7,1.7,0,0,0,1.55,0l10.32-5.92c.43-.24.43-.64,0-.89l-10.28-6a1.7,1.7,0,0,0-1.55,0l-10.29,6A.48.48,0,0,0,35.81,64Z"/><path class="cls-194" d="M35.81,63.9l10.24,5.91a1.73,1.73,0,0,0,1.55,0L57.92,63.9a.48.48,0,0,0,0-.9L47.64,57a1.7,1.7,0,0,0-1.55,0L35.8,63A.48.48,0,0,0,35.81,63.9Z"/><path class="cls-195" d="M35.81,63.86l10.24,5.91a1.7,1.7,0,0,0,1.55,0l10.32-5.92c.43-.24.43-.64,0-.89L47.64,57a1.7,1.7,0,0,0-1.55,0L35.8,63A.48.48,0,0,0,35.81,63.86Z"/><path class="cls-196" d="M35.81,63.81l10.24,5.91a1.73,1.73,0,0,0,1.55,0l10.32-5.92a.48.48,0,0,0,0-.9l-10.28-6a1.76,1.76,0,0,0-1.55,0l-10.29,6A.48.48,0,0,0,35.81,63.81Z"/><path class="cls-197" d="M35.81,63.77l10.24,5.91a1.7,1.7,0,0,0,1.55,0l10.32-5.91a.48.48,0,0,0,0-.9l-10.28-6a1.7,1.7,0,0,0-1.55,0l-10.29,6A.48.48,0,0,0,35.81,63.77Z"/><path class="cls-198" d="M35.81,63.72l10.24,5.92a1.76,1.76,0,0,0,1.55,0l10.32-5.92a.48.48,0,0,0,0-.9l-10.28-6a1.76,1.76,0,0,0-1.55,0l-10.29,6A.48.48,0,0,0,35.81,63.72Z"/><path class="cls-199" d="M35.81,63.68l10.24,5.91a1.7,1.7,0,0,0,1.55,0l10.32-5.91a.48.48,0,0,0,0-.9l-10.28-6a1.7,1.7,0,0,0-1.55,0l-10.29,6A.48.48,0,0,0,35.81,63.68Z"/><path class="cls-200" d="M35.81,63.63l10.24,5.92a1.76,1.76,0,0,0,1.55,0l10.32-5.92a.48.48,0,0,0,0-.9l-10.28-6a1.7,1.7,0,0,0-1.55,0l-10.29,6A.48.48,0,0,0,35.81,63.63Z"/><path class="cls-201" d="M35.81,63.59,46.05,69.5a1.7,1.7,0,0,0,1.55,0l10.32-5.91a.48.48,0,0,0,0-.9l-10.28-6a1.7,1.7,0,0,0-1.55,0l-10.29,6A.48.48,0,0,0,35.81,63.59Z"/><path class="cls-202" d="M35.81,63.54l10.24,5.92a1.73,1.73,0,0,0,1.55,0l10.32-5.92a.47.47,0,0,0,0-.89l-10.28-6a1.7,1.7,0,0,0-1.55,0l-10.29,6A.47.47,0,0,0,35.81,63.54Z"/><path class="cls-203" d="M35.81,63.5l10.24,5.91a1.7,1.7,0,0,0,1.55,0L57.92,63.5a.48.48,0,0,0,0-.9l-10.28-6a1.7,1.7,0,0,0-1.55,0l-10.29,6A.48.48,0,0,0,35.81,63.5Z"/><path class="cls-204" d="M35.81,63.45l10.24,5.92a1.73,1.73,0,0,0,1.55,0l10.32-5.92a.47.47,0,0,0,0-.89l-10.28-6a1.7,1.7,0,0,0-1.55,0l-10.29,6A.47.47,0,0,0,35.81,63.45Z"/><path class="cls-205" d="M35.81,63.41l10.24,5.91a1.7,1.7,0,0,0,1.55,0l10.32-5.91a.48.48,0,0,0,0-.9l-10.28-6a1.7,1.7,0,0,0-1.55,0l-10.29,6A.48.48,0,0,0,35.81,63.41Z"/><path class="cls-206" d="M35.81,63.37l10.24,5.91a1.7,1.7,0,0,0,1.55,0l10.32-5.92c.43-.24.43-.64,0-.89l-10.28-6a1.7,1.7,0,0,0-1.55,0l-10.29,6A.48.48,0,0,0,35.81,63.37Z"/><path class="cls-207" d="M35.81,63.32l10.24,5.91a1.73,1.73,0,0,0,1.55,0l10.32-5.92a.48.48,0,0,0,0-.9l-10.28-6a1.7,1.7,0,0,0-1.55,0l-10.29,6A.48.48,0,0,0,35.81,63.32Z"/><path class="cls-208" d="M35.81,63.28l10.24,5.91a1.7,1.7,0,0,0,1.55,0l10.32-5.92c.43-.24.43-.64,0-.89l-10.28-6a1.7,1.7,0,0,0-1.55,0l-10.29,6A.48.48,0,0,0,35.81,63.28Z"/><path class="cls-209" d="M35.81,63.23l10.24,5.91a1.73,1.73,0,0,0,1.55,0l10.32-5.92a.48.48,0,0,0,0-.9l-10.28-6a1.7,1.7,0,0,0-1.55,0l-10.29,6A.48.48,0,0,0,35.81,63.23Z"/><path class="cls-210" d="M35.81,63.19,46.05,69.1a1.7,1.7,0,0,0,1.55,0l10.32-5.92c.43-.24.43-.64,0-.89l-10.28-6a1.7,1.7,0,0,0-1.55,0l-10.29,6A.48.48,0,0,0,35.81,63.19Z"/><path class="cls-211" d="M35.81,63.14l10.24,5.91a1.73,1.73,0,0,0,1.55,0l10.32-5.92a.48.48,0,0,0,0-.9l-10.28-6a1.7,1.7,0,0,0-1.55,0l-10.29,6A.48.48,0,0,0,35.81,63.14Z"/><path class="cls-212" d="M35.81,63.1,46.05,69a1.7,1.7,0,0,0,1.55,0l10.32-5.92c.43-.24.43-.64,0-.89l-10.28-6a1.7,1.7,0,0,0-1.55,0l-10.29,6A.48.48,0,0,0,35.81,63.1Z"/><path class="cls-213" d="M35.81,63.05,46.05,69a1.73,1.73,0,0,0,1.55,0l10.32-5.92a.48.48,0,0,0,0-.9l-10.28-6a1.76,1.76,0,0,0-1.55,0l-10.29,6A.48.48,0,0,0,35.81,63.05Z"/><path class="cls-214" d="M35.81,63l10.24,5.91a1.7,1.7,0,0,0,1.55,0L57.92,63a.48.48,0,0,0,0-.9l-10.28-6a1.7,1.7,0,0,0-1.55,0l-10.29,6A.48.48,0,0,0,35.81,63Z"/><path class="cls-214" d="M35.81,63l10.24,5.92a1.76,1.76,0,0,0,1.55,0L57.92,63a.48.48,0,0,0,0-.9l-10.28-6a1.76,1.76,0,0,0-1.55,0l-10.29,6A.48.48,0,0,0,35.81,63Z"/><path class="cls-215" d="M35.81,62.92l10.24,5.91a1.7,1.7,0,0,0,1.55,0l10.32-5.91a.48.48,0,0,0,0-.9L47.64,56a1.7,1.7,0,0,0-1.55,0L35.8,62A.48.48,0,0,0,35.81,62.92Z"/><path class="cls-216" d="M35.81,62.87l10.24,5.92a1.76,1.76,0,0,0,1.55,0l10.32-5.92a.48.48,0,0,0,0-.9L47.64,56a1.7,1.7,0,0,0-1.55,0L35.8,62A.48.48,0,0,0,35.81,62.87Z"/><path class="cls-217" d="M35.81,62.83l10.24,5.91a1.7,1.7,0,0,0,1.55,0l10.32-5.91a.48.48,0,0,0,0-.9L47.64,56a1.7,1.7,0,0,0-1.55,0l-10.29,6A.48.48,0,0,0,35.81,62.83Z"/><path class="cls-218" d="M35.81,62.78,46.05,68.7a1.73,1.73,0,0,0,1.55,0l10.32-5.92a.47.47,0,0,0,0-.89l-10.28-6a1.7,1.7,0,0,0-1.55,0l-10.29,6A.47.47,0,0,0,35.81,62.78Z"/><path class="cls-219" d="M35.81,62.74l10.24,5.91a1.7,1.7,0,0,0,1.55,0l10.32-5.91a.48.48,0,0,0,0-.9l-10.28-6a1.7,1.7,0,0,0-1.55,0l-10.29,6A.48.48,0,0,0,35.81,62.74Z"/><path class="cls-220" d="M35.81,62.69l10.24,5.92a1.73,1.73,0,0,0,1.55,0l10.32-5.92a.47.47,0,0,0,0-.89l-10.28-6a1.7,1.7,0,0,0-1.55,0l-10.29,6A.47.47,0,0,0,35.81,62.69Z"/><path class="cls-221" d="M35.81,62.65l10.24,5.91a1.7,1.7,0,0,0,1.55,0l10.32-5.91a.48.48,0,0,0,0-.9l-10.28-6a1.7,1.7,0,0,0-1.55,0l-10.29,6A.48.48,0,0,0,35.81,62.65Z"/><path class="cls-222" d="M35.81,62.61l10.24,5.91a1.7,1.7,0,0,0,1.55,0L57.92,62.6c.43-.24.43-.64,0-.89l-10.28-6a1.7,1.7,0,0,0-1.55,0l-10.29,6A.48.48,0,0,0,35.81,62.61Z"/><path class="cls-223" d="M35.81,62.56l10.24,5.91a1.73,1.73,0,0,0,1.55,0l10.32-5.92a.48.48,0,0,0,0-.9l-10.28-6a1.7,1.7,0,0,0-1.55,0l-10.29,6A.48.48,0,0,0,35.81,62.56Z"/><path class="cls-224" d="M35.81,62.52l10.24,5.91a1.7,1.7,0,0,0,1.55,0l10.32-5.92c.43-.24.43-.64,0-.89l-10.28-6a1.7,1.7,0,0,0-1.55,0l-10.29,6A.48.48,0,0,0,35.81,62.52Z"/><path class="cls-225" d="M35.81,62.47l10.24,5.91a1.73,1.73,0,0,0,1.55,0l10.32-5.92a.48.48,0,0,0,0-.9l-10.28-6a1.7,1.7,0,0,0-1.55,0l-10.29,6A.48.48,0,0,0,35.81,62.47Z"/><path class="cls-226" d="M35.81,62.43l10.24,5.91a1.7,1.7,0,0,0,1.55,0l10.32-5.92c.43-.24.43-.64,0-.89l-10.28-6a1.7,1.7,0,0,0-1.55,0l-10.29,6A.48.48,0,0,0,35.81,62.43Z"/><path class="cls-227" d="M35.81,62.38l10.24,5.91a1.73,1.73,0,0,0,1.55,0l10.32-5.92a.48.48,0,0,0,0-.9l-10.28-6a1.7,1.7,0,0,0-1.55,0l-10.29,6A.48.48,0,0,0,35.81,62.38Z"/><path class="cls-228" d="M35.81,62.34l10.24,5.91a1.7,1.7,0,0,0,1.55,0l10.32-5.92c.43-.24.43-.64,0-.89l-10.28-6a1.7,1.7,0,0,0-1.55,0l-10.29,6A.48.48,0,0,0,35.81,62.34Z"/><path class="cls-229" d="M35.81,62.29,46.05,68.2a1.73,1.73,0,0,0,1.55,0l10.32-5.92a.48.48,0,0,0,0-.9l-10.28-6a1.76,1.76,0,0,0-1.55,0l-10.29,6A.48.48,0,0,0,35.81,62.29Z"/><path class="cls-230" d="M35.81,62.25l10.24,5.91a1.7,1.7,0,0,0,1.55,0l10.32-5.91a.48.48,0,0,0,0-.9l-10.28-6a1.7,1.7,0,0,0-1.55,0l-10.29,6A.48.48,0,0,0,35.81,62.25Z"/><path class="cls-231" d="M35.81,62.2l10.24,5.92a1.76,1.76,0,0,0,1.55,0L57.92,62.2a.48.48,0,0,0,0-.9l-10.28-6a1.76,1.76,0,0,0-1.55,0l-10.29,6A.48.48,0,0,0,35.81,62.2Z"/><path class="cls-232" d="M35.81,62.16l10.24,5.91a1.7,1.7,0,0,0,1.55,0l10.32-5.91a.48.48,0,0,0,0-.9l-10.28-6a1.7,1.7,0,0,0-1.55,0l-10.29,6A.48.48,0,0,0,35.81,62.16Z"/><path class="cls-233" d="M35.81,62.11,46.05,68a1.76,1.76,0,0,0,1.55,0l10.32-5.92a.48.48,0,0,0,0-.9l-10.28-6a1.7,1.7,0,0,0-1.55,0l-10.29,6A.48.48,0,0,0,35.81,62.11Z"/><path class="cls-234" d="M35.81,62.07,46.05,68a1.7,1.7,0,0,0,1.55,0l10.32-5.91a.48.48,0,0,0,0-.9l-10.28-6a1.7,1.7,0,0,0-1.55,0l-10.29,6A.48.48,0,0,0,35.81,62.07Z"/><path class="cls-235" d="M35.81,62l10.24,5.92a1.73,1.73,0,0,0,1.55,0L57.92,62a.47.47,0,0,0,0-.89l-10.28-6a1.7,1.7,0,0,0-1.55,0l-10.29,6A.47.47,0,0,0,35.81,62Z"/><path class="cls-236" d="M35.81,62l10.24,5.91a1.7,1.7,0,0,0,1.55,0L57.92,62a.48.48,0,0,0,0-.9l-10.28-6a1.7,1.7,0,0,0-1.55,0l-10.29,6A.48.48,0,0,0,35.81,62Z"/><circle class="cls-1" cx="77.69" cy="42.43" r="0.33"/><path class="cls-193" d="M66.93,61.87l5.32,3.07a.89.89,0,0,0,.81,0l5.36-3.07a.25.25,0,0,0,0-.47l-5.34-3.11a.89.89,0,0,0-.81,0L66.93,61.4A.25.25,0,0,0,66.93,61.87Z"/><path class="cls-194" d="M66.93,61.84l5.32,3.07a.92.92,0,0,0,.81,0l5.36-3.08c.22-.13.22-.33,0-.46l-5.34-3.11a.89.89,0,0,0-.81,0l-5.34,3.11C66.71,61.51,66.71,61.71,66.93,61.84Z"/><path class="cls-195" d="M66.93,61.82l5.32,3.07a.89.89,0,0,0,.81,0l5.36-3.07a.25.25,0,0,0,0-.47l-5.34-3.1a.89.89,0,0,0-.81,0l-5.34,3.1A.25.25,0,0,0,66.93,61.82Z"/><path class="cls-196" d="M66.93,61.8l5.32,3.07a.89.89,0,0,0,.81,0l5.36-3.07a.25.25,0,0,0,0-.47l-5.34-3.11a1,1,0,0,0-.81,0l-5.34,3.11A.25.25,0,0,0,66.93,61.8Z"/><path class="cls-197" d="M66.93,61.77l5.32,3.07a.92.92,0,0,0,.81,0l5.36-3.08c.22-.13.22-.33,0-.46L73.08,58.2a.89.89,0,0,0-.81,0l-5.34,3.11C66.71,61.44,66.71,61.65,66.93,61.77Z"/><path class="cls-198" d="M66.93,61.75l5.32,3.07a.89.89,0,0,0,.81,0l5.36-3.07a.25.25,0,0,0,0-.47l-5.34-3.1a.89.89,0,0,0-.81,0l-5.34,3.1A.25.25,0,0,0,66.93,61.75Z"/><path class="cls-199" d="M66.93,61.73l5.32,3.07a.89.89,0,0,0,.81,0l5.36-3.07a.25.25,0,0,0,0-.47l-5.34-3.11a1,1,0,0,0-.81,0l-5.34,3.11A.25.25,0,0,0,66.93,61.73Z"/><path class="cls-200" d="M66.93,61.7l5.32,3.08a1,1,0,0,0,.81,0l5.36-3.08c.22-.12.22-.33,0-.46l-5.34-3.11a.89.89,0,0,0-.81,0l-5.34,3.11C66.71,61.37,66.71,61.58,66.93,61.7Z"/><path class="cls-201" d="M66.93,61.68l5.32,3.07a.89.89,0,0,0,.81,0l5.36-3.07a.25.25,0,0,0,0-.47l-5.34-3.1a.89.89,0,0,0-.81,0l-5.34,3.1A.25.25,0,0,0,66.93,61.68Z"/><path class="cls-202" d="M66.93,61.66l5.32,3.07a.89.89,0,0,0,.81,0l5.36-3.07a.25.25,0,0,0,0-.47l-5.34-3.1a.89.89,0,0,0-.81,0l-5.34,3.1A.25.25,0,0,0,66.93,61.66Z"/><path class="cls-203" d="M66.93,61.63l5.32,3.08a1,1,0,0,0,.81,0l5.36-3.08c.22-.12.22-.33,0-.46l-5.34-3.11a.89.89,0,0,0-.81,0l-5.34,3.11C66.71,61.3,66.71,61.51,66.93,61.63Z"/><path class="cls-204" d="M66.93,61.61l5.32,3.07a.89.89,0,0,0,.81,0l5.36-3.07a.25.25,0,0,0,0-.47L73.08,58a.89.89,0,0,0-.81,0l-5.34,3.1A.25.25,0,0,0,66.93,61.61Z"/><path class="cls-205" d="M66.93,61.59l5.32,3.07a.89.89,0,0,0,.81,0l5.36-3.07a.25.25,0,0,0,0-.47L73.08,58a.89.89,0,0,0-.81,0l-5.34,3.1A.25.25,0,0,0,66.93,61.59Z"/><path class="cls-206" d="M66.93,61.56l5.32,3.08a1,1,0,0,0,.81,0l5.36-3.08c.22-.12.22-.33,0-.46L73.08,58a.89.89,0,0,0-.81,0L66.93,61.1C66.71,61.23,66.71,61.44,66.93,61.56Z"/><path class="cls-207" d="M66.93,61.54l5.32,3.07a.89.89,0,0,0,.81,0l5.36-3.07a.25.25,0,0,0,0-.47L73.08,58a.89.89,0,0,0-.81,0l-5.34,3.1A.25.25,0,0,0,66.93,61.54Z"/><path class="cls-208" d="M66.93,61.52l5.32,3.07a.89.89,0,0,0,.81,0l5.36-3.07a.25.25,0,0,0,0-.47L73.08,58a.89.89,0,0,0-.81,0l-5.34,3.1A.25.25,0,0,0,66.93,61.52Z"/><path class="cls-209" d="M66.93,61.5l5.32,3.07a.92.92,0,0,0,.81,0l5.36-3.08c.22-.12.22-.33,0-.46l-5.34-3.11a.89.89,0,0,0-.81,0L66.93,61A.25.25,0,0,0,66.93,61.5Z"/><path class="cls-210" d="M66.93,61.47l5.32,3.07a.89.89,0,0,0,.81,0l5.36-3.07a.25.25,0,0,0,0-.47l-5.34-3.1a.89.89,0,0,0-.81,0L66.93,61A.25.25,0,0,0,66.93,61.47Z"/><path class="cls-211" d="M66.93,61.45l5.32,3.07a.89.89,0,0,0,.81,0l5.36-3.07a.25.25,0,0,0,0-.47l-5.34-3.1a.89.89,0,0,0-.81,0L66.93,61A.25.25,0,0,0,66.93,61.45Z"/><path class="cls-212" d="M66.93,61.43l5.32,3.07a.89.89,0,0,0,.81,0l5.36-3.08c.22-.12.22-.33,0-.46l-5.34-3.11a.89.89,0,0,0-.81,0L66.93,61A.25.25,0,0,0,66.93,61.43Z"/><path class="cls-213" d="M66.93,61.4l5.32,3.07a.89.89,0,0,0,.81,0l5.36-3.07c.22-.13.22-.34,0-.46l-5.34-3.11a.89.89,0,0,0-.81,0l-5.34,3.11C66.71,61.06,66.71,61.27,66.93,61.4Z"/><path class="cls-214" d="M66.93,61.38l5.32,3.07a.89.89,0,0,0,.81,0l5.36-3.07a.25.25,0,0,0,0-.47l-5.34-3.1a.89.89,0,0,0-.81,0l-5.34,3.1A.25.25,0,0,0,66.93,61.38Z"/><path class="cls-214" d="M66.93,61.36l5.32,3.07a.89.89,0,0,0,.81,0l5.36-3.08c.22-.12.22-.33,0-.46l-5.34-3.11a.89.89,0,0,0-.81,0l-5.34,3.11A.25.25,0,0,0,66.93,61.36Z"/><path class="cls-215" d="M66.93,61.33l5.32,3.07a.89.89,0,0,0,.81,0l5.36-3.07c.22-.13.22-.34,0-.46l-5.34-3.11a.89.89,0,0,0-.81,0l-5.34,3.11C66.71,61,66.71,61.2,66.93,61.33Z"/><path class="cls-216" d="M66.93,61.31l5.32,3.07a.89.89,0,0,0,.81,0l5.36-3.07a.25.25,0,0,0,0-.47l-5.34-3.1a.89.89,0,0,0-.81,0l-5.34,3.1A.25.25,0,0,0,66.93,61.31Z"/><path class="cls-217" d="M66.93,61.29l5.32,3.07a.89.89,0,0,0,.81,0l5.36-3.07a.25.25,0,0,0,0-.47l-5.34-3.11a.89.89,0,0,0-.81,0l-5.34,3.11A.25.25,0,0,0,66.93,61.29Z"/><path class="cls-218" d="M66.93,61.26l5.32,3.07a.92.92,0,0,0,.81,0l5.36-3.08c.22-.13.22-.33,0-.46l-5.34-3.11a.89.89,0,0,0-.81,0L66.93,60.8C66.71,60.93,66.71,61.13,66.93,61.26Z"/><path class="cls-219" d="M66.93,61.24l5.32,3.07a.89.89,0,0,0,.81,0l5.36-3.07a.25.25,0,0,0,0-.47l-5.34-3.1a.89.89,0,0,0-.81,0l-5.34,3.1A.25.25,0,0,0,66.93,61.24Z"/><path class="cls-220" d="M66.93,61.22l5.32,3.07a.89.89,0,0,0,.81,0l5.36-3.07a.25.25,0,0,0,0-.47l-5.34-3.11a.89.89,0,0,0-.81,0l-5.34,3.11A.25.25,0,0,0,66.93,61.22Z"/><path class="cls-221" d="M66.93,61.19l5.32,3.07a.92.92,0,0,0,.81,0l5.36-3.08c.22-.13.22-.33,0-.46l-5.34-3.11a.89.89,0,0,0-.81,0l-5.34,3.11C66.71,60.86,66.71,61.06,66.93,61.19Z"/><path class="cls-222" d="M66.93,61.17l5.32,3.07a.89.89,0,0,0,.81,0l5.36-3.07a.25.25,0,0,0,0-.47l-5.34-3.1a.89.89,0,0,0-.81,0l-5.34,3.1A.25.25,0,0,0,66.93,61.17Z"/><path class="cls-223" d="M66.93,61.15l5.32,3.07a.89.89,0,0,0,.81,0l5.36-3.07a.25.25,0,0,0,0-.47l-5.34-3.11a.89.89,0,0,0-.81,0l-5.34,3.11A.25.25,0,0,0,66.93,61.15Z"/><path class="cls-224" d="M66.93,61.12l5.32,3.07a.92.92,0,0,0,.81,0l5.36-3.08c.22-.13.22-.33,0-.46l-5.34-3.11a.89.89,0,0,0-.81,0l-5.34,3.11C66.71,60.79,66.71,61,66.93,61.12Z"/><path class="cls-225" d="M66.93,61.1l5.32,3.07a.89.89,0,0,0,.81,0l5.36-3.07a.25.25,0,0,0,0-.47l-5.34-3.1a.89.89,0,0,0-.81,0l-5.34,3.1A.25.25,0,0,0,66.93,61.1Z"/><path class="cls-226" d="M66.93,61.08l5.32,3.07a.89.89,0,0,0,.81,0l5.36-3.07a.25.25,0,0,0,0-.47L73.08,57.5a1,1,0,0,0-.81,0l-5.34,3.11A.25.25,0,0,0,66.93,61.08Z"/><path class="cls-227" d="M66.93,61.05l5.32,3.07a.92.92,0,0,0,.81,0l5.36-3.08c.22-.13.22-.33,0-.46l-5.34-3.11a.89.89,0,0,0-.81,0l-5.34,3.11C66.71,60.72,66.71,60.93,66.93,61.05Z"/><path class="cls-228" d="M66.93,61l5.32,3.07a.89.89,0,0,0,.81,0L78.42,61a.25.25,0,0,0,0-.47l-5.34-3.1a.89.89,0,0,0-.81,0l-5.34,3.1A.25.25,0,0,0,66.93,61Z"/><path class="cls-229" d="M66.93,61l5.32,3.07a.89.89,0,0,0,.81,0L78.42,61a.25.25,0,0,0,0-.47l-5.34-3.11a1,1,0,0,0-.81,0l-5.34,3.11A.25.25,0,0,0,66.93,61Z"/><path class="cls-230" d="M66.93,61l5.32,3.08a1,1,0,0,0,.81,0L78.42,61c.22-.12.22-.33,0-.46l-5.34-3.11a.89.89,0,0,0-.81,0l-5.34,3.11C66.71,60.65,66.71,60.86,66.93,61Z"/><path class="cls-231" d="M66.93,61,72.25,64a.89.89,0,0,0,.81,0L78.42,61a.25.25,0,0,0,0-.47l-5.34-3.1a.89.89,0,0,0-.81,0l-5.34,3.1A.25.25,0,0,0,66.93,61Z"/><path class="cls-232" d="M66.93,60.94,72.25,64a.89.89,0,0,0,.81,0l5.36-3.07a.25.25,0,0,0,0-.47l-5.34-3.1a.89.89,0,0,0-.81,0l-5.34,3.1A.25.25,0,0,0,66.93,60.94Z"/><path class="cls-233" d="M66.93,60.91,72.25,64a1,1,0,0,0,.81,0l5.36-3.08c.22-.12.22-.33,0-.46l-5.34-3.11a.89.89,0,0,0-.81,0l-5.34,3.11C66.71,60.58,66.71,60.79,66.93,60.91Z"/><path class="cls-234" d="M66.93,60.89,72.25,64a.89.89,0,0,0,.81,0l5.36-3.07a.25.25,0,0,0,0-.47l-5.34-3.1a.89.89,0,0,0-.81,0l-5.34,3.1A.25.25,0,0,0,66.93,60.89Z"/><path class="cls-235" d="M66.93,60.87l5.32,3.07a.89.89,0,0,0,.81,0l5.36-3.07a.25.25,0,0,0,0-.47l-5.34-3.1a.89.89,0,0,0-.81,0l-5.34,3.1A.25.25,0,0,0,66.93,60.87Z"/><path class="cls-236" d="M66.93,60.85l5.32,3.07a.92.92,0,0,0,.81,0l5.36-3.08c.22-.12.22-.33,0-.46l-5.34-3.11a.89.89,0,0,0-.81,0l-5.34,3.11A.25.25,0,0,0,66.93,60.85Z"/><text class="cls-237" transform="matrix(0.75, -0.43, 0.87, 0.5, 44.91, 63.17)">1609</text><text class="cls-238" transform="matrix(0.75, -0.43, 0.87, 0.5, 53.79, 68.59)">IC1</text><text class="cls-238" transform="matrix(0.75, -0.43, 0.87, 0.5, 29.72, 68.19)">R1</text><ellipse class="cls-239" cx="25.09" cy="60.75" rx="3.09" ry="2.06"/><polyline class="cls-240" points="22.56 56.25 22.57 60.88 22.77 61.42 23.43 62.02 24.27 62.34 25.51 62.43 26.52 62.13 27.02 61.83 27.36 61.48 27.61 60.84 27.61 60.65 27.61 56.25"/><ellipse class="cls-241" cx="25.09" cy="56.25" rx="2.53" ry="1.69"/><ellipse class="cls-242" cx="25.09" cy="56.25" rx="1.97" ry="1.4"/><line class="cls-243" x1="19.91" y1="61.13" x2="21.33" y2="61.94"/><line class="cls-243" x1="21.33" y1="61.13" x2="19.91" y2="61.94"/><line class="cls-243" x1="29.14" y1="56.66" x2="27.72" y2="57.48"/><text class="cls-238" transform="matrix(0.75, -0.43, 0.87, 0.5, 28.38, 63.78)">C1</text><polygon class="cls-244" points="33.91 67.84 30.51 69.81 28.93 68.89 32.33 66.93 33.91 67.84"/><polygon class="cls-245" points="33.91 67.85 30.51 69.82 28.93 68.9 32.33 66.94 33.91 67.85"/><polygon class="cls-246" points="33.91 67.86 30.51 69.83 28.93 68.91 32.33 66.95 33.91 67.86"/><polygon class="cls-247" points="33.91 67.88 30.51 69.84 28.93 68.92 32.33 66.96 33.91 67.88"/><polygon class="cls-248" points="33.91 67.89 30.51 69.85 28.93 68.93 32.33 66.97 33.91 67.89"/><polygon class="cls-249" points="33.91 67.9 30.51 69.86 28.93 68.94 32.33 66.98 33.91 67.9"/><polygon class="cls-250" points="33.91 67.91 30.51 69.87 28.93 68.95 32.33 66.99 33.91 67.91"/><polygon class="cls-251" points="33.91 67.92 30.51 69.88 28.93 68.96 32.33 67 33.91 67.92"/><polygon class="cls-252" points="33.91 67.93 30.51 69.89 28.93 68.97 32.33 67.01 33.91 67.93"/><polygon class="cls-253" points="33.91 67.94 30.51 69.9 28.93 68.99 32.33 67.02 33.91 67.94"/><polygon class="cls-254" points="33.91 67.95 30.51 69.91 28.93 69 32.33 67.03 33.91 67.95"/><polygon class="cls-255" points="33.91 67.96 30.51 69.92 28.93 69.01 32.33 67.05 33.91 67.96"/><polygon class="cls-256" points="33.91 67.97 30.51 69.93 28.93 69.02 32.33 67.06 33.91 67.97"/><polygon class="cls-257" points="33.91 67.98 30.51 69.94 28.93 69.03 32.33 67.07 33.91 67.98"/><polygon class="cls-257" points="33.91 67.99 30.51 69.96 28.93 69.04 32.33 67.08 33.91 67.99"/><polygon class="cls-258" points="33.91 68 30.51 69.97 28.93 69.05 32.33 67.09 33.91 68"/><polygon class="cls-259" points="33.91 68.02 30.51 69.98 28.93 69.06 32.33 67.1 33.91 68.02"/><polygon class="cls-260" points="33.91 68.03 30.51 69.99 28.93 69.07 32.33 67.11 33.91 68.03"/><polygon class="cls-261" points="33.91 68.04 30.51 70 28.93 69.08 32.33 67.12 33.91 68.04"/><polygon class="cls-262" points="33.91 68.05 30.51 70.01 28.93 69.09 32.33 67.13 33.91 68.05"/><polygon class="cls-263" points="33.91 68.06 30.51 70.02 28.93 69.11 32.33 67.14 33.91 68.06"/><polygon class="cls-264" points="33.91 68.07 30.51 70.03 28.93 69.12 32.33 67.15 33.91 68.07"/><polygon class="cls-265" points="33.91 68.08 30.51 70.04 28.93 69.13 32.33 67.16 33.91 68.08"/><polygon class="cls-266" points="33.91 68.09 30.51 70.05 28.93 69.14 32.33 67.17 33.91 68.09"/><polygon class="cls-267" points="33.91 68.1 30.51 70.06 28.93 69.15 32.33 67.19 33.91 68.1"/><polygon class="cls-268" points="33.91 68.11 30.51 70.08 28.93 69.16 32.33 67.2 33.91 68.11"/><polygon class="cls-269" points="33.91 68.12 30.51 70.09 28.93 69.17 32.33 67.21 33.91 68.12"/><polygon points="33.26 68.22 31.16 69.43 29.58 68.51 31.67 67.3 33.26 68.22"/><text class="cls-270" transform="matrix(0.75, -0.43, 0.87, 0.5, 30.76, 69.11)">R100</text><polygon class="cls-244" points="31.85 71.67 28.45 73.63 26.86 72.71 30.26 70.75 31.85 71.67"/><polygon class="cls-245" points="31.85 71.68 28.45 73.64 26.86 72.72 30.26 70.76 31.85 71.68"/><polygon class="cls-246" points="31.85 71.69 28.45 73.65 26.86 72.73 30.26 70.77 31.85 71.69"/><polygon class="cls-247" points="31.85 71.7 28.45 73.66 26.86 72.74 30.26 70.78 31.85 71.7"/><polygon class="cls-248" points="31.85 71.71 28.45 73.67 26.86 72.75 30.26 70.79 31.85 71.71"/><polygon class="cls-249" points="31.85 71.72 28.45 73.68 26.86 72.77 30.26 70.8 31.85 71.72"/><polygon class="cls-250" points="31.85 71.73 28.45 73.69 26.86 72.78 30.26 70.81 31.85 71.73"/><polygon class="cls-251" points="31.85 71.74 28.45 73.7 26.86 72.79 30.26 70.83 31.85 71.74"/><polygon class="cls-252" points="31.85 71.75 28.45 73.71 26.86 72.8 30.26 70.83 31.85 71.75"/><polygon class="cls-253" points="31.85 71.76 28.45 73.72 26.86 72.81 30.26 70.85 31.85 71.76"/><polygon class="cls-254" points="31.85 71.77 28.45 73.74 26.86 72.82 30.26 70.86 31.85 71.77"/><polygon class="cls-255" points="31.85 71.78 28.45 73.75 26.86 72.83 30.26 70.87 31.85 71.78"/><polygon class="cls-256" points="31.85 71.8 28.45 73.76 26.86 72.84 30.26 70.88 31.85 71.8"/><polygon class="cls-257" points="31.85 71.81 28.45 73.77 26.86 72.85 30.26 70.89 31.85 71.81"/><polygon class="cls-257" points="31.85 71.82 28.45 73.78 26.86 72.86 30.26 70.9 31.85 71.82"/><polygon class="cls-258" points="31.85 71.83 28.45 73.79 26.86 72.87 30.26 70.91 31.85 71.83"/><polygon class="cls-259" points="31.85 71.84 28.45 73.8 26.86 72.89 30.26 70.92 31.85 71.84"/><polygon class="cls-260" points="31.85 71.85 28.45 73.81 26.86 72.89 30.26 70.93 31.85 71.85"/><polygon class="cls-261" points="31.85 71.86 28.45 73.82 26.86 72.91 30.26 70.94 31.85 71.86"/><polygon class="cls-262" points="31.85 71.87 28.45 73.83 26.86 72.92 30.26 70.95 31.85 71.87"/><polygon class="cls-263" points="31.85 71.88 28.45 73.84 26.86 72.93 30.26 70.97 31.85 71.88"/><polygon class="cls-264" points="31.85 71.89 28.45 73.86 26.86 72.94 30.26 70.98 31.85 71.89"/><polygon class="cls-265" points="31.85 71.9 28.45 73.87 26.86 72.95 30.26 70.99 31.85 71.9"/><polygon class="cls-266" points="31.85 71.91 28.45 73.88 26.86 72.96 30.26 71 31.85 71.91"/><polygon class="cls-267" points="31.85 71.92 28.45 73.89 26.86 72.97 30.26 71.01 31.85 71.92"/><polygon class="cls-268" points="31.85 71.94 28.45 73.9 26.86 72.98 30.26 71.02 31.85 71.94"/><polygon class="cls-269" points="31.85 71.95 28.45 73.91 26.86 72.99 30.26 71.03 31.85 71.95"/><polygon points="31.2 72.04 29.1 73.25 27.51 72.34 29.61 71.13 31.2 72.04"/><text class="cls-270" transform="matrix(0.75, -0.43, 0.87, 0.5, 28.7, 72.93)">R100</text><polygon class="cls-244" points="38.59 70.54 35.19 72.5 33.6 71.59 37 69.63 38.59 70.54"/><polygon class="cls-245" points="38.59 70.55 35.19 72.52 33.6 71.6 37 69.64 38.59 70.55"/><polygon class="cls-246" points="38.59 70.56 35.19 72.53 33.6 71.61 37 69.65 38.59 70.56"/><polygon class="cls-247" points="38.59 70.57 35.19 72.54 33.6 71.62 37 69.66 38.59 70.57"/><polygon class="cls-248" points="38.59 70.58 35.19 72.55 33.6 71.63 37 69.67 38.59 70.58"/><polygon class="cls-249" points="38.59 70.59 35.19 72.56 33.6 71.64 37 69.68 38.59 70.59"/><polygon class="cls-250" points="38.59 70.61 35.19 72.57 33.6 71.65 37 69.69 38.59 70.61"/><polygon class="cls-251" points="38.59 70.62 35.19 72.58 33.6 71.66 37 69.7 38.59 70.62"/><polygon class="cls-252" points="38.59 70.63 35.19 72.59 33.6 71.67 37 69.71 38.59 70.63"/><polygon class="cls-253" points="38.59 70.64 35.19 72.6 33.6 71.69 37 69.72 38.59 70.64"/><polygon class="cls-254" points="38.59 70.65 35.19 72.61 33.6 71.7 37 69.73 38.59 70.65"/><polygon class="cls-255" points="38.59 70.66 35.19 72.62 33.6 71.71 37 69.74 38.59 70.66"/><polygon class="cls-256" points="38.59 70.67 35.19 72.63 33.6 71.72 37 69.75 38.59 70.67"/><polygon class="cls-257" points="38.59 70.68 35.19 72.64 33.6 71.73 37 69.77 38.59 70.68"/><polygon class="cls-257" points="38.59 70.69 35.19 72.66 33.6 71.74 37 69.78 38.59 70.69"/><polygon class="cls-258" points="38.59 70.7 35.19 72.67 33.6 71.75 37 69.79 38.59 70.7"/><polygon class="cls-259" points="38.59 70.71 35.19 72.68 33.6 71.76 37 69.8 38.59 70.71"/><polygon class="cls-260" points="38.59 70.72 35.19 72.69 33.6 71.77 37 69.81 38.59 70.72"/><polygon class="cls-261" points="38.59 70.74 35.19 72.7 33.6 71.78 37 69.82 38.59 70.74"/><polygon class="cls-262" points="38.59 70.75 35.19 72.71 33.6 71.79 37 69.83 38.59 70.75"/><polygon class="cls-263" points="38.59 70.76 35.19 72.72 33.6 71.8 37 69.84 38.59 70.76"/><polygon class="cls-264" points="38.59 70.77 35.19 72.73 33.6 71.81 37 69.85 38.59 70.77"/><polygon class="cls-265" points="38.59 70.78 35.19 72.74 33.6 71.83 37 69.86 38.59 70.78"/><polygon class="cls-266" points="38.59 70.79 35.19 72.75 33.6 71.84 37 69.87 38.59 70.79"/><polygon class="cls-267" points="38.59 70.8 35.19 72.76 33.6 71.85 37 69.88 38.59 70.8"/><polygon class="cls-268" points="38.59 70.81 35.19 72.77 33.6 71.86 37 69.89 38.59 70.81"/><polygon class="cls-269" points="38.59 70.82 35.19 72.78 33.6 71.87 37 69.91 38.59 70.82"/><polygon points="37.94 70.92 35.84 72.13 34.26 71.21 36.35 70 37.94 70.92"/><text class="cls-270" transform="matrix(0.75, -0.43, 0.87, 0.5, 35.44, 71.81)">R100</text><line class="cls-192" x1="42.19" y1="50.84" x2="27.58" y2="59.34"/><text class="cls-238" transform="matrix(0.75, -0.43, 0.87, 0.5, 67.58, 65.66)">IC2</text><ellipse class="cls-239" cx="43.85" cy="49.57" rx="3.09" ry="2.06"/><polyline class="cls-240" points="41.32 45.07 41.33 49.7 41.53 50.24 42.19 50.84 43.03 51.16 44.28 51.25 45.28 50.95 45.78 50.65 46.13 50.3 46.38 49.65 46.38 49.46 46.38 45.07"/><ellipse class="cls-241" cx="43.85" cy="45.07" rx="2.53" ry="1.69"/><ellipse class="cls-242" cx="43.85" cy="45.07" rx="1.97" ry="1.4"/><line class="cls-243" x1="38.68" y1="49.95" x2="40.09" y2="50.76"/><line class="cls-243" x1="40.09" y1="49.95" x2="38.68" y2="50.76"/><line class="cls-243" x1="47.99" y1="45.66" x2="46.57" y2="46.47"/><text class="cls-238" transform="matrix(0.75, -0.43, 0.87, 0.5, 47.15, 52.6)">C2</text><text class="cls-237" transform="matrix(0.75, -0.43, 0.87, 0.5, 71.59, 61.94)">2701</text><text class="cls-238" transform="matrix(0.75, -0.43, 0.87, 0.5, 27.01, 71.87)">R2</text><text class="cls-238" transform="matrix(0.75, -0.43, 0.87, 0.5, 37.97, 73.27)">R3</text><line class="cls-271" x1="39.66" y1="66.17" x2="31.02" y2="71.12"/><ellipse class="cls-272" cx="46.72" cy="67.03" rx="0.56" ry="0.37"/><ellipse class="cls-273" cx="93.25" cy="69.03" rx="2.02" ry="1.34"/><ellipse class="cls-274" cx="93.28" cy="68.93" rx="1.31" ry="0.88"/><path class="cls-275" d="M92.28,69.49a1.61,1.61,0,0,1,1-.31,1.63,1.63,0,0,1,1,.31.73.73,0,0,0,.31-.56c0-.48-.59-.88-1.31-.88s-1.32.4-1.32.88A.72.72,0,0,0,92.28,69.49Z"/><ellipse class="cls-273" cx="50.81" cy="43.94" rx="2.02" ry="1.34"/><ellipse class="cls-274" cx="50.84" cy="43.84" rx="1.31" ry="0.88"/><path class="cls-275" d="M49.84,44.4a1.61,1.61,0,0,1,1-.32,1.64,1.64,0,0,1,1,.32.73.73,0,0,0,.31-.56c0-.49-.59-.88-1.31-.88s-1.32.39-1.32.88A.72.72,0,0,0,49.84,44.4Z"/><ellipse class="cls-273" cx="8.67" cy="68.99" rx="2.02" ry="1.34"/><ellipse class="cls-274" cx="8.7" cy="68.89" rx="1.31" ry="0.88"/><path class="cls-275" d="M7.7,69.45a1.72,1.72,0,0,1,2,0,.76.76,0,0,0,.32-.56C10,68.4,9.43,68,8.7,68s-1.31.39-1.31.88A.75.75,0,0,0,7.7,69.45Z"/><ellipse class="cls-273" cx="50.32" cy="92.69" rx="2.02" ry="1.34"/><ellipse class="cls-274" cx="50.35" cy="92.59" rx="1.31" ry="0.88"/><path class="cls-275" d="M49.35,93.15a1.72,1.72,0,0,1,2,0,.72.72,0,0,0,.32-.56c0-.49-.59-.88-1.32-.88S49,92.1,49,92.59A.73.73,0,0,0,49.35,93.15Z"/><polygon class="cls-1" points="39.78 82.2 39.38 82.43 38.92 82.16 39.32 81.93 39.78 82.2"/><polygon class="cls-1" points="38.63 82.48 38.23 82.71 37.77 82.44 38.17 82.21 38.63 82.48"/><ellipse class="cls-239" cx="38.76" cy="82.07" rx="1.63" ry="1.02"/><text class="cls-238" transform="matrix(0.75, -0.43, 0.87, 0.5, 40.94, 84.74)">D1</text><ellipse class="cls-276" cx="38.69" cy="81" rx="0.76" ry="1.34" transform="translate(-46.4 109.61) rotate(-83.05)"/><ellipse class="cls-277" cx="38.68" cy="81.03" rx="0.76" ry="1.34" transform="translate(-46.43 109.63) rotate(-83.05)"/><ellipse class="cls-278" cx="38.68" cy="81.06" rx="0.76" ry="1.34" transform="translate(-46.46 109.65) rotate(-83.05)"/><ellipse class="cls-279" cx="38.68" cy="81.09" rx="0.76" ry="1.34" transform="translate(-46.49 109.67) rotate(-83.05)"/><ellipse class="cls-279" cx="38.67" cy="81.12" rx="0.76" ry="1.34" transform="translate(-46.52 109.69) rotate(-83.05)"/><ellipse class="cls-280" cx="38.67" cy="81.14" rx="0.76" ry="1.34" transform="translate(-46.55 109.71) rotate(-83.05)"/><ellipse class="cls-281" cx="38.67" cy="81.17" rx="0.76" ry="1.34" transform="translate(-46.59 109.73) rotate(-83.05)"/><polyline class="cls-282" points="39.33 82.18 39.33 79.6 39.01 80.16"/><polyline class="cls-282" points="38.2 82.46 38.2 79.88 38.55 80.19"/><ellipse class="cls-283" cx="38.76" cy="80.11" rx="0.15" ry="0.25" transform="translate(-45.45 108.9) rotate(-83.05)"/><ellipse class="cls-284" cx="38.76" cy="80.08" rx="0.17" ry="0.28" transform="translate(-45.41 108.87) rotate(-83.05)"/><ellipse class="cls-285" cx="38.76" cy="80.04" rx="0.18" ry="0.3" transform="translate(-45.38 108.83) rotate(-83.05)"/><ellipse class="cls-286" cx="38.76" cy="80" rx="0.19" ry="0.32" transform="translate(-45.34 108.8) rotate(-83.05)"/><ellipse class="cls-287" cx="38.76" cy="79.96" rx="0.21" ry="0.34" transform="translate(-45.3 108.77) rotate(-83.05)"/><ellipse class="cls-288" cx="38.76" cy="79.92" rx="0.22" ry="0.36" transform="translate(-45.26 108.73) rotate(-83.05)"/><ellipse class="cls-289" cx="38.76" cy="79.89" rx="0.23" ry="0.38" transform="translate(-45.23 108.7) rotate(-83.05)"/><ellipse class="cls-290" cx="38.76" cy="79.85" rx="0.25" ry="0.4" transform="translate(-45.19 108.67) rotate(-83.05)"/><ellipse class="cls-244" cx="38.76" cy="79.81" rx="0.26" ry="0.42" transform="translate(-45.15 108.64) rotate(-83.05)"/><path class="cls-278" d="M38.76,77.66c-.62,0-1.12.35-1.12.79v2.36c0,.43.5.78,1.12.78s1.13-.35,1.13-.78V78.45C39.89,78,39.38,77.66,38.76,77.66Z"/><ellipse class="cls-291" cx="38.2" cy="78.25" rx="0.49" ry="0.29" transform="translate(-46.96 60.06) rotate(-51.92)"/><path class="cls-291" d="M38,78.82a.29.29,0,0,0-.28.29v1.54a.29.29,0,1,0,.57,0V79.11A.29.29,0,0,0,38,78.82Z"/><polygon class="cls-1" points="46.45 78.71 46.05 78.94 45.59 78.68 45.99 78.45 46.45 78.71"/><polygon class="cls-1" points="45.3 78.99 44.9 79.22 44.44 78.96 44.84 78.73 45.3 78.99"/><ellipse class="cls-239" cx="45.43" cy="78.58" rx="1.63" ry="1.02"/><text class="cls-238" transform="matrix(0.75, -0.43, 0.87, 0.5, 47.61, 81.26)">D2</text><ellipse class="cls-276" cx="45.36" cy="77.52" rx="0.76" ry="1.34" transform="translate(-37.08 113.16) rotate(-83.05)"/><ellipse class="cls-277" cx="45.35" cy="77.55" rx="0.76" ry="1.34" transform="translate(-37.11 113.18) rotate(-83.05)"/><ellipse class="cls-278" cx="45.35" cy="77.57" rx="0.76" ry="1.34" transform="translate(-37.14 113.21) rotate(-83.05)"/><ellipse class="cls-279" cx="45.35" cy="77.6" rx="0.76" ry="1.34" transform="translate(-37.17 113.23) rotate(-83.05)"/><ellipse class="cls-279" cx="45.34" cy="77.63" rx="0.76" ry="1.34" transform="translate(-37.2 113.25) rotate(-83.05)"/><ellipse class="cls-280" cx="45.34" cy="77.66" rx="0.76" ry="1.34" transform="translate(-37.23 113.27) rotate(-83.05)"/><ellipse class="cls-281" cx="45.34" cy="77.68" rx="0.76" ry="1.34" transform="translate(-37.26 113.29) rotate(-83.05)"/><polyline class="cls-282" points="46 78.69 46 76.11 45.68 76.68"/><polyline class="cls-282" points="44.87 78.97 44.87 76.39 45.22 76.7"/><ellipse class="cls-283" cx="45.43" cy="76.63" rx="0.15" ry="0.25" transform="translate(-36.13 112.46) rotate(-83.05)"/><ellipse class="cls-284" cx="45.43" cy="76.59" rx="0.17" ry="0.28" transform="translate(-36.09 112.42) rotate(-83.05)"/><ellipse class="cls-285" cx="45.43" cy="76.55" rx="0.18" ry="0.3" transform="translate(-36.05 112.39) rotate(-83.05)"/><ellipse class="cls-286" cx="45.43" cy="76.51" rx="0.19" ry="0.32" transform="translate(-36.01 112.36) rotate(-83.05)"/><ellipse class="cls-287" cx="45.43" cy="76.48" rx="0.21" ry="0.34" transform="translate(-35.98 112.32) rotate(-83.05)"/><ellipse class="cls-288" cx="45.43" cy="76.44" rx="0.22" ry="0.36" transform="translate(-35.94 112.29) rotate(-83.05)"/><ellipse class="cls-289" cx="45.43" cy="76.4" rx="0.23" ry="0.38" transform="translate(-35.9 112.26) rotate(-83.05)"/><ellipse class="cls-290" cx="45.43" cy="76.36" rx="0.25" ry="0.4" transform="translate(-35.86 112.22) rotate(-83.05)"/><ellipse class="cls-244" cx="45.43" cy="76.32" rx="0.26" ry="0.42" transform="translate(-35.83 112.19) rotate(-83.05)"/><path class="cls-278" d="M45.43,74.17c-.62,0-1.12.36-1.12.79v2.36c0,.44.5.79,1.12.79s1.12-.35,1.12-.79V75C46.55,74.53,46.05,74.17,45.43,74.17Z"/><ellipse class="cls-291" cx="44.87" cy="74.77" rx="0.49" ry="0.29" transform="translate(-41.66 63.97) rotate(-51.92)"/><path class="cls-291" d="M44.68,75.34a.28.28,0,0,0-.28.28v1.55a.28.28,0,0,0,.28.28.29.29,0,0,0,.29-.28V75.62A.29.29,0,0,0,44.68,75.34Z"/></g></svg>