<svg xmlns="http://www.w3.org/2000/svg" viewBox="0 0 100 100"><defs><style>.cls-1{fill:#0042ff;}.cls-2{fill:#0043ff;}.cls-3{fill:#04f;}.cls-4{fill:#0045ff;}.cls-5{fill:#0046ff;}.cls-6{fill:#0047ff;}.cls-7{fill:#0048ff;}.cls-8{fill:#0049ff;}.cls-9{fill:#004aff;}.cls-10{fill:#004bff;}.cls-11{fill:#004cff;}.cls-12{fill:#004dff;}.cls-13{fill:#004eff;}.cls-14{fill:#004fff;}.cls-15{fill:#0050ff;}.cls-16{fill:#0051ff;}.cls-17{fill:#0052ff;}.cls-18{fill:#0053ff;}.cls-19{fill:#0054ff;}.cls-20{fill:#05f;}.cls-21{fill:#0056ff;}.cls-22{fill:#0057ff;}.cls-23{fill:#0058ff;}.cls-24{fill:#0059ff;}.cls-25{fill:#005aff;}.cls-26{fill:#005bff;}.cls-27{fill:#005cff;}.cls-28{fill:#005dff;}.cls-29{fill:#005eff;}.cls-30{fill:#005fff;}.cls-31{fill:#0060ff;}.cls-32{fill:#0061ff;}.cls-33{fill:#0062ff;}.cls-34{fill:#0063ff;}.cls-35{fill:#0064ff;}.cls-36{fill:#0065ff;}.cls-37{fill:#06f;}.cls-38{fill:#0067ff;}.cls-39{fill:#0068ff;}.cls-40{fill:#0069ff;}.cls-41{fill:#006aff;}.cls-42{fill:#006bff;}.cls-43{fill:#006cff;}.cls-44{fill:#006dff;}.cls-45{fill:#006eff;}.cls-46{fill:#006fff;}.cls-47{fill:#0070ff;}.cls-48{fill:#0071ff;}.cls-49{fill:#0072ff;}.cls-50{fill:#0073ff;}.cls-51{fill:#0074ff;}.cls-52{fill:#0075ff;}.cls-53{fill:#0076ff;}.cls-54{fill:#07f;}.cls-55{fill:#0078ff;}.cls-56{fill:#0079ff;}.cls-57{fill:#007aff;}.cls-58{fill:#007bff;}.cls-59{fill:#007cff;}.cls-60{fill:#007dff;}.cls-61{fill:#007eff;}.cls-62{fill:#007fff;}.cls-63{fill:#0080ff;}.cls-64{fill:#0081ff;}.cls-65{fill:#0082ff;}.cls-66{fill:#0083ff;}.cls-67{fill:#0084ff;}.cls-68{fill:#0085ff;}.cls-69{fill:#0086ff;}.cls-70{fill:#0087ff;}.cls-71{fill:#08f;}.cls-72{fill:#0089ff;}.cls-73{fill:#008aff;}.cls-74{fill:#008bff;}.cls-75{fill:#008cff;}.cls-76{fill:#008dff;}.cls-77{fill:#008eff;}.cls-78{fill:#008fff;}.cls-79{fill:#0090ff;}.cls-80{fill:#00ceff;}.cls-81,.cls-83{fill:#00a7ff;}.cls-82,.cls-85{fill:none;stroke-miterlimit:10;}.cls-82{stroke:#00a7ff;}.cls-83{font-size:4.8px;}.cls-83,.cls-93,.cls-94{font-family:MyriadPro-Regular, Myriad Pro;}.cls-84{fill:#00b9ff;}.cls-85{stroke:#00b9ff;}.cls-86{fill:#00c344;}.cls-87,.cls-93,.cls-94{fill:#fff;}.cls-88{fill:#00afff;}.cls-89{fill:#b783ff;}.cls-90{fill:#fd616c;}.cls-91{fill:#09f;}.cls-92{fill:#e6f3ff;}.cls-93{font-size:4.59px;}.cls-94{font-size:2.65px;}.cls-95{letter-spacing:0em;}.cls-96{letter-spacing:0.01em;}</style></defs><g id="Landing-Page"><path class="cls-1" d="M64.82,79,2.43,43c-1.5-.87-1.5-2.27,0-3.13l25.9-15a6,6,0,0,1,5.42,0l62.4,36c1.5.86,1.5,2.27,0,3.13L70.25,79A6,6,0,0,1,64.82,79Z"/><path class="cls-2" d="M64.82,79l-62.39-36c-1.5-.86-1.5-2.27,0-3.13l25.9-14.95a6,6,0,0,1,5.42,0l62.4,36c1.5.86,1.5,2.27,0,3.13L70.25,79A6,6,0,0,1,64.82,79Z"/><path class="cls-3" d="M64.82,78.87l-62.39-36c-1.5-.86-1.5-2.26,0-3.13l25.9-14.95a6,6,0,0,1,5.42,0l62.4,36c1.5.87,1.5,2.27,0,3.13l-25.9,15A6,6,0,0,1,64.82,78.87Z"/><path class="cls-4" d="M64.82,78.78l-62.39-36c-1.5-.86-1.5-2.26,0-3.13l25.9-14.95a6,6,0,0,1,5.42,0l62.4,36c1.5.87,1.5,2.27,0,3.13l-25.9,15A6,6,0,0,1,64.82,78.78Z"/><path class="cls-5" d="M64.82,78.69l-62.39-36c-1.5-.87-1.5-2.27,0-3.14l25.9-15a6,6,0,0,1,5.42,0l62.4,36c1.5.87,1.5,2.27,0,3.14L70.25,78.69A6,6,0,0,1,64.82,78.69Z"/><path class="cls-6" d="M64.82,78.6l-62.39-36c-1.5-.87-1.5-2.27,0-3.14l25.9-14.95a6,6,0,0,1,5.42,0l62.4,36c1.5.86,1.5,2.26,0,3.13L70.25,78.6A6,6,0,0,1,64.82,78.6Z"/><path class="cls-7" d="M64.82,78.51l-62.39-36c-1.5-.87-1.5-2.27,0-3.13l25.9-15a6,6,0,0,1,5.42,0l62.4,36c1.5.86,1.5,2.26,0,3.13l-25.9,15A6,6,0,0,1,64.82,78.51Z"/><path class="cls-8" d="M64.82,78.42,2.43,42.4c-1.5-.86-1.5-2.27,0-3.13l25.9-15a6,6,0,0,1,5.42,0l62.4,36c1.5.86,1.5,2.27,0,3.13l-25.9,15A6,6,0,0,1,64.82,78.42Z"/><path class="cls-9" d="M64.82,78.34l-62.39-36c-1.5-.86-1.5-2.27,0-3.13l25.9-14.95a6,6,0,0,1,5.42,0l62.4,36c1.5.87,1.5,2.27,0,3.13l-25.9,15A6,6,0,0,1,64.82,78.34Z"/><path class="cls-10" d="M64.82,78.25l-62.39-36c-1.5-.86-1.5-2.26,0-3.13l25.9-15a6,6,0,0,1,5.42,0l62.4,36c1.5.87,1.5,2.27,0,3.13l-25.9,15A6,6,0,0,1,64.82,78.25Z"/><path class="cls-11" d="M64.82,78.16l-62.39-36c-1.5-.87-1.5-2.27,0-3.14l25.9-14.95a6,6,0,0,1,5.42,0l62.4,36c1.5.87,1.5,2.27,0,3.14L70.25,78.16A6,6,0,0,1,64.82,78.16Z"/><path class="cls-12" d="M64.82,78.07l-62.39-36c-1.5-.87-1.5-2.27,0-3.14L28.33,24a6,6,0,0,1,5.42,0l62.4,36c1.5.87,1.5,2.27,0,3.14L70.25,78.07A6,6,0,0,1,64.82,78.07Z"/><path class="cls-13" d="M64.82,78,2.43,42c-1.5-.87-1.5-2.27,0-3.13l25.9-15a6,6,0,0,1,5.42,0l62.4,36c1.5.86,1.5,2.26,0,3.13L70.25,78A6,6,0,0,1,64.82,78Z"/><path class="cls-14" d="M64.82,77.89l-62.39-36c-1.5-.87-1.5-2.27,0-3.13l25.9-15a6,6,0,0,1,5.42,0l62.4,36c1.5.86,1.5,2.27,0,3.13l-25.9,15A6,6,0,0,1,64.82,77.89Z"/><path class="cls-15" d="M64.82,77.8l-62.39-36c-1.5-.86-1.5-2.27,0-3.13L28.33,23.7a6,6,0,0,1,5.42,0l62.4,36c1.5.86,1.5,2.27,0,3.13L70.25,77.8A6,6,0,0,1,64.82,77.8Z"/><path class="cls-16" d="M64.82,77.72l-62.39-36c-1.5-.86-1.5-2.26,0-3.13l25.9-15a6,6,0,0,1,5.42,0l62.4,36c1.5.87,1.5,2.27,0,3.13l-25.9,15A6,6,0,0,1,64.82,77.72Z"/><path class="cls-17" d="M64.82,77.63,2.43,41.6c-1.5-.86-1.5-2.26,0-3.13l25.9-14.95a6,6,0,0,1,5.42,0l62.4,36c1.5.87,1.5,2.27,0,3.13l-25.9,15A6,6,0,0,1,64.82,77.63Z"/><path class="cls-18" d="M64.82,77.54l-62.39-36c-1.5-.87-1.5-2.27,0-3.14l25.9-15a6,6,0,0,1,5.42,0l62.4,36c1.5.87,1.5,2.27,0,3.14l-25.9,15A6,6,0,0,1,64.82,77.54Z"/><path class="cls-19" d="M64.82,77.45l-62.39-36c-1.5-.87-1.5-2.27,0-3.14l25.9-14.95a6,6,0,0,1,5.42,0l62.4,36c1.5.86,1.5,2.26,0,3.13l-25.9,15A6,6,0,0,1,64.82,77.45Z"/><path class="cls-20" d="M64.82,77.36l-62.39-36c-1.5-.87-1.5-2.27,0-3.13l25.9-15a6,6,0,0,1,5.42,0l62.4,36c1.5.86,1.5,2.26,0,3.13l-25.9,15A6,6,0,0,1,64.82,77.36Z"/><path class="cls-21" d="M64.82,77.27l-62.39-36c-1.5-.86-1.5-2.27,0-3.13l25.9-14.95a6,6,0,0,1,5.42,0l62.4,36c1.5.86,1.5,2.27,0,3.13L70.25,77.27A6,6,0,0,1,64.82,77.27Z"/><path class="cls-22" d="M64.82,77.19l-62.39-36c-1.5-.86-1.5-2.27,0-3.13l25.9-15a6,6,0,0,1,5.42,0l62.4,36c1.5.87,1.5,2.27,0,3.13l-25.9,15A6,6,0,0,1,64.82,77.19Z"/><path class="cls-23" d="M64.82,77.1l-62.39-36c-1.5-.86-1.5-2.26,0-3.13L28.33,23a6,6,0,0,1,5.42,0l62.4,36c1.5.87,1.5,2.27,0,3.13l-25.9,15A6,6,0,0,1,64.82,77.1Z"/><path class="cls-24" d="M64.82,77,2.43,41c-1.5-.87-1.5-2.27,0-3.14l25.9-15a6,6,0,0,1,5.42,0l62.4,36c1.5.87,1.5,2.27,0,3.14L70.25,77A6,6,0,0,1,64.82,77Z"/><path class="cls-25" d="M64.82,76.92,2.43,40.9c-1.5-.87-1.5-2.27,0-3.14l25.9-14.95a6,6,0,0,1,5.42,0l62.4,36c1.5.87,1.5,2.27,0,3.14l-25.9,15A6,6,0,0,1,64.82,76.92Z"/><path class="cls-26" d="M64.82,76.83l-62.39-36c-1.5-.87-1.5-2.27,0-3.13l25.9-15a6,6,0,0,1,5.42,0l62.4,36c1.5.86,1.5,2.26,0,3.13L70.25,76.83A6,6,0,0,1,64.82,76.83Z"/><path class="cls-27" d="M64.82,76.74l-62.39-36c-1.5-.87-1.5-2.27,0-3.13l25.9-15a6,6,0,0,1,5.42,0l62.4,36c1.5.86,1.5,2.27,0,3.13L70.25,76.74A6,6,0,0,1,64.82,76.74Z"/><path class="cls-28" d="M64.82,76.65l-62.39-36c-1.5-.86-1.5-2.27,0-3.13l25.9-14.95a6,6,0,0,1,5.42,0l62.4,36c1.5.86,1.5,2.27,0,3.13l-25.9,15A6,6,0,0,1,64.82,76.65Z"/><path class="cls-29" d="M64.82,76.57l-62.39-36c-1.5-.86-1.5-2.26,0-3.13l25.9-14.95a6,6,0,0,1,5.42,0l62.4,36c1.5.87,1.5,2.27,0,3.13l-25.9,15A6,6,0,0,1,64.82,76.57Z"/><path class="cls-30" d="M64.82,76.48l-62.39-36c-1.5-.86-1.5-2.26,0-3.13l25.9-14.95a6,6,0,0,1,5.42,0l62.4,36c1.5.87,1.5,2.27,0,3.13l-25.9,15A6,6,0,0,1,64.82,76.48Z"/><path class="cls-31" d="M64.82,76.39l-62.39-36c-1.5-.87-1.5-2.27,0-3.14l25.9-14.95a6,6,0,0,1,5.42,0l62.4,36c1.5.87,1.5,2.27,0,3.14l-25.9,15A6,6,0,0,1,64.82,76.39Z"/><path class="cls-32" d="M64.82,76.3l-62.39-36c-1.5-.87-1.5-2.27,0-3.14l25.9-14.95a6,6,0,0,1,5.42,0l62.4,36c1.5.86,1.5,2.26,0,3.13L70.25,76.3A6,6,0,0,1,64.82,76.3Z"/><path class="cls-33" d="M64.82,76.21l-62.39-36c-1.5-.87-1.5-2.27,0-3.13l25.9-15a6,6,0,0,1,5.42,0l62.4,36c1.5.86,1.5,2.26,0,3.13L70.25,76.21A6,6,0,0,1,64.82,76.21Z"/><path class="cls-34" d="M64.82,76.12,2.43,40.1c-1.5-.86-1.5-2.27,0-3.13L28.33,22a6,6,0,0,1,5.42,0l62.4,36c1.5.86,1.5,2.27,0,3.13l-25.9,15A6,6,0,0,1,64.82,76.12Z"/><path class="cls-35" d="M64.82,76,2.43,40c-1.5-.86-1.5-2.27,0-3.13l25.9-15a6,6,0,0,1,5.42,0l62.4,36c1.5.87,1.5,2.27,0,3.13L70.25,76A6,6,0,0,1,64.82,76Z"/><path class="cls-36" d="M64.82,76l-62.39-36c-1.5-.86-1.5-2.26,0-3.13l25.9-14.95a6,6,0,0,1,5.42,0l62.4,36c1.5.87,1.5,2.27,0,3.13L70.25,76A6,6,0,0,1,64.82,76Z"/><path class="cls-37" d="M64.82,75.86l-62.39-36c-1.5-.87-1.5-2.27,0-3.14l25.9-15a6,6,0,0,1,5.42,0l62.4,36c1.5.87,1.5,2.27,0,3.14l-25.9,15A6,6,0,0,1,64.82,75.86Z"/><path class="cls-38" d="M64.82,75.77l-62.39-36c-1.5-.87-1.5-2.27,0-3.14l25.9-14.95a6,6,0,0,1,5.42,0l62.4,36c1.5.87,1.5,2.27,0,3.14L70.25,75.77A6,6,0,0,1,64.82,75.77Z"/><path class="cls-39" d="M64.82,75.68l-62.39-36c-1.5-.87-1.5-2.27,0-3.13l25.9-15a6,6,0,0,1,5.42,0l62.4,36c1.5.86,1.5,2.26,0,3.13l-25.9,15A6,6,0,0,1,64.82,75.68Z"/><path class="cls-40" d="M64.82,75.59l-62.39-36c-1.5-.87-1.5-2.27,0-3.13l25.9-15a6,6,0,0,1,5.42,0l62.4,36c1.5.86,1.5,2.27,0,3.13l-25.9,15A6,6,0,0,1,64.82,75.59Z"/><path class="cls-40" d="M64.82,75.5l-62.39-36c-1.5-.86-1.5-2.27,0-3.13l25.9-15a6,6,0,0,1,5.42,0l62.4,36c1.5.86,1.5,2.27,0,3.13l-25.9,15A6,6,0,0,1,64.82,75.5Z"/><path class="cls-41" d="M64.82,75.42l-62.39-36c-1.5-.86-1.5-2.26,0-3.13l25.9-14.95a6,6,0,0,1,5.42,0l62.4,36c1.5.87,1.5,2.27,0,3.13l-25.9,15A6,6,0,0,1,64.82,75.42Z"/><path class="cls-42" d="M64.82,75.33,2.43,39.3c-1.5-.86-1.5-2.26,0-3.13l25.9-15a6,6,0,0,1,5.42,0l62.4,36c1.5.87,1.5,2.27,0,3.13l-25.9,15A6,6,0,0,1,64.82,75.33Z"/><path class="cls-43" d="M64.82,75.24l-62.39-36c-1.5-.87-1.5-2.27,0-3.14l25.9-14.95a6,6,0,0,1,5.42,0l62.4,36c1.5.87,1.5,2.27,0,3.14L70.25,75.24A6,6,0,0,1,64.82,75.24Z"/><path class="cls-44" d="M64.82,75.15l-62.39-36c-1.5-.87-1.5-2.27,0-3.14l25.9-15a6,6,0,0,1,5.42,0l62.4,36c1.5.86,1.5,2.26,0,3.13l-25.9,15A6,6,0,0,1,64.82,75.15Z"/><path class="cls-45" d="M64.82,75.06,2.43,39c-1.5-.87-1.5-2.27,0-3.13l25.9-15a6,6,0,0,1,5.42,0l62.4,36c1.5.86,1.5,2.26,0,3.13l-25.9,15A6,6,0,0,1,64.82,75.06Z"/><path class="cls-46" d="M64.82,75,2.43,39c-1.5-.86-1.5-2.27,0-3.13l25.9-14.95a6,6,0,0,1,5.42,0l62.4,36c1.5.86,1.5,2.27,0,3.13L70.25,75A6,6,0,0,1,64.82,75Z"/><path class="cls-47" d="M64.82,74.89l-62.39-36c-1.5-.86-1.5-2.27,0-3.13l25.9-14.95a6,6,0,0,1,5.42,0l62.4,36c1.5.87,1.5,2.27,0,3.13l-25.9,15A6,6,0,0,1,64.82,74.89Z"/><path class="cls-48" d="M64.82,74.8l-62.39-36c-1.5-.86-1.5-2.26,0-3.13l25.9-14.95a6,6,0,0,1,5.42,0l62.4,36c1.5.87,1.5,2.27,0,3.13l-25.9,15A6,6,0,0,1,64.82,74.8Z"/><path class="cls-49" d="M64.82,74.71l-62.39-36c-1.5-.86-1.5-2.26,0-3.13L28.33,20.6a6,6,0,0,1,5.42,0l62.4,36c1.5.87,1.5,2.27,0,3.14L70.25,74.71A6,6,0,0,1,64.82,74.71Z"/><path class="cls-50" d="M64.82,74.62,2.43,38.6c-1.5-.87-1.5-2.27,0-3.14l25.9-14.95a6,6,0,0,1,5.42,0l62.4,36c1.5.87,1.5,2.27,0,3.14l-25.9,15A6,6,0,0,1,64.82,74.62Z"/><path class="cls-51" d="M64.82,74.53l-62.39-36c-1.5-.87-1.5-2.27,0-3.13l25.9-15a6,6,0,0,1,5.42,0l62.4,36c1.5.86,1.5,2.26,0,3.13l-25.9,15A6,6,0,0,1,64.82,74.53Z"/><path class="cls-52" d="M64.82,74.44l-62.39-36c-1.5-.87-1.5-2.27,0-3.13l25.9-15a6,6,0,0,1,5.42,0l62.4,36c1.5.86,1.5,2.27,0,3.13L70.25,74.44A6,6,0,0,1,64.82,74.44Z"/><path class="cls-53" d="M64.82,74.35l-62.39-36c-1.5-.86-1.5-2.27,0-3.13l25.9-15a6,6,0,0,1,5.42,0l62.4,36c1.5.86,1.5,2.27,0,3.13L70.25,74.35A6,6,0,0,1,64.82,74.35Z"/><path class="cls-54" d="M64.82,74.27l-62.39-36c-1.5-.86-1.5-2.26,0-3.13l25.9-14.95a6,6,0,0,1,5.42,0l62.4,36c1.5.87,1.5,2.27,0,3.13l-25.9,15A6,6,0,0,1,64.82,74.27Z"/><path class="cls-55" d="M64.82,74.18l-62.39-36c-1.5-.86-1.5-2.26,0-3.13l25.9-15a6,6,0,0,1,5.42,0l62.4,36c1.5.87,1.5,2.27,0,3.13l-25.9,15A6,6,0,0,1,64.82,74.18Z"/><path class="cls-56" d="M64.82,74.09l-62.39-36c-1.5-.87-1.5-2.27,0-3.14L28.33,20a6,6,0,0,1,5.42,0l62.4,36c1.5.87,1.5,2.27,0,3.14l-25.9,15A6,6,0,0,1,64.82,74.09Z"/><path class="cls-57" d="M64.82,74,2.43,38c-1.5-.87-1.5-2.27,0-3.14l25.9-15a6,6,0,0,1,5.42,0l62.4,36c1.5.86,1.5,2.26,0,3.13L70.25,74A6,6,0,0,1,64.82,74Z"/><path class="cls-58" d="M64.82,73.91l-62.39-36c-1.5-.87-1.5-2.27,0-3.13l25.9-15a6,6,0,0,1,5.42,0l62.4,36c1.5.86,1.5,2.26,0,3.13L70.25,73.91A6,6,0,0,1,64.82,73.91Z"/><path class="cls-59" d="M64.82,73.82,2.43,37.8c-1.5-.86-1.5-2.27,0-3.13l25.9-15a6,6,0,0,1,5.42,0l62.4,36c1.5.86,1.5,2.27,0,3.13L70.25,73.82A6,6,0,0,1,64.82,73.82Z"/><path class="cls-60" d="M64.82,73.74l-62.39-36c-1.5-.86-1.5-2.27,0-3.13l25.9-14.95a6,6,0,0,1,5.42,0l62.4,36c1.5.87,1.5,2.27,0,3.13l-25.9,15A6,6,0,0,1,64.82,73.74Z"/><path class="cls-61" d="M64.82,73.65l-62.39-36c-1.5-.86-1.5-2.26,0-3.13l25.9-15a6,6,0,0,1,5.42,0l62.4,36c1.5.87,1.5,2.27,0,3.13l-25.9,15A6,6,0,0,1,64.82,73.65Z"/><path class="cls-62" d="M64.82,73.56l-62.39-36c-1.5-.86-1.5-2.26,0-3.13l25.9-14.95a6,6,0,0,1,5.42,0l62.4,36c1.5.87,1.5,2.27,0,3.14l-25.9,15A6,6,0,0,1,64.82,73.56Z"/><path class="cls-63" d="M64.82,73.47l-62.39-36c-1.5-.87-1.5-2.27,0-3.14l25.9-15a6,6,0,0,1,5.42,0l62.4,36c1.5.87,1.5,2.27,0,3.14L70.25,73.47A6,6,0,0,1,64.82,73.47Z"/><path class="cls-64" d="M64.82,73.38l-62.39-36c-1.5-.87-1.5-2.27,0-3.13l25.9-15a6,6,0,0,1,5.42,0l62.4,36c1.5.86,1.5,2.26,0,3.13L70.25,73.38A6,6,0,0,1,64.82,73.38Z"/><path class="cls-65" d="M64.82,73.29l-62.39-36c-1.5-.87-1.5-2.27,0-3.13l25.9-15a6,6,0,0,1,5.42,0l62.4,36c1.5.86,1.5,2.27,0,3.13l-25.9,15A6,6,0,0,1,64.82,73.29Z"/><path class="cls-66" d="M64.82,73.2l-62.39-36c-1.5-.86-1.5-2.27,0-3.13L28.33,19.1a6,6,0,0,1,5.42,0l62.4,36c1.5.86,1.5,2.27,0,3.13l-25.9,15A6,6,0,0,1,64.82,73.2Z"/><path class="cls-67" d="M64.82,73.12l-62.39-36c-1.5-.86-1.5-2.26,0-3.13L28.33,19a6,6,0,0,1,5.42,0l62.4,36c1.5.87,1.5,2.27,0,3.13l-25.9,15A6,6,0,0,1,64.82,73.12Z"/><path class="cls-68" d="M64.82,73,2.43,37c-1.5-.86-1.5-2.26,0-3.13l25.9-14.95a6,6,0,0,1,5.42,0l62.4,36c1.5.87,1.5,2.27,0,3.13L70.25,73A6,6,0,0,1,64.82,73Z"/><path class="cls-69" d="M64.82,72.94l-62.39-36c-1.5-.87-1.5-2.27,0-3.14l25.9-15a6,6,0,0,1,5.42,0l62.4,36c1.5.87,1.5,2.27,0,3.14L70.25,72.94A6,6,0,0,1,64.82,72.94Z"/><path class="cls-70" d="M64.82,72.85l-62.39-36c-1.5-.87-1.5-2.27,0-3.14l25.9-14.95a6,6,0,0,1,5.42,0l62.4,36c1.5.86,1.5,2.26,0,3.13L70.25,72.85A6,6,0,0,1,64.82,72.85Z"/><path class="cls-71" d="M64.82,72.76l-62.39-36c-1.5-.87-1.5-2.27,0-3.13l25.9-15a6,6,0,0,1,5.42,0l62.4,36c1.5.86,1.5,2.26,0,3.13l-25.9,15A6,6,0,0,1,64.82,72.76Z"/><path class="cls-72" d="M64.82,72.67l-62.39-36c-1.5-.86-1.5-2.27,0-3.13l25.9-15a6,6,0,0,1,5.42,0l62.4,36c1.5.86,1.5,2.27,0,3.13l-25.9,15A6,6,0,0,1,64.82,72.67Z"/><path class="cls-73" d="M64.82,72.59l-62.39-36c-1.5-.86-1.5-2.27,0-3.13l25.9-14.95a6,6,0,0,1,5.42,0l62.4,36c1.5.86,1.5,2.27,0,3.13l-25.9,15A6,6,0,0,1,64.82,72.59Z"/><path class="cls-74" d="M64.82,72.5l-62.39-36c-1.5-.86-1.5-2.26,0-3.13l25.9-15a6,6,0,0,1,5.42,0l62.4,36c1.5.87,1.5,2.27,0,3.13l-25.9,15A6,6,0,0,1,64.82,72.5Z"/><path class="cls-75" d="M64.82,72.41l-62.39-36c-1.5-.86-1.5-2.26,0-3.13L28.33,18.3a6,6,0,0,1,5.42,0l62.4,36c1.5.87,1.5,2.27,0,3.14L70.25,72.41A6,6,0,0,1,64.82,72.41Z"/><path class="cls-76" d="M64.82,72.32,2.43,36.3c-1.5-.87-1.5-2.27,0-3.14l25.9-14.95a6,6,0,0,1,5.42,0l62.4,36c1.5.87,1.5,2.27,0,3.14L70.25,72.32A6,6,0,0,1,64.82,72.32Z"/><path class="cls-77" d="M64.82,72.23l-62.39-36c-1.5-.87-1.5-2.27,0-3.13l25.9-15a6,6,0,0,1,5.42,0l62.4,36c1.5.86,1.5,2.26,0,3.13l-25.9,15A6,6,0,0,1,64.82,72.23Z"/><path class="cls-78" d="M64.82,72.14l-62.39-36c-1.5-.87-1.5-2.27,0-3.13l25.9-15a6,6,0,0,1,5.42,0l62.4,36c1.5.86,1.5,2.27,0,3.13l-25.9,15A6,6,0,0,1,64.82,72.14Z"/><path class="cls-79" d="M64.82,72.05,2.43,36c-1.5-.86-1.5-2.27,0-3.13L28.33,18a6,6,0,0,1,5.42,0l62.4,36c1.5.86,1.5,2.27,0,3.13L70.25,72.05A6,6,0,0,1,64.82,72.05Z"/><path class="cls-80" d="M62.85,69.54,4.44,35.82C3,35,3,33.71,4.42,32.92l24.07-13.7a5.63,5.63,0,0,1,5.06,0L92,53c1.4.81,1.41,2.11,0,2.9L67.91,69.58A5.63,5.63,0,0,1,62.85,69.54Z"/><ellipse class="cls-81" cx="19.77" cy="25.82" rx="1.98" ry="1.12" transform="translate(-2.98 2.58) rotate(-6.95)"/><ellipse class="cls-26" cx="19.77" cy="25.82" rx="0.89" ry="0.51" transform="translate(-2.98 2.58) rotate(-6.95)"/><path class="cls-81" d="M67.92,67.57h0a.36.36,0,0,1-.32,0l-2.39-1.38c-.09-.06-.1-.14,0-.19h0a.33.33,0,0,1,.32,0l2.39,1.38C68,67.44,68,67.52,67.92,67.57Z"/><path class="cls-81" d="M68.84,67h0a.36.36,0,0,1-.32,0l-2.4-1.38c-.09-.06-.1-.14,0-.19h0a.36.36,0,0,1,.32,0l2.39,1.38C68.91,66.91,68.92,67,68.84,67Z"/><path class="cls-81" d="M69.75,66.52h0a.36.36,0,0,1-.32,0L67,65.12c-.1-.05-.11-.14,0-.18h0a.36.36,0,0,1,.32,0l2.4,1.38C69.82,66.39,69.83,66.47,69.75,66.52Z"/><path class="cls-82" d="M78.28,61.32l-1,.59a1.21,1.21,0,0,1-1.09,0L75,61.19c-.32-.19-.36-.47-.08-.63L76,60A1.23,1.23,0,0,1,77,60l1.16.68C78.52,60.88,78.56,61.16,78.28,61.32Z"/><text class="cls-83" transform="matrix(0.75, -0.43, 0.87, 0.5, 86.36, 56.76)">&lt;</text><path class="cls-81" d="M28.11,21.92h0a.24.24,0,0,1-.22,0l-.35-.2c-.07,0-.08-.1,0-.13h0a.25.25,0,0,1,.22,0l.35.2C28.16,21.83,28.17,21.89,28.11,21.92Z"/><path class="cls-81" d="M28.4,21.75h0a.22.22,0,0,1-.22,0l-.63-.36c-.06,0-.07-.09,0-.13h0a.28.28,0,0,1,.22,0l.63.37C28.45,21.66,28.46,21.72,28.4,21.75Z"/><path class="cls-81" d="M28.7,21.58h0a.24.24,0,0,1-.22,0L27.55,21c-.07,0-.08-.09,0-.12h0a.22.22,0,0,1,.22,0l.93.53C28.75,21.49,28.75,21.55,28.7,21.58Z"/><path class="cls-81" d="M29,21.42h0a.25.25,0,0,1-.22,0l-1.22-.7c-.06,0-.07-.1,0-.13h0a.22.22,0,0,1,.21,0l1.22.7C29,21.33,29,21.39,29,21.42Z"/><path class="cls-81" d="M29.28,21.24h0a.22.22,0,0,1-.22,0l-1.51-.87c-.06,0-.07-.09,0-.13h0a.26.26,0,0,1,.21,0l1.52.88C29.33,21.15,29.34,21.21,29.28,21.24Z"/><ellipse class="cls-81" cx="66.2" cy="53.28" rx="0.63" ry="0.4" transform="translate(-5.96 8.4) rotate(-6.95)"/><polygon class="cls-81" points="65.32 54.46 64.55 54.91 63.65 54.39 64.42 53.94 65.32 54.46"/><polygon class="cls-81" points="63.65 54.39 64.42 53.94 63.51 53.86 63.65 54.39"/><polygon class="cls-84" points="31.49 20.01 30.63 20.51 29.12 19.64 29.99 19.14 31.49 20.01"/><polygon class="cls-84" points="29.77 19.27 29.34 19.52 29.09 19.38 29.52 19.13 29.77 19.27"/><polygon class="cls-81" points="31.5 20.02 30.63 20.52 29.52 19.88 30.39 19.37 31.5 20.02"/><ellipse class="cls-84" cx="25.94" cy="23.14" rx="0.14" ry="0.25" transform="translate(-0.17 46.09) rotate(-83.05)"/><path class="cls-85" d="M25.19,23.11a.29.29,0,0,1,.18-.3,1,1,0,0,1,.53-.11"/><path class="cls-85" d="M24.43,23.08a.61.61,0,0,1,.36-.6,2,2,0,0,1,1.05-.21"/><path class="cls-85" d="M23.68,23.05a.91.91,0,0,1,.54-.91,3.09,3.09,0,0,1,1.57-.31"/><path class="cls-84" d="M27,22.56h-.07l-.53-.3a0,0,0,0,1,0,0h0a0,0,0,0,1,.05,0l.52.3S27,22.55,27,22.56Z"/><path class="cls-84" d="M27,22.55h0s0,0-.08,0l-.29-.05s-.07,0-.06-.06h0a.07.07,0,0,1,.08,0l.3.06S27,22.53,27,22.55Z"/><path class="cls-84" d="M26.9,22.58h0a.11.11,0,0,1-.09,0l-.09-.17s0,0,0,0h0a.08.08,0,0,1,.09,0l.1.17S26.94,22.57,26.9,22.58Z"/><path class="cls-84" d="M26.65,22.07h0s.05,0,.07,0l.5.29a0,0,0,0,1,0,0h0a.06.06,0,0,1-.07,0l-.5-.29S26.64,22.08,26.65,22.07Z"/><path class="cls-84" d="M26.64,22.08h0s0,0,.08,0l.29.05s.07,0,.06.06h0a.07.07,0,0,1-.08,0l-.3-.06S26.63,22.1,26.64,22.08Z"/><path class="cls-84" d="M26.69,22.05h0a.11.11,0,0,1,.09,0l.09.17s0,0,0,0h0a.08.08,0,0,1-.09,0l-.1-.17S26.65,22.06,26.69,22.05Z"/><path class="cls-86" d="M64.09,64l-2.26,1.31a2.74,2.74,0,0,1-2.44-.1l-2.62-1.51c-.72-.42-.8-1-.18-1.41L58.86,61a2.74,2.74,0,0,1,2.44.1l2.62,1.51C64.64,63,64.72,63.62,64.09,64Z"/><path class="cls-87" d="M62.3,62.79l-.77,0c-.27,0-.43.15-.29.29s0,.21-.1.26a2.91,2.91,0,0,1-1.43-.06c-.17,0-.24-.18-.17-.27s-.09-.31-.36-.32l-.77,0c-.21,0-.36.09-.35.2l0,.3c0,.31,1.1.6,2.39.66s2.28-.15,2.24-.47l0-.3C62.67,62.9,62.49,62.8,62.3,62.79Z"/><path class="cls-88" d="M70.92,60,68.65,61.3a2.71,2.71,0,0,1-2.44-.1L63.6,59.69c-.72-.41-.8-1-.18-1.41L65.69,57a2.74,2.74,0,0,1,2.44.1l2.61,1.51C71.46,59,71.54,59.63,70.92,60Z"/><path class="cls-87" d="M69.21,59l-2.15,1.24a1.35,1.35,0,0,1-1.22,0l-1.17-.68c-.36-.21-.4-.52-.09-.7l2.15-1.24a1.35,1.35,0,0,1,1.22,0l1.17.67C69.48,58.45,69.52,58.77,69.21,59Z"/><polygon class="cls-87" points="66.18 59.7 68.08 59.44 67.87 60.72 66.18 59.7"/><path class="cls-89" d="M77.69,56.13l-2.27,1.31a2.71,2.71,0,0,1-2.44-.1l-2.62-1.51c-.72-.41-.8-1-.17-1.41l2.26-1.31a2.74,2.74,0,0,1,2.44.1l2.62,1.51C78.23,55.14,78.31,55.77,77.69,56.13Z"/><path class="cls-87" d="M72.3,54.32h0c-.79.45-.7,1.24.21,1.77a3.17,3.17,0,0,0,.75.3,3.81,3.81,0,0,0,1.64.07,2.15,2.15,0,0,0,.69-.25h0c.79-.45.67-1.25-.23-1.77A3.42,3.42,0,0,0,72.3,54.32Zm0,.3a1,1,0,0,0,.2.51l-.39.22A.66.66,0,0,1,72.25,54.62Zm-.11.91.43-.25a1.84,1.84,0,0,0,.47.39l-.46.27A1.46,1.46,0,0,1,72.14,55.53Zm1.37.78a2.71,2.71,0,0,1-.74-.26l.47-.26a4.32,4.32,0,0,0,.69.28Zm.3,0,.38-.22a4.51,4.51,0,0,0,.89.11A2.94,2.94,0,0,1,73.81,56.36Zm-.41-.67.55-.32.59.35-.43.24A3.36,3.36,0,0,1,73.4,55.69Zm1.82.42a4.78,4.78,0,0,1-.84-.08l.35-.2.49.28Zm-1.46-.85-.55.32a1.84,1.84,0,0,1-.46-.4l.43-.25ZM73,54.82l-.34.2a.88.88,0,0,1-.14-.48Zm1.39-.58a3.4,3.4,0,0,1,.72.25l-.45.27a3.73,3.73,0,0,0-.68-.28Zm-.3-.05-.38.22a3.8,3.8,0,0,0-.89-.11A2.94,2.94,0,0,1,74.07,54.19Zm-1.4.25a4.58,4.58,0,0,1,.83.08l-.35.2Zm.67.39.44-.25a3.81,3.81,0,0,1,.69.27l-.55.32Zm1.32.13a2.23,2.23,0,0,1,.48.41l-.43.25-.6-.34Zm.72,1-.48-.28.35-.2A.87.87,0,0,1,75.38,56Zm.26-.08a1.21,1.21,0,0,0-.2-.51l.37-.22A.66.66,0,0,1,75.64,55.93Zm-.32-.66a2.19,2.19,0,0,0-.49-.4l.45-.27a1.55,1.55,0,0,1,.45.43Z"/><path class="cls-90" d="M84.53,52.31l-2.26,1.31a2.76,2.76,0,0,1-2.45-.11L77.21,52c-.72-.41-.8-1-.18-1.41l2.27-1.3a2.71,2.71,0,0,1,2.44.1l2.62,1.51C85.08,51.31,85.15,52,84.53,52.31Z"/><path class="cls-87" d="M80.47,50.23l-.11.74,2.16-.11a3,3,0,0,0-.32-.23,3.4,3.4,0,0,0-1.73-.4Z"/><path class="cls-87" d="M80.22,50.24a2.54,2.54,0,0,0-.92.27,1,1,0,0,0-.49.58l1.22.4Z"/><path class="cls-87" d="M78.8,51.24a1.19,1.19,0,0,0,.71.95,3.22,3.22,0,0,0,.46.21l.87-.5Z"/><path class="cls-87" d="M80.21,52.47a3.15,3.15,0,0,0,2.14-.13l-.69-.71Z"/><path class="cls-87" d="M82.51,52.24A.76.76,0,0,0,82.65,51l-1.29.06Z"/><rect class="cls-91" x="81.18" y="67.13" width="6.09" height="2.09" rx="0.99" transform="translate(-22.8 51.25) rotate(-30)"/><rect class="cls-91" x="4.34" y="41.98" width="12.26" height="2.09" rx="1" transform="translate(22.92 0.53) rotate(30)"/><rect class="cls-91" x="18.12" y="48.21" width="6.27" height="2.09" rx="1" transform="translate(27.48 -4.03) rotate(30)"/><path class="cls-92" d="M19.07,34a2.41,2.41,0,0,0-1.51.19.93.93,0,0,0-.29.26,2.32,2.32,0,0,0-1.82.06.7.7,0,0,0-.37.46,2.9,2.9,0,0,0-1.72.27c-.76.44-.66,1.2.21,1.7l.18.1c-.2.3-.05.69.43,1h0a2.31,2.31,0,0,0,2.09.09l4.54-2.62c.53-.31.46-.85-.15-1.21h0A2.47,2.47,0,0,0,19.07,34Z"/><text class="cls-93" transform="matrix(0.75, -0.43, 0.87, 0.5, 22.59, 34.32)">3 </text><text class="cls-94" transform="matrix(0.65, -0.38, 0.87, 0.5, 23.29, 32.35)">ยบ</text><text class="cls-93" transform="matrix(0.75, -0.43, 0.87, 0.5, 19.9, 41.15)"><tspan class="cls-95">C</tspan><tspan x="2.65" y="0">i</tspan><tspan class="cls-96" x="3.72" y="0">t</tspan><tspan x="5.28" y="0">y</tspan></text><path class="cls-84" d="M8.8,32.8l-1.37.79a.84.84,0,0,1-.77,0l-.74-.42c-.23-.14-.26-.34-.06-.45l1.36-.79a.89.89,0,0,1,.78,0l.74.43C9,32.48,9,32.68,8.8,32.8Z"/><polygon class="cls-84" points="6.88 33.28 8.08 33.11 7.95 33.92 6.88 33.28"/></g></svg>