<svg xmlns="http://www.w3.org/2000/svg" viewBox="0 0 43.24 28"><defs><style>.cls-1{fill:#fff;}</style></defs><g id="Layer_2" data-name="Layer 2"><g id="Hardware_Icon"><path class="cls-1" d="M4.84,34A.79.79,0,0,1,4,33.2V6.8A.82.82,0,0,1,4.8,6H15.36a8.72,8.72,0,0,1,4.14.94,7.07,7.07,0,0,1,2.78,2.58,7,7,0,0,1,1,3.72,8.07,8.07,0,0,1-.66,3.32A6.59,6.59,0,0,1,20.78,19a7.45,7.45,0,0,1-2.7,1.42l-1.84-.32a6,6,0,0,1,3,.82,6.4,6.4,0,0,1,2.36,2.4,7.58,7.58,0,0,1,.92,3.86,18.4,18.4,0,0,0,.18,3,4.38,4.38,0,0,0,.48,1.5,2.57,2.57,0,0,0,.7.76,1.06,1.06,0,0,1,.36.4.81.81,0,0,1,0,.56.74.74,0,0,1-.26.38,1,1,0,0,1-.38.18.66.66,0,0,1-.44-.08,4.14,4.14,0,0,1-1.1-1,5.2,5.2,0,0,1-.9-2,15.07,15.07,0,0,1-.36-3.76,6.54,6.54,0,0,0-.58-3,4.49,4.49,0,0,0-1.48-1.72,5.2,5.2,0,0,0-1.92-.8,10,10,0,0,0-1.86-.2H5.32L5.68,21V33.2a.77.77,0,0,1-.24.56A.81.81,0,0,1,4.84,34Zm.44-14.12H15.56a7.27,7.27,0,0,0,3-1,6.19,6.19,0,0,0,2.22-2.24,6.53,6.53,0,0,0,.86-3.4,5.31,5.31,0,0,0-1.74-4.06,6.63,6.63,0,0,0-4.7-1.62H5.48l.2-.28v13Z" transform="translate(-4 -6)"/><path class="cls-1" d="M31.36,34a.75.75,0,0,1-.58-.24.79.79,0,0,1-.22-.56V6.8a.82.82,0,0,1,.8-.8H46.44a.82.82,0,0,1,.8.8.75.75,0,0,1-.24.58.79.79,0,0,1-.56.22H32l.12-.16V19L32,18.64H44.64a.82.82,0,0,1,.8.8.75.75,0,0,1-.24.58.79.79,0,0,1-.56.22H31.92l.24-.32V33.2a.79.79,0,0,1-.22.56A.75.75,0,0,1,31.36,34Z" transform="translate(-4 -6)"/></g></g></svg>