<svg xmlns="http://www.w3.org/2000/svg" viewBox="0 0 129.48 78.42"><defs><style>.cls-1,.cls-238{fill:#fff;}.cls-189,.cls-190,.cls-192,.cls-2,.cls-243{fill:#0043ff;}.cls-3,.cls-4{fill:#2500bf;}.cls-3{stroke:#002f44;}.cls-10,.cls-100,.cls-101,.cls-102,.cls-103,.cls-104,.cls-105,.cls-106,.cls-107,.cls-108,.cls-109,.cls-11,.cls-110,.cls-111,.cls-112,.cls-113,.cls-114,.cls-115,.cls-116,.cls-117,.cls-118,.cls-119,.cls-12,.cls-120,.cls-121,.cls-122,.cls-123,.cls-124,.cls-125,.cls-126,.cls-127,.cls-128,.cls-129,.cls-130,.cls-131,.cls-132,.cls-133,.cls-134,.cls-135,.cls-136,.cls-137,.cls-138,.cls-139,.cls-14,.cls-140,.cls-141,.cls-142,.cls-143,.cls-144,.cls-145,.cls-146,.cls-147,.cls-148,.cls-149,.cls-15,.cls-150,.cls-151,.cls-152,.cls-153,.cls-154,.cls-155,.cls-156,.cls-157,.cls-158,.cls-159,.cls-16,.cls-160,.cls-161,.cls-162,.cls-163,.cls-164,.cls-165,.cls-166,.cls-167,.cls-168,.cls-169,.cls-17,.cls-170,.cls-171,.cls-172,.cls-173,.cls-174,.cls-175,.cls-176,.cls-177,.cls-178,.cls-179,.cls-18,.cls-180,.cls-181,.cls-182,.cls-183,.cls-184,.cls-185,.cls-186,.cls-187,.cls-188,.cls-189,.cls-19,.cls-190,.cls-191,.cls-192,.cls-21,.cls-22,.cls-23,.cls-239,.cls-24,.cls-243,.cls-25,.cls-26,.cls-27,.cls-271,.cls-28,.cls-282,.cls-29,.cls-3,.cls-30,.cls-32,.cls-34,.cls-35,.cls-36,.cls-37,.cls-38,.cls-39,.cls-4,.cls-40,.cls-41,.cls-42,.cls-43,.cls-44,.cls-45,.cls-46,.cls-47,.cls-48,.cls-49,.cls-50,.cls-51,.cls-52,.cls-53,.cls-54,.cls-55,.cls-56,.cls-57,.cls-58,.cls-59,.cls-6,.cls-60,.cls-61,.cls-62,.cls-63,.cls-64,.cls-65,.cls-66,.cls-67,.cls-68,.cls-69,.cls-7,.cls-70,.cls-71,.cls-72,.cls-73,.cls-74,.cls-75,.cls-76,.cls-77,.cls-78,.cls-79,.cls-8,.cls-80,.cls-81,.cls-82,.cls-83,.cls-84,.cls-85,.cls-86,.cls-87,.cls-88,.cls-89,.cls-9,.cls-90,.cls-91,.cls-92,.cls-93,.cls-94,.cls-95,.cls-96,.cls-97,.cls-98,.cls-99{stroke-miterlimit:10;}.cls-4{stroke:#002f45;}.cls-5{fill:#2501c0;stroke:#002f46;}.cls-20,.cls-33,.cls-5{stroke-miterlimit:10;}.cls-6,.cls-7{fill:#2401c0;}.cls-6{stroke:#002f47;}.cls-7{stroke:#002f48;}.cls-8,.cls-9{fill:#2402c1;}.cls-8{stroke:#002f49;}.cls-9{stroke:#002f4a;}.cls-10{fill:#2403c1;stroke:#002f4b;}.cls-11,.cls-12{fill:#2303c2;}.cls-11{stroke:#002f4c;}.cls-12{stroke:#002f4d;}.cls-13{fill:#2304c2;stroke:#002f4e;}.cls-13,.cls-31{stroke-miterlimit:10;}.cls-14,.cls-15{fill:#2304c3;}.cls-14{stroke:#002f4f;}.cls-15{stroke:#002f50;}.cls-16{fill:#2205c3;stroke:#002f51;}.cls-17,.cls-18{fill:#2205c4;}.cls-17{stroke:#002f52;}.cls-18{stroke:#002f53;}.cls-19{fill:#2206c4;stroke:#002f54;}.cls-20{fill:#2206c5;stroke:#002f55;}.cls-21{fill:#2106c5;stroke:#002f56;}.cls-22,.cls-23{fill:#2107c6;}.cls-22{stroke:#002f57;}.cls-23{stroke:#002f58;}.cls-24{fill:#2108c6;stroke:#002f59;}.cls-25{fill:#2108c7;stroke:#002f5a;}.cls-26{fill:#2008c7;stroke:#002f5b;}.cls-27{fill:#2009c7;stroke:#002f5c;}.cls-28,.cls-29{fill:#2009c8;}.cls-28{stroke:#002f5d;}.cls-29{stroke:#002f5e;}.cls-30{fill:#200ac8;stroke:#002f5f;}.cls-31,.cls-32{fill:#1f0ac9;}.cls-31{stroke:#002f60;}.cls-32{stroke:#002f61;}.cls-33{fill:#1f0bc9;stroke:#002f62;}.cls-34,.cls-35{fill:#1f0bca;}.cls-34{stroke:#002f63;}.cls-35{stroke:#002f64;}.cls-36{fill:#1e0cca;stroke:#002f65;}.cls-37{fill:#1e0ccb;stroke:#002f66;}.cls-38,.cls-39{fill:#1e0dcb;}.cls-38{stroke:#002f67;}.cls-39{stroke:#002f68;}.cls-40{fill:#1e0dcc;stroke:#002f69;}.cls-41,.cls-42{fill:#1d0ecc;}.cls-41{stroke:#002f6a;}.cls-42{stroke:#002f6b;}.cls-43{fill:#1d0ecd;stroke:#002f6c;}.cls-44,.cls-45{fill:#1d0fcd;}.cls-44{stroke:#002f6d;}.cls-45{stroke:#002f6e;}.cls-46{fill:#1c0fce;stroke:#002f6f;}.cls-47,.cls-48{fill:#1c10ce;}.cls-47{stroke:#002f70;}.cls-48{stroke:#002f71;}.cls-49{fill:#1c10cf;stroke:#002f72;}.cls-50,.cls-51{fill:#1c11cf;}.cls-50{stroke:#002f73;}.cls-51{stroke:#002f74;}.cls-52,.cls-53,.cls-54{fill:#1b12d0;}.cls-52{stroke:#002f75;}.cls-53{stroke:#002f76;}.cls-54{stroke:#002f77;}.cls-55,.cls-56{fill:#1b13d1;}.cls-55{stroke:#002f78;}.cls-56{stroke:#002f79;}.cls-57{fill:#1a13d1;stroke:#002f7a;}.cls-58,.cls-59{fill:#1a14d2;}.cls-58{stroke:#002f7b;}.cls-59{stroke:#002f7c;}.cls-60{fill:#1a14d3;stroke:#002f7d;}.cls-61{fill:#1a15d3;stroke:#002f7e;}.cls-62{fill:#1915d3;stroke:#002f7f;}.cls-63{fill:#1915d4;stroke:#002f80;}.cls-64,.cls-65{fill:#1916d4;}.cls-64{stroke:#002f81;}.cls-65{stroke:#002f82;}.cls-66{fill:#1917d5;stroke:#002f83;}.cls-67,.cls-68{fill:#1817d5;}.cls-67{stroke:#002f84;}.cls-68{stroke:#002f85;}.cls-69,.cls-70,.cls-71{fill:#1818d6;}.cls-69{stroke:#002f86;}.cls-70{stroke:#002f87;}.cls-71{stroke:#002f88;}.cls-72,.cls-73,.cls-74{fill:#1719d7;}.cls-72{stroke:#002f89;}.cls-73{stroke:#002f8a;}.cls-74{stroke:#002f8b;}.cls-75,.cls-76{fill:#171ad8;}.cls-75{stroke:#002f8c;}.cls-76{stroke:#002f8d;}.cls-77{fill:#161bd8;stroke:#002f8e;}.cls-78,.cls-79{fill:#161bd9;}.cls-78{stroke:#002f8f;}.cls-79{stroke:#002f90;}.cls-80{fill:#161cd9;stroke:#002f91;}.cls-81{fill:#161cda;stroke:#002f92;}.cls-82{fill:#151cda;stroke:#002f93;}.cls-83{fill:#151dda;stroke:#002f94;}.cls-84,.cls-85{fill:#151ddb;}.cls-84{stroke:#002f95;}.cls-85{stroke:#002f96;}.cls-86{fill:#151edb;stroke:#002f97;}.cls-87,.cls-88{fill:#141edc;}.cls-87{stroke:#002f98;}.cls-88{stroke:#002f99;}.cls-89{fill:#141fdc;stroke:#002f9a;}.cls-90{fill:#141fdd;stroke:#002f9b;}.cls-91{fill:#1420dd;stroke:#002f9c;}.cls-92{fill:#1320dd;stroke:#002f9d;}.cls-93{fill:#1320de;stroke:#002f9e;}.cls-94,.cls-95{fill:#1321de;}.cls-94{stroke:#002f9f;}.cls-95{stroke:#002fa0;}.cls-96{fill:#1321df;stroke:#002fa1;}.cls-97{fill:#1222df;stroke:#002fa2;}.cls-98,.cls-99{fill:#1222e0;}.cls-98{stroke:#002fa3;}.cls-99{stroke:#002fa4;}.cls-100{fill:#1223e0;stroke:#002fa5;}.cls-101{fill:#1223e1;stroke:#002fa6;}.cls-102{fill:#1123e1;stroke:#002fa7;}.cls-103{fill:#1124e1;stroke:#002fa8;}.cls-104{fill:#1124e2;stroke:#002fa9;}.cls-105,.cls-106{fill:#1125e2;}.cls-105{stroke:#002faa;}.cls-106{stroke:#002fab;}.cls-107{fill:#1025e3;stroke:#002fac;}.cls-108,.cls-109{fill:#1026e3;}.cls-108{stroke:#002fad;}.cls-109{stroke:#002fae;}.cls-110{fill:#1026e4;stroke:#002faf;}.cls-111{fill:#1027e4;stroke:#002fb0;}.cls-112{fill:#0f27e4;stroke:#002fb1;}.cls-113{fill:#0f27e5;stroke:#002fb2;}.cls-114,.cls-115{fill:#0f28e5;}.cls-114{stroke:#002fb3;}.cls-115{stroke:#002fb4;}.cls-116{fill:#0f28e6;stroke:#002fb5;}.cls-117,.cls-118{fill:#0e29e6;}.cls-117{stroke:#002fb6;}.cls-118{stroke:#002fb7;}.cls-119,.cls-120,.cls-121{fill:#0e2ae7;}.cls-119{stroke:#002fb8;}.cls-120{stroke:#002fb9;}.cls-121{stroke:#002fba;}.cls-122,.cls-123,.cls-124{fill:#0d2be8;}.cls-122{stroke:#002fbb;}.cls-123{stroke:#002fbc;}.cls-124{stroke:#002fbd;}.cls-125,.cls-126{fill:#0d2ce9;}.cls-125{stroke:#002fbe;}.cls-126{stroke:#002fbf;}.cls-127{fill:#0c2ce9;stroke:#002fc0;}.cls-128,.cls-129{fill:#0c2dea;}.cls-128{stroke:#002fc1;}.cls-129{stroke:#002fc2;}.cls-130{fill:#0c2eea;stroke:#002fc3;}.cls-131{fill:#0c2eeb;stroke:#002fc4;}.cls-132{fill:#0b2eeb;stroke:#002fc5;}.cls-133{fill:#0b2feb;stroke:#002fc6;}.cls-134,.cls-135{fill:#0b2fec;}.cls-134{stroke:#002fc7;}.cls-135{stroke:#002fc8;}.cls-136{fill:#0b30ed;stroke:#002fc9;}.cls-137,.cls-138{fill:#0a30ed;}.cls-137{stroke:#002fca;}.cls-138{stroke:#002fcb;}.cls-139,.cls-140,.cls-141{fill:#0a31ee;}.cls-139{stroke:#002fcc;}.cls-140{stroke:#002fcd;}.cls-141{stroke:#002fce;}.cls-142,.cls-143{fill:#0932ef;}.cls-142{stroke:#002fcf;}.cls-143{stroke:#002fd0;}.cls-144{fill:#0933ef;stroke:#002fd1;}.cls-145,.cls-146{fill:#0933f0;}.cls-145{stroke:#002fd2;}.cls-146{stroke:#002fd3;}.cls-147{fill:#0934f0;stroke:#002fd4;}.cls-148,.cls-149{fill:#0834f1;}.cls-148{stroke:#002fd5;}.cls-149{stroke:#002fd6;}.cls-150{fill:#0835f1;stroke:#002fd7;}.cls-151,.cls-152{fill:#0835f2;}.cls-151{stroke:#002fd8;}.cls-152{stroke:#002fd9;}.cls-153{fill:#0736f2;stroke:#002fda;}.cls-154,.cls-155{fill:#0736f3;}.cls-154{stroke:#002fdb;}.cls-155{stroke:#002fdc;}.cls-156{fill:#0737f3;stroke:#002fdd;}.cls-157{fill:#0737f4;stroke:#002fde;}.cls-158,.cls-159{fill:#0638f4;}.cls-158{stroke:#002fdf;}.cls-159{stroke:#002fe0;}.cls-160{fill:#0638f5;stroke:#002fe1;}.cls-161,.cls-162{fill:#0639f5;}.cls-161{stroke:#002fe2;}.cls-162{stroke:#002fe3;}.cls-163{fill:#0539f6;stroke:#002fe4;}.cls-164,.cls-165{fill:#053af6;}.cls-164{stroke:#002fe5;}.cls-165{stroke:#002fe6;}.cls-166{fill:#053af7;stroke:#002fe7;}.cls-167{fill:#053bf7;stroke:#002fe8;}.cls-168{fill:#043bf7;stroke:#002fe9;}.cls-169{fill:#043bf8;stroke:#002fea;}.cls-170,.cls-171{fill:#043cf8;}.cls-170{stroke:#002feb;}.cls-171{stroke:#002fec;}.cls-172{fill:#043df9;stroke:#002fed;}.cls-173{fill:#033df9;stroke:#002fee;}.cls-174{fill:#033dfa;stroke:#002fef;}.cls-175,.cls-176{fill:#033efa;}.cls-175{stroke:#002ff0;}.cls-176{stroke:#002ff1;}.cls-177{fill:#033efb;stroke:#002ff2;}.cls-178,.cls-179{fill:#023ffb;}.cls-178{stroke:#002ff3;}.cls-179{stroke:#002ff4;}.cls-180{fill:#023ffc;stroke:#002ff5;}.cls-181,.cls-182{fill:#0240fc;}.cls-181{stroke:#002ff6;}.cls-182{stroke:#002ff7;}.cls-183{fill:#0140fd;stroke:#002ff8;}.cls-184,.cls-185{fill:#0141fd;}.cls-184{stroke:#002ff9;}.cls-185{stroke:#002ffa;}.cls-186,.cls-187{fill:#0142fe;}.cls-186{stroke:#002ffb;}.cls-187{stroke:#002ffc;}.cls-188{fill:#0042fe;stroke:#002ffd;}.cls-189{stroke:#002ffe;}.cls-190{stroke:#002fff;}.cls-191{fill:#00afff;}.cls-191,.cls-192,.cls-271{stroke:#00afff;}.cls-193{fill:#00007b;}.cls-194{fill:#00007a;}.cls-195{fill:#000079;}.cls-196{fill:#000078;}.cls-197{fill:#007;}.cls-198{fill:#000076;}.cls-199{fill:#000075;}.cls-200{fill:#000074;}.cls-201{fill:#000073;}.cls-202{fill:#000072;}.cls-203{fill:#000071;}.cls-204{fill:#000070;}.cls-205{fill:#00006f;}.cls-206{fill:#00006e;}.cls-207{fill:#00006d;}.cls-208{fill:#00006c;}.cls-209{fill:#00006b;}.cls-210{fill:#00006a;}.cls-211{fill:#000069;}.cls-212{fill:#000068;}.cls-213{fill:#000067;}.cls-214{fill:#006;}.cls-215{fill:#000065;}.cls-216{fill:#000064;}.cls-217{fill:#000063;}.cls-218{fill:#000062;}.cls-219{fill:#000061;}.cls-220{fill:#000060;}.cls-221{fill:#00005f;}.cls-222{fill:#00005e;}.cls-223{fill:#00005d;}.cls-224{fill:#00005c;}.cls-225{fill:#00005b;}.cls-226{fill:#00005a;}.cls-227{fill:#000059;}.cls-228{fill:#000058;}.cls-229{fill:#000057;}.cls-230{fill:#000056;}.cls-231{fill:#005;}.cls-232{fill:#000054;}.cls-233{fill:#000053;}.cls-234{fill:#000052;}.cls-235{fill:#000051;}.cls-236{fill:#000050;}.cls-237{font-size:3.51px;}.cls-237,.cls-270{fill:#40b5ff;}.cls-237,.cls-238,.cls-270{font-family:MyriadPro-Regular, Myriad Pro;}.cls-238{font-size:3.12px;}.cls-239,.cls-271,.cls-282{fill:none;}.cls-239,.cls-243{stroke:#fff;}.cls-239,.cls-243,.cls-282{stroke-width:0.25px;}.cls-240{fill:#5f7fff;}.cls-241{fill:#94c4ff;}.cls-242{fill:#74c6ff;}.cls-244{fill:gray;}.cls-245{fill:#808081;}.cls-246{fill:#808082;}.cls-247{fill:#808083;}.cls-248{fill:#808084;}.cls-249{fill:#808085;}.cls-250{fill:#808086;}.cls-251{fill:#808087;}.cls-252{fill:#808088;}.cls-253{fill:#808089;}.cls-254{fill:#80808a;}.cls-255{fill:#80808b;}.cls-256{fill:#80808c;}.cls-257{fill:#80808d;}.cls-258{fill:#80808e;}.cls-259{fill:#80808f;}.cls-260{fill:#808090;}.cls-261{fill:#808091;}.cls-262{fill:#808092;}.cls-263{fill:#808093;}.cls-264{fill:#808094;}.cls-265{fill:#808095;}.cls-266{fill:#808096;}.cls-267{fill:#808097;}.cls-268{fill:#808098;}.cls-269{fill:#808099;}.cls-270{font-size:1.56px;}.cls-272{fill:#002ea5;}.cls-273{fill:#07e;}.cls-274{fill:#f5f5f5;}.cls-275{fill:#0056ff;}.cls-276{fill:#007aff;}.cls-276,.cls-277,.cls-278,.cls-279,.cls-280,.cls-281{opacity:0.5;}.cls-277{fill:#007bff;}.cls-278{fill:#007cff;}.cls-279{fill:#007dff;}.cls-280{fill:#007eff;}.cls-281{fill:#007fff;}.cls-282{stroke:#999;}.cls-283{fill:#4d4d4d;}.cls-284{fill:#525252;}.cls-285{fill:#565656;}.cls-286{fill:#5b5b5b;}.cls-287{fill:#606060;}.cls-288{fill:#646464;}.cls-289{fill:#696969;}.cls-290{fill:#6d6d6d;}.cls-291{fill:#727272;}.cls-292{fill:#777;}.cls-293{fill:#7b7b7b;}.cls-294{fill:#00c7ff;opacity:0.19;}</style></defs><g id="Layer_2" data-name="Layer 2"><g id="Windmill"><circle class="cls-1" cx="16.93" cy="61.93" r="0.46"/><polyline class="cls-2" points="38.83 35.96 35.79 41.22 48.64 48.64"/><path class="cls-3" d="M2.32,43.5l57.8,33.37a9.73,9.73,0,0,0,8.78,0l58.25-33.4c2.43-1.39,2.44-3.65,0-5.06l-58-33.75a9.6,9.6,0,0,0-8.76,0l-58,33.75C-.11,39.83-.1,42.1,2.32,43.5Z"/><path class="cls-4" d="M2.32,43.48l57.8,33.37a9.73,9.73,0,0,0,8.78,0l58.25-33.4c2.43-1.39,2.44-3.66,0-5.07l-58-33.75a9.66,9.66,0,0,0-8.76,0L2.31,38.4C-.11,39.81-.1,42.08,2.32,43.48Z"/><path class="cls-5" d="M2.32,43.46l57.8,33.38a9.76,9.76,0,0,0,8.78,0l58.25-33.4c2.43-1.39,2.44-3.66,0-5.06l-58-33.75a9.6,9.6,0,0,0-8.76,0l-58,33.75C-.11,39.79-.1,42.07,2.32,43.46Z"/><path class="cls-6" d="M2.32,43.45l57.8,33.37a9.73,9.73,0,0,0,8.78,0l58.25-33.4c2.43-1.39,2.44-3.65,0-5.06l-58-33.75a9.6,9.6,0,0,0-8.76,0l-58,33.75C-.11,39.78-.1,42.05,2.32,43.45Z"/><path class="cls-7" d="M2.32,43.43,60.12,76.8a9.73,9.73,0,0,0,8.78,0l58.25-33.4c2.43-1.39,2.44-3.66,0-5.07L69.12,4.6a9.66,9.66,0,0,0-8.76,0l-58,33.75C-.11,39.76-.1,42,2.32,43.43Z"/><path class="cls-8" d="M2.32,43.41l57.8,33.38a9.76,9.76,0,0,0,8.78,0l58.25-33.4c2.43-1.39,2.44-3.66,0-5.06l-58-33.75a9.6,9.6,0,0,0-8.76,0l-58,33.75C-.11,39.74-.1,42,2.32,43.41Z"/><path class="cls-9" d="M2.32,43.4l57.8,33.37a9.73,9.73,0,0,0,8.78,0l58.25-33.4c2.43-1.39,2.44-3.65,0-5.06l-58-33.75a9.6,9.6,0,0,0-8.76,0l-58,33.75C-.11,39.73-.1,42,2.32,43.4Z"/><path class="cls-10" d="M2.32,43.38l57.8,33.37a9.73,9.73,0,0,0,8.78,0l58.25-33.4c2.43-1.39,2.44-3.66,0-5.07l-58-33.75a9.66,9.66,0,0,0-8.76,0L2.31,38.3C-.11,39.71-.1,42,2.32,43.38Z"/><path class="cls-11" d="M2.32,43.36l57.8,33.38a9.76,9.76,0,0,0,8.78,0l58.25-33.4c2.43-1.39,2.44-3.66,0-5.06l-58-33.75a9.6,9.6,0,0,0-8.76,0l-58,33.75C-.11,39.69-.1,42,2.32,43.36Z"/><path class="cls-12" d="M2.32,43.35l57.8,33.37a9.73,9.73,0,0,0,8.78,0l58.25-33.4c2.43-1.39,2.44-3.65,0-5.06l-58-33.75a9.6,9.6,0,0,0-8.76,0l-58,33.75C-.11,39.68-.1,42,2.32,43.35Z"/><path class="cls-13" d="M2.32,43.33,60.12,76.7a9.73,9.73,0,0,0,8.78,0l58.25-33.4c2.43-1.39,2.44-3.66,0-5.07L69.12,4.5a9.66,9.66,0,0,0-8.76,0l-58,33.75C-.11,39.66-.1,41.93,2.32,43.33Z"/><path class="cls-14" d="M2.32,43.31l57.8,33.38a9.76,9.76,0,0,0,8.78,0l58.25-33.4c2.43-1.39,2.44-3.66,0-5.06l-58-33.75a9.6,9.6,0,0,0-8.76,0l-58,33.75C-.11,39.64-.1,41.92,2.32,43.31Z"/><path class="cls-15" d="M2.32,43.3l57.8,33.37a9.73,9.73,0,0,0,8.78,0l58.25-33.4c2.43-1.39,2.44-3.65,0-5.06l-58-33.75a9.6,9.6,0,0,0-8.76,0l-58,33.75C-.11,39.63-.1,41.9,2.32,43.3Z"/><path class="cls-16" d="M2.32,43.28l57.8,33.37a9.73,9.73,0,0,0,8.78,0l58.25-33.4c2.43-1.39,2.44-3.66,0-5.07l-58-33.75a9.66,9.66,0,0,0-8.76,0L2.31,38.2C-.11,39.61-.1,41.88,2.32,43.28Z"/><path class="cls-17" d="M2.32,43.26l57.8,33.38a9.76,9.76,0,0,0,8.78,0l58.25-33.4c2.43-1.39,2.44-3.66,0-5.06l-58-33.75a9.6,9.6,0,0,0-8.76,0l-58,33.75C-.11,39.59-.1,41.87,2.32,43.26Z"/><path class="cls-18" d="M2.32,43.25l57.8,33.37a9.73,9.73,0,0,0,8.78,0l58.25-33.4c2.43-1.39,2.44-3.65,0-5.06l-58-33.75a9.6,9.6,0,0,0-8.76,0l-58,33.75C-.11,39.58-.1,41.85,2.32,43.25Z"/><path class="cls-19" d="M2.32,43.23,60.12,76.6a9.73,9.73,0,0,0,8.78,0l58.25-33.4c2.43-1.39,2.44-3.66,0-5.07L69.12,4.4a9.66,9.66,0,0,0-8.76,0l-58,33.75C-.11,39.56-.1,41.83,2.32,43.23Z"/><path class="cls-20" d="M2.32,43.21l57.8,33.38a9.76,9.76,0,0,0,8.78,0l58.25-33.4c2.43-1.39,2.44-3.66,0-5.06l-58-33.75a9.6,9.6,0,0,0-8.76,0l-58,33.75C-.11,39.54-.1,41.82,2.32,43.21Z"/><path class="cls-21" d="M2.32,43.2l57.8,33.37a9.73,9.73,0,0,0,8.78,0l58.25-33.4c2.43-1.39,2.44-3.65,0-5.06l-58-33.75a9.6,9.6,0,0,0-8.76,0l-58,33.75C-.11,39.53-.1,41.8,2.32,43.2Z"/><path class="cls-22" d="M2.32,43.18l57.8,33.37a9.73,9.73,0,0,0,8.78,0l58.25-33.4c2.43-1.39,2.44-3.66,0-5.07l-58-33.75a9.66,9.66,0,0,0-8.76,0L2.31,38.1C-.11,39.51-.1,41.78,2.32,43.18Z"/><path class="cls-23" d="M2.32,43.16l57.8,33.38a9.76,9.76,0,0,0,8.78,0l58.25-33.4c2.43-1.39,2.44-3.66,0-5.06l-58-33.75a9.6,9.6,0,0,0-8.76,0l-58,33.75C-.11,39.49-.1,41.77,2.32,43.16Z"/><path class="cls-24" d="M2.32,43.15l57.8,33.37a9.73,9.73,0,0,0,8.78,0l58.25-33.4c2.43-1.39,2.44-3.65,0-5.06l-58-33.75a9.66,9.66,0,0,0-8.76,0l-58,33.75C-.11,39.48-.1,41.75,2.32,43.15Z"/><path class="cls-25" d="M2.32,43.13,60.12,76.5a9.73,9.73,0,0,0,8.78,0l58.25-33.4c2.43-1.39,2.44-3.66,0-5.07L69.12,4.3a9.66,9.66,0,0,0-8.76,0l-58,33.75C-.11,39.46-.1,41.73,2.32,43.13Z"/><path class="cls-26" d="M2.32,43.11l57.8,33.38a9.76,9.76,0,0,0,8.78,0l58.25-33.4c2.43-1.39,2.44-3.66,0-5.06l-58-33.75a9.6,9.6,0,0,0-8.76,0L2.31,38C-.11,39.44-.1,41.72,2.32,43.11Z"/><path class="cls-27" d="M2.32,43.1l57.8,33.37a9.73,9.73,0,0,0,8.78,0l58.25-33.4c2.43-1.39,2.44-3.65,0-5.06l-58-33.75a9.66,9.66,0,0,0-8.76,0L2.31,38C-.11,39.43-.1,41.7,2.32,43.1Z"/><path class="cls-28" d="M2.32,43.08l57.8,33.37a9.73,9.73,0,0,0,8.78,0l58.25-33.4c2.43-1.39,2.44-3.66,0-5.07l-58-33.75a9.66,9.66,0,0,0-8.76,0L2.31,38C-.11,39.41-.1,41.68,2.32,43.08Z"/><path class="cls-29" d="M2.32,43.06l57.8,33.38a9.76,9.76,0,0,0,8.78,0l58.25-33.4c2.43-1.39,2.44-3.66,0-5.06l-58-33.75a9.6,9.6,0,0,0-8.76,0L2.31,38C-.11,39.39-.1,41.67,2.32,43.06Z"/><path class="cls-30" d="M2.32,43.05l57.8,33.37a9.73,9.73,0,0,0,8.78,0L127.15,43c2.43-1.39,2.44-3.65,0-5.06l-58-33.75a9.66,9.66,0,0,0-8.76,0L2.31,38C-.11,39.38-.1,41.65,2.32,43.05Z"/><path class="cls-31" d="M2.32,43,60.12,76.4a9.73,9.73,0,0,0,8.78,0L127.15,43c2.43-1.39,2.44-3.66,0-5.07L69.12,4.2a9.66,9.66,0,0,0-8.76,0L2.31,38C-.11,39.36-.1,41.63,2.32,43Z"/><path class="cls-32" d="M2.32,43l57.8,33.38a9.76,9.76,0,0,0,8.78,0L127.15,43c2.43-1.39,2.44-3.66,0-5.06l-58-33.75a9.6,9.6,0,0,0-8.76,0l-58,33.75C-.11,39.34-.1,41.62,2.32,43Z"/><path class="cls-33" d="M2.32,43l57.8,33.37a9.73,9.73,0,0,0,8.78,0L127.15,43c2.43-1.39,2.44-3.65,0-5.06l-58-33.75a9.66,9.66,0,0,0-8.76,0l-58,33.75C-.11,39.33-.1,41.6,2.32,43Z"/><path class="cls-34" d="M2.32,43l57.8,33.37a9.73,9.73,0,0,0,8.78,0L127.15,43c2.43-1.39,2.44-3.66,0-5.07l-58-33.75a9.66,9.66,0,0,0-8.76,0L2.31,37.9C-.11,39.31-.1,41.58,2.32,43Z"/><path class="cls-35" d="M2.32,43l57.8,33.38a9.76,9.76,0,0,0,8.78,0L127.15,43c2.43-1.39,2.44-3.66,0-5.06l-58-33.75a9.6,9.6,0,0,0-8.76,0l-58,33.75C-.11,39.29-.1,41.57,2.32,43Z"/><path class="cls-36" d="M2.32,43l57.8,33.37a9.73,9.73,0,0,0,8.78,0l58.25-33.4c2.43-1.39,2.44-3.65,0-5.06l-58-33.75a9.66,9.66,0,0,0-8.76,0l-58,33.75C-.11,39.28-.1,41.55,2.32,43Z"/><path class="cls-37" d="M2.32,42.93,60.12,76.3a9.73,9.73,0,0,0,8.78,0l58.25-33.4c2.43-1.39,2.44-3.66,0-5.07L69.12,4.1a9.66,9.66,0,0,0-8.76,0l-58,33.75C-.11,39.26-.1,41.53,2.32,42.93Z"/><path class="cls-38" d="M2.32,42.91l57.8,33.38a9.76,9.76,0,0,0,8.78,0l58.25-33.4c2.43-1.39,2.44-3.66,0-5.06l-58-33.75a9.6,9.6,0,0,0-8.76,0l-58,33.75C-.11,39.24-.1,41.52,2.32,42.91Z"/><path class="cls-39" d="M2.32,42.9l57.8,33.37a9.73,9.73,0,0,0,8.78,0l58.25-33.4c2.43-1.39,2.44-3.65,0-5.06l-58-33.75a9.66,9.66,0,0,0-8.76,0l-58,33.75C-.11,39.23-.1,41.5,2.32,42.9Z"/><path class="cls-40" d="M2.32,42.88l57.8,33.37a9.73,9.73,0,0,0,8.78,0l58.25-33.4c2.43-1.39,2.44-3.66,0-5.07l-58-33.75a9.66,9.66,0,0,0-8.76,0L2.31,37.8C-.11,39.21-.1,41.48,2.32,42.88Z"/><path class="cls-41" d="M2.32,42.86l57.8,33.38a9.76,9.76,0,0,0,8.78,0l58.25-33.4c2.43-1.39,2.44-3.66,0-5.06L69.12,4a9.6,9.6,0,0,0-8.76,0l-58,33.75C-.11,39.19-.1,41.47,2.32,42.86Z"/><path class="cls-42" d="M2.32,42.85l57.8,33.37a9.73,9.73,0,0,0,8.78,0l58.25-33.4c2.43-1.39,2.44-3.65,0-5.06L69.12,4a9.66,9.66,0,0,0-8.76,0l-58,33.75C-.11,39.18-.1,41.45,2.32,42.85Z"/><path class="cls-43" d="M2.32,42.83,60.12,76.2a9.73,9.73,0,0,0,8.78,0l58.25-33.4c2.43-1.39,2.44-3.66,0-5.07L69.12,4a9.66,9.66,0,0,0-8.76,0l-58,33.75C-.11,39.16-.1,41.43,2.32,42.83Z"/><path class="cls-44" d="M2.32,42.81l57.8,33.38a9.76,9.76,0,0,0,8.78,0l58.25-33.4c2.43-1.39,2.44-3.66,0-5.06L69.12,4a9.6,9.6,0,0,0-8.76,0l-58,33.75C-.11,39.14-.1,41.42,2.32,42.81Z"/><path class="cls-45" d="M2.32,42.8l57.8,33.37a9.73,9.73,0,0,0,8.78,0l58.25-33.4c2.43-1.39,2.44-3.65,0-5.06L69.12,4a9.66,9.66,0,0,0-8.76,0l-58,33.75C-.11,39.13-.1,41.4,2.32,42.8Z"/><path class="cls-46" d="M2.32,42.78l57.8,33.37a9.73,9.73,0,0,0,8.78,0l58.25-33.4c2.43-1.39,2.44-3.66,0-5.07L69.12,4a9.66,9.66,0,0,0-8.76,0L2.31,37.7C-.11,39.11-.1,41.38,2.32,42.78Z"/><path class="cls-47" d="M2.32,42.76l57.8,33.38a9.76,9.76,0,0,0,8.78,0l58.25-33.4c2.43-1.39,2.44-3.66,0-5.06l-58-33.75a9.6,9.6,0,0,0-8.76,0l-58,33.75C-.11,39.09-.1,41.37,2.32,42.76Z"/><path class="cls-48" d="M2.32,42.75l57.8,33.37a9.73,9.73,0,0,0,8.78,0l58.25-33.4c2.43-1.39,2.44-3.65,0-5.06l-58-33.75a9.66,9.66,0,0,0-8.76,0l-58,33.75C-.11,39.08-.1,41.35,2.32,42.75Z"/><path class="cls-49" d="M2.32,42.73,60.12,76.1a9.73,9.73,0,0,0,8.78,0l58.25-33.4c2.43-1.39,2.44-3.66,0-5.07L69.12,3.9a9.66,9.66,0,0,0-8.76,0l-58,33.75C-.11,39.06-.1,41.33,2.32,42.73Z"/><path class="cls-50" d="M2.32,42.71l57.8,33.38a9.76,9.76,0,0,0,8.78,0l58.25-33.4c2.43-1.39,2.44-3.66,0-5.06l-58-33.75a9.6,9.6,0,0,0-8.76,0l-58,33.75C-.11,39-.1,41.32,2.32,42.71Z"/><path class="cls-51" d="M2.32,42.7l57.8,33.37a9.73,9.73,0,0,0,8.78,0l58.25-33.4c2.43-1.39,2.44-3.65,0-5.06l-58-33.75a9.66,9.66,0,0,0-8.76,0l-58,33.75C-.11,39-.1,41.3,2.32,42.7Z"/><path class="cls-52" d="M2.32,42.68l57.8,33.37a9.73,9.73,0,0,0,8.78,0l58.25-33.4c2.43-1.39,2.44-3.66,0-5.07l-58-33.75a9.66,9.66,0,0,0-8.76,0L2.31,37.6C-.11,39-.1,41.28,2.32,42.68Z"/><path class="cls-53" d="M2.32,42.66,60.12,76a9.76,9.76,0,0,0,8.78,0l58.25-33.4c2.43-1.39,2.44-3.66,0-5.06l-58-33.75a9.6,9.6,0,0,0-8.76,0l-58,33.75C-.11,39-.1,41.27,2.32,42.66Z"/><path class="cls-54" d="M2.32,42.65,60.12,76a9.73,9.73,0,0,0,8.78,0l58.25-33.4c2.43-1.39,2.44-3.65,0-5.06l-58-33.75a9.66,9.66,0,0,0-8.76,0l-58,33.75C-.11,39-.1,41.25,2.32,42.65Z"/><path class="cls-55" d="M2.32,42.63,60.12,76a9.73,9.73,0,0,0,8.78,0l58.25-33.4c2.43-1.39,2.44-3.66,0-5.07L69.12,3.8a9.66,9.66,0,0,0-8.76,0l-58,33.75C-.11,39-.1,41.23,2.32,42.63Z"/><path class="cls-56" d="M2.32,42.61,60.12,76a9.76,9.76,0,0,0,8.78,0l58.25-33.4c2.43-1.39,2.44-3.66,0-5.06l-58-33.75a9.6,9.6,0,0,0-8.76,0l-58,33.75C-.11,38.94-.1,41.22,2.32,42.61Z"/><path class="cls-57" d="M2.32,42.6,60.12,76a9.73,9.73,0,0,0,8.78,0l58.25-33.4c2.43-1.39,2.44-3.65,0-5.06l-58-33.75a9.66,9.66,0,0,0-8.76,0l-58,33.75C-.11,38.93-.1,41.2,2.32,42.6Z"/><path class="cls-58" d="M2.32,42.58,60.12,76a9.73,9.73,0,0,0,8.78,0l58.25-33.4c2.43-1.39,2.44-3.66,0-5.07l-58-33.75a9.66,9.66,0,0,0-8.76,0L2.31,37.5C-.11,38.91-.1,41.18,2.32,42.58Z"/><path class="cls-59" d="M2.32,42.56l57.8,33.38a9.76,9.76,0,0,0,8.78,0l58.25-33.4c2.43-1.39,2.44-3.66,0-5.06l-58-33.75a9.6,9.6,0,0,0-8.76,0l-58,33.75C-.11,38.89-.1,41.17,2.32,42.56Z"/><path class="cls-60" d="M2.32,42.55l57.8,33.37a9.73,9.73,0,0,0,8.78,0l58.25-33.4c2.43-1.39,2.44-3.65,0-5.06l-58-33.75a9.66,9.66,0,0,0-8.76,0l-58,33.75C-.11,38.88-.1,41.15,2.32,42.55Z"/><path class="cls-61" d="M2.32,42.53,60.12,75.9a9.73,9.73,0,0,0,8.78,0l58.25-33.4c2.43-1.39,2.44-3.66,0-5.07L69.12,3.7a9.66,9.66,0,0,0-8.76,0l-58,33.75C-.11,38.86-.1,41.13,2.32,42.53Z"/><path class="cls-62" d="M2.32,42.51l57.8,33.38a9.76,9.76,0,0,0,8.78,0l58.25-33.4c2.43-1.39,2.44-3.66,0-5.06l-58-33.75a9.6,9.6,0,0,0-8.76,0l-58,33.75C-.11,38.84-.1,41.12,2.32,42.51Z"/><path class="cls-63" d="M2.32,42.5l57.8,33.37a9.73,9.73,0,0,0,8.78,0l58.25-33.4c2.43-1.39,2.44-3.65,0-5.06l-58-33.75a9.66,9.66,0,0,0-8.76,0l-58,33.75C-.11,38.83-.1,41.1,2.32,42.5Z"/><path class="cls-64" d="M2.32,42.48l57.8,33.37a9.73,9.73,0,0,0,8.78,0l58.25-33.4c2.43-1.39,2.44-3.66,0-5.07l-58-33.75a9.66,9.66,0,0,0-8.76,0L2.31,37.4C-.11,38.81-.1,41.08,2.32,42.48Z"/><path class="cls-65" d="M2.32,42.46l57.8,33.38a9.76,9.76,0,0,0,8.78,0l58.25-33.4c2.43-1.39,2.44-3.66,0-5.06l-58-33.75a9.6,9.6,0,0,0-8.76,0l-58,33.75C-.11,38.79-.1,41.07,2.32,42.46Z"/><path class="cls-66" d="M2.32,42.45l57.8,33.37a9.73,9.73,0,0,0,8.78,0l58.25-33.4c2.43-1.39,2.44-3.65,0-5.06l-58-33.75a9.66,9.66,0,0,0-8.76,0l-58,33.75C-.11,38.78-.1,41.05,2.32,42.45Z"/><path class="cls-67" d="M2.32,42.43,60.12,75.8a9.73,9.73,0,0,0,8.78,0l58.25-33.4c2.43-1.39,2.44-3.66,0-5.07L69.12,3.6a9.66,9.66,0,0,0-8.76,0l-58,33.75C-.11,38.76-.1,41,2.32,42.43Z"/><path class="cls-68" d="M2.32,42.41l57.8,33.38a9.76,9.76,0,0,0,8.78,0l58.25-33.4c2.43-1.39,2.44-3.66,0-5.06l-58-33.75a9.6,9.6,0,0,0-8.76,0l-58,33.75C-.11,38.74-.1,41,2.32,42.41Z"/><path class="cls-69" d="M2.32,42.4l57.8,33.37a9.73,9.73,0,0,0,8.78,0l58.25-33.4c2.43-1.39,2.44-3.65,0-5.06l-58-33.75a9.66,9.66,0,0,0-8.76,0l-58,33.75C-.11,38.73-.1,41,2.32,42.4Z"/><path class="cls-70" d="M2.32,42.38l57.8,33.37a9.73,9.73,0,0,0,8.78,0l58.25-33.4c2.43-1.39,2.44-3.66,0-5.07l-58-33.75a9.66,9.66,0,0,0-8.76,0L2.31,37.3C-.11,38.71-.1,41,2.32,42.38Z"/><path class="cls-71" d="M2.32,42.36l57.8,33.38a9.76,9.76,0,0,0,8.78,0l58.25-33.4c2.43-1.39,2.44-3.66,0-5.06l-58-33.75a9.6,9.6,0,0,0-8.76,0l-58,33.75C-.11,38.69-.1,41,2.32,42.36Z"/><path class="cls-72" d="M2.32,42.35l57.8,33.37a9.73,9.73,0,0,0,8.78,0l58.25-33.4c2.43-1.39,2.44-3.65,0-5.06l-58-33.75a9.66,9.66,0,0,0-8.76,0l-58,33.75C-.11,38.68-.1,41,2.32,42.35Z"/><path class="cls-73" d="M2.32,42.33,60.12,75.7a9.73,9.73,0,0,0,8.78,0l58.25-33.4c2.43-1.39,2.44-3.66,0-5.07L69.12,3.5a9.66,9.66,0,0,0-8.76,0l-58,33.75C-.11,38.66-.1,40.93,2.32,42.33Z"/><path class="cls-74" d="M2.32,42.31l57.8,33.38a9.76,9.76,0,0,0,8.78,0l58.25-33.4c2.43-1.39,2.44-3.66,0-5.06l-58-33.75a9.6,9.6,0,0,0-8.76,0l-58,33.75C-.11,38.64-.1,40.92,2.32,42.31Z"/><path class="cls-75" d="M2.32,42.3l57.8,33.37a9.73,9.73,0,0,0,8.78,0l58.25-33.4c2.43-1.39,2.44-3.65,0-5.06l-58-33.75a9.66,9.66,0,0,0-8.76,0l-58,33.75C-.11,38.63-.1,40.9,2.32,42.3Z"/><path class="cls-76" d="M2.32,42.28l57.8,33.37a9.73,9.73,0,0,0,8.78,0l58.25-33.4c2.43-1.39,2.44-3.66,0-5.07l-58-33.75a9.66,9.66,0,0,0-8.76,0L2.31,37.2C-.11,38.61-.1,40.88,2.32,42.28Z"/><path class="cls-77" d="M2.32,42.26l57.8,33.38a9.76,9.76,0,0,0,8.78,0l58.25-33.4c2.43-1.39,2.44-3.66,0-5.06l-58-33.75a9.6,9.6,0,0,0-8.76,0l-58,33.75C-.11,38.59-.1,40.87,2.32,42.26Z"/><path class="cls-78" d="M2.32,42.25l57.8,33.37a9.73,9.73,0,0,0,8.78,0l58.25-33.4c2.43-1.39,2.44-3.65,0-5.06l-58-33.75a9.66,9.66,0,0,0-8.76,0l-58,33.75C-.11,38.58-.1,40.85,2.32,42.25Z"/><path class="cls-79" d="M2.32,42.23,60.12,75.6a9.73,9.73,0,0,0,8.78,0l58.25-33.4c2.43-1.39,2.44-3.66,0-5.07L69.12,3.4a9.66,9.66,0,0,0-8.76,0l-58,33.75C-.11,38.56-.1,40.83,2.32,42.23Z"/><path class="cls-80" d="M2.32,42.21l57.8,33.38a9.76,9.76,0,0,0,8.78,0l58.25-33.4c2.43-1.39,2.44-3.66,0-5.06l-58-33.75a9.6,9.6,0,0,0-8.76,0l-58,33.75C-.11,38.54-.1,40.82,2.32,42.21Z"/><path class="cls-81" d="M2.32,42.2l57.8,33.37a9.73,9.73,0,0,0,8.78,0l58.25-33.4c2.43-1.39,2.44-3.65,0-5.06l-58-33.75a9.66,9.66,0,0,0-8.76,0l-58,33.75C-.11,38.53-.1,40.8,2.32,42.2Z"/><path class="cls-82" d="M2.32,42.18l57.8,33.37a9.73,9.73,0,0,0,8.78,0l58.25-33.4c2.43-1.39,2.44-3.66,0-5.07l-58-33.75a9.66,9.66,0,0,0-8.76,0L2.31,37.1C-.11,38.51-.1,40.78,2.32,42.18Z"/><path class="cls-83" d="M2.32,42.16l57.8,33.38a9.76,9.76,0,0,0,8.78,0l58.25-33.4c2.43-1.39,2.44-3.66,0-5.06l-58-33.75a9.6,9.6,0,0,0-8.76,0l-58,33.75C-.11,38.49-.1,40.77,2.32,42.16Z"/><path class="cls-84" d="M2.32,42.15l57.8,33.37a9.73,9.73,0,0,0,8.78,0l58.25-33.4c2.43-1.39,2.44-3.65,0-5.06l-58-33.75a9.66,9.66,0,0,0-8.76,0l-58,33.75C-.11,38.48-.1,40.75,2.32,42.15Z"/><path class="cls-85" d="M2.32,42.13,60.12,75.5a9.73,9.73,0,0,0,8.78,0l58.25-33.4c2.43-1.39,2.44-3.66,0-5.07L69.12,3.3a9.66,9.66,0,0,0-8.76,0l-58,33.75C-.11,38.46-.1,40.73,2.32,42.13Z"/><path class="cls-86" d="M2.32,42.11l57.8,33.38a9.76,9.76,0,0,0,8.78,0l58.25-33.4c2.43-1.39,2.44-3.66,0-5.06l-58-33.75a9.6,9.6,0,0,0-8.76,0L2.31,37C-.11,38.44-.1,40.72,2.32,42.11Z"/><path class="cls-87" d="M2.32,42.1l57.8,33.37a9.73,9.73,0,0,0,8.78,0l58.25-33.4c2.43-1.39,2.44-3.65,0-5.06l-58-33.75a9.66,9.66,0,0,0-8.76,0L2.31,37C-.11,38.43-.1,40.7,2.32,42.1Z"/><path class="cls-88" d="M2.32,42.08l57.8,33.37a9.73,9.73,0,0,0,8.78,0l58.25-33.4c2.43-1.39,2.44-3.66,0-5.07l-58-33.75a9.66,9.66,0,0,0-8.76,0L2.31,37C-.11,38.41-.1,40.68,2.32,42.08Z"/><path class="cls-89" d="M2.32,42.06l57.8,33.38a9.76,9.76,0,0,0,8.78,0l58.25-33.4c2.43-1.39,2.44-3.66,0-5.06l-58-33.75a9.6,9.6,0,0,0-8.76,0L2.31,37C-.11,38.39-.1,40.67,2.32,42.06Z"/><path class="cls-90" d="M2.32,42.05l57.8,33.37a9.73,9.73,0,0,0,8.78,0L127.15,42c2.43-1.39,2.44-3.65,0-5.06l-58-33.75a9.66,9.66,0,0,0-8.76,0L2.31,37C-.11,38.38-.1,40.65,2.32,42.05Z"/><path class="cls-91" d="M2.32,42,60.12,75.4a9.73,9.73,0,0,0,8.78,0L127.15,42c2.43-1.39,2.44-3.66,0-5.07L69.12,3.2a9.66,9.66,0,0,0-8.76,0L2.31,37C-.11,38.36-.1,40.63,2.32,42Z"/><path class="cls-92" d="M2.32,42l57.8,33.38a9.76,9.76,0,0,0,8.78,0L127.15,42c2.43-1.39,2.44-3.66,0-5.06l-58-33.75a9.6,9.6,0,0,0-8.76,0l-58,33.75C-.11,38.34-.1,40.62,2.32,42Z"/><path class="cls-93" d="M2.32,42l57.8,33.37a9.73,9.73,0,0,0,8.78,0L127.15,42c2.43-1.39,2.44-3.65,0-5.06l-58-33.75a9.66,9.66,0,0,0-8.76,0l-58,33.75C-.11,38.33-.1,40.6,2.32,42Z"/><path class="cls-94" d="M2.32,42l57.8,33.37a9.73,9.73,0,0,0,8.78,0L127.15,42c2.43-1.39,2.44-3.66,0-5.07l-58-33.75a9.66,9.66,0,0,0-8.76,0L2.31,36.9C-.11,38.31-.1,40.58,2.32,42Z"/><path class="cls-95" d="M2.32,42l57.8,33.38a9.76,9.76,0,0,0,8.78,0L127.15,42c2.43-1.39,2.44-3.66,0-5.06l-58-33.75a9.6,9.6,0,0,0-8.76,0l-58,33.75C-.11,38.29-.1,40.57,2.32,42Z"/><path class="cls-96" d="M2.32,42l57.8,33.37a9.73,9.73,0,0,0,8.78,0l58.25-33.4c2.43-1.39,2.44-3.65,0-5.06l-58-33.75a9.66,9.66,0,0,0-8.76,0l-58,33.75C-.11,38.28-.1,40.55,2.32,42Z"/><path class="cls-97" d="M2.32,41.93,60.12,75.3a9.73,9.73,0,0,0,8.78,0l58.25-33.4c2.43-1.39,2.44-3.66,0-5.07L69.12,3.1a9.66,9.66,0,0,0-8.76,0l-58,33.75C-.11,38.26-.1,40.53,2.32,41.93Z"/><path class="cls-98" d="M2.32,41.91l57.8,33.38a9.76,9.76,0,0,0,8.78,0l58.25-33.4c2.43-1.39,2.44-3.66,0-5.06l-58-33.75a9.6,9.6,0,0,0-8.76,0l-58,33.75C-.11,38.24-.1,40.52,2.32,41.91Z"/><path class="cls-99" d="M2.32,41.9l57.8,33.37a9.73,9.73,0,0,0,8.78,0l58.25-33.4c2.43-1.39,2.44-3.65,0-5.06l-58-33.75a9.66,9.66,0,0,0-8.76,0l-58,33.75C-.11,38.23-.1,40.5,2.32,41.9Z"/><path class="cls-100" d="M2.32,41.88l57.8,33.37a9.73,9.73,0,0,0,8.78,0l58.25-33.4c2.43-1.39,2.44-3.66,0-5.07l-58-33.75a9.66,9.66,0,0,0-8.76,0L2.31,36.8C-.11,38.21-.1,40.48,2.32,41.88Z"/><path class="cls-101" d="M2.32,41.86l57.8,33.38a9.76,9.76,0,0,0,8.78,0l58.25-33.4c2.43-1.39,2.44-3.66,0-5.06L69.12,3a9.6,9.6,0,0,0-8.76,0l-58,33.75C-.11,38.19-.1,40.47,2.32,41.86Z"/><path class="cls-102" d="M2.32,41.85l57.8,33.37a9.73,9.73,0,0,0,8.78,0l58.25-33.4c2.43-1.39,2.44-3.65,0-5.06L69.12,3a9.66,9.66,0,0,0-8.76,0l-58,33.75C-.11,38.18-.1,40.45,2.32,41.85Z"/><path class="cls-103" d="M2.32,41.83,60.12,75.2a9.73,9.73,0,0,0,8.78,0l58.25-33.4c2.43-1.39,2.44-3.66,0-5.07L69.12,3a9.66,9.66,0,0,0-8.76,0l-58,33.75C-.11,38.16-.1,40.43,2.32,41.83Z"/><path class="cls-104" d="M2.32,41.81l57.8,33.38a9.76,9.76,0,0,0,8.78,0l58.25-33.4c2.43-1.39,2.44-3.66,0-5.06L69.12,3a9.6,9.6,0,0,0-8.76,0l-58,33.75C-.11,38.14-.1,40.42,2.32,41.81Z"/><path class="cls-105" d="M2.32,41.8l57.8,33.37a9.73,9.73,0,0,0,8.78,0l58.25-33.4c2.43-1.39,2.44-3.65,0-5.06L69.12,3a9.66,9.66,0,0,0-8.76,0l-58,33.75C-.11,38.13-.1,40.4,2.32,41.8Z"/><path class="cls-106" d="M2.32,41.78l57.8,33.37a9.73,9.73,0,0,0,8.78,0l58.25-33.4c2.43-1.39,2.44-3.66,0-5.07L69.12,3a9.66,9.66,0,0,0-8.76,0L2.31,36.7C-.11,38.11-.1,40.38,2.32,41.78Z"/><path class="cls-107" d="M2.32,41.76l57.8,33.38a9.76,9.76,0,0,0,8.78,0l58.25-33.4c2.43-1.39,2.44-3.66,0-5.06l-58-33.75a9.6,9.6,0,0,0-8.76,0l-58,33.75C-.11,38.09-.1,40.37,2.32,41.76Z"/><path class="cls-108" d="M2.32,41.75l57.8,33.37a9.73,9.73,0,0,0,8.78,0l58.25-33.4c2.43-1.39,2.44-3.65,0-5.06l-58-33.75a9.66,9.66,0,0,0-8.76,0l-58,33.75C-.11,38.08-.1,40.35,2.32,41.75Z"/><path class="cls-109" d="M2.32,41.73,60.12,75.1a9.73,9.73,0,0,0,8.78,0l58.25-33.4c2.43-1.39,2.44-3.66,0-5.07L69.12,2.9a9.66,9.66,0,0,0-8.76,0l-58,33.75C-.11,38.06-.1,40.33,2.32,41.73Z"/><path class="cls-110" d="M2.32,41.71l57.8,33.38a9.76,9.76,0,0,0,8.78,0l58.25-33.4c2.43-1.39,2.44-3.66,0-5.06l-58-33.75a9.6,9.6,0,0,0-8.76,0l-58,33.75C-.11,38-.1,40.32,2.32,41.71Z"/><path class="cls-111" d="M2.32,41.7l57.8,33.37a9.73,9.73,0,0,0,8.78,0l58.25-33.4c2.43-1.39,2.44-3.65,0-5.06l-58-33.75a9.66,9.66,0,0,0-8.76,0l-58,33.75C-.11,38-.1,40.3,2.32,41.7Z"/><path class="cls-112" d="M2.32,41.68l57.8,33.37a9.73,9.73,0,0,0,8.78,0l58.25-33.4c2.43-1.39,2.44-3.66,0-5.07l-58-33.75a9.66,9.66,0,0,0-8.76,0L2.31,36.6C-.11,38-.1,40.28,2.32,41.68Z"/><path class="cls-113" d="M2.32,41.66,60.12,75a9.76,9.76,0,0,0,8.78,0l58.25-33.4c2.43-1.39,2.44-3.66,0-5.06l-58-33.75a9.6,9.6,0,0,0-8.76,0l-58,33.75C-.11,38-.1,40.27,2.32,41.66Z"/><path class="cls-114" d="M2.32,41.65,60.12,75a9.73,9.73,0,0,0,8.78,0l58.25-33.4c2.43-1.39,2.44-3.65,0-5.06l-58-33.75a9.66,9.66,0,0,0-8.76,0l-58,33.75C-.11,38-.1,40.25,2.32,41.65Z"/><path class="cls-115" d="M2.32,41.63,60.12,75a9.73,9.73,0,0,0,8.78,0l58.25-33.4c2.43-1.39,2.44-3.66,0-5.07L69.12,2.8a9.66,9.66,0,0,0-8.76,0l-58,33.75C-.11,38-.1,40.23,2.32,41.63Z"/><path class="cls-116" d="M2.32,41.61,60.12,75a9.76,9.76,0,0,0,8.78,0l58.25-33.4c2.43-1.39,2.44-3.66,0-5.06l-58-33.75a9.6,9.6,0,0,0-8.76,0l-58,33.75C-.11,37.94-.1,40.22,2.32,41.61Z"/><path class="cls-117" d="M2.32,41.6,60.12,75a9.73,9.73,0,0,0,8.78,0l58.25-33.4c2.43-1.39,2.44-3.65,0-5.06l-58-33.75a9.66,9.66,0,0,0-8.76,0l-58,33.75C-.11,37.93-.1,40.2,2.32,41.6Z"/><path class="cls-118" d="M2.32,41.58,60.12,75a9.73,9.73,0,0,0,8.78,0l58.25-33.4c2.43-1.39,2.44-3.66,0-5.07l-58-33.75a9.66,9.66,0,0,0-8.76,0L2.31,36.5C-.11,37.91-.1,40.18,2.32,41.58Z"/><path class="cls-119" d="M2.32,41.56l57.8,33.38a9.76,9.76,0,0,0,8.78,0l58.25-33.4c2.43-1.39,2.44-3.66,0-5.06l-58-33.75a9.6,9.6,0,0,0-8.76,0l-58,33.75C-.11,37.89-.1,40.17,2.32,41.56Z"/><path class="cls-120" d="M2.32,41.55l57.8,33.37a9.73,9.73,0,0,0,8.78,0l58.25-33.4c2.43-1.39,2.44-3.65,0-5.06l-58-33.75a9.66,9.66,0,0,0-8.76,0l-58,33.75C-.11,37.88-.1,40.15,2.32,41.55Z"/><path class="cls-121" d="M2.32,41.53,60.12,74.9a9.73,9.73,0,0,0,8.78,0l58.25-33.4c2.43-1.39,2.44-3.66,0-5.07L69.12,2.7a9.66,9.66,0,0,0-8.76,0l-58,33.75C-.11,37.86-.1,40.13,2.32,41.53Z"/><path class="cls-122" d="M2.32,41.51l57.8,33.38a9.76,9.76,0,0,0,8.78,0l58.25-33.4c2.43-1.39,2.44-3.66,0-5.06l-58-33.75a9.6,9.6,0,0,0-8.76,0l-58,33.75C-.11,37.84-.1,40.12,2.32,41.51Z"/><path class="cls-123" d="M2.32,41.5l57.8,33.37a9.73,9.73,0,0,0,8.78,0l58.25-33.4c2.43-1.39,2.44-3.65,0-5.06l-58-33.75a9.66,9.66,0,0,0-8.76,0l-58,33.75C-.11,37.83-.1,40.1,2.32,41.5Z"/><path class="cls-124" d="M2.32,41.48l57.8,33.37a9.73,9.73,0,0,0,8.78,0l58.25-33.4c2.43-1.39,2.44-3.66,0-5.07l-58-33.75a9.66,9.66,0,0,0-8.76,0L2.31,36.4C-.11,37.81-.1,40.08,2.32,41.48Z"/><path class="cls-125" d="M2.32,41.46l57.8,33.38a9.76,9.76,0,0,0,8.78,0l58.25-33.4c2.43-1.39,2.44-3.66,0-5.06l-58-33.75a9.6,9.6,0,0,0-8.76,0l-58,33.75C-.11,37.79-.1,40.07,2.32,41.46Z"/><path class="cls-126" d="M2.32,41.45l57.8,33.37a9.73,9.73,0,0,0,8.78,0l58.25-33.4c2.43-1.39,2.44-3.65,0-5.06l-58-33.75a9.66,9.66,0,0,0-8.76,0l-58,33.75C-.11,37.78-.1,40.05,2.32,41.45Z"/><path class="cls-127" d="M2.32,41.43,60.12,74.8a9.73,9.73,0,0,0,8.78,0l58.25-33.4c2.43-1.39,2.44-3.66,0-5.07L69.12,2.6a9.66,9.66,0,0,0-8.76,0l-58,33.75C-.11,37.76-.1,40,2.32,41.43Z"/><path class="cls-128" d="M2.32,41.41l57.8,33.38a9.76,9.76,0,0,0,8.78,0l58.25-33.4c2.43-1.39,2.44-3.66,0-5.06l-58-33.75a9.6,9.6,0,0,0-8.76,0l-58,33.75C-.11,37.74-.1,40,2.32,41.41Z"/><path class="cls-129" d="M2.32,41.4l57.8,33.37a9.73,9.73,0,0,0,8.78,0l58.25-33.4c2.43-1.39,2.44-3.65,0-5.06l-58-33.75a9.66,9.66,0,0,0-8.76,0l-58,33.75C-.11,37.73-.1,40,2.32,41.4Z"/><path class="cls-130" d="M2.32,41.38l57.8,33.37a9.73,9.73,0,0,0,8.78,0l58.25-33.4c2.43-1.39,2.44-3.66,0-5.07l-58-33.75a9.66,9.66,0,0,0-8.76,0L2.31,36.3C-.11,37.71-.1,40,2.32,41.38Z"/><path class="cls-131" d="M2.32,41.36l57.8,33.38a9.76,9.76,0,0,0,8.78,0l58.25-33.4c2.43-1.39,2.44-3.66,0-5.06l-58-33.75a9.6,9.6,0,0,0-8.76,0l-58,33.75C-.11,37.69-.1,40,2.32,41.36Z"/><path class="cls-132" d="M2.32,41.35l57.8,33.37a9.73,9.73,0,0,0,8.78,0l58.25-33.4c2.43-1.39,2.44-3.65,0-5.06l-58-33.75a9.66,9.66,0,0,0-8.76,0l-58,33.75C-.11,37.68-.1,40,2.32,41.35Z"/><path class="cls-133" d="M2.32,41.33,60.12,74.7a9.73,9.73,0,0,0,8.78,0l58.25-33.4c2.43-1.39,2.44-3.66,0-5.07L69.12,2.5a9.66,9.66,0,0,0-8.76,0l-58,33.75C-.11,37.66-.1,39.93,2.32,41.33Z"/><path class="cls-134" d="M2.32,41.31l57.8,33.38a9.76,9.76,0,0,0,8.78,0l58.25-33.4c2.43-1.39,2.44-3.66,0-5.06l-58-33.75a9.6,9.6,0,0,0-8.76,0l-58,33.75C-.11,37.64-.1,39.92,2.32,41.31Z"/><path class="cls-135" d="M2.32,41.3l57.8,33.37a9.73,9.73,0,0,0,8.78,0l58.25-33.4c2.43-1.39,2.44-3.65,0-5.06l-58-33.75a9.66,9.66,0,0,0-8.76,0l-58,33.75C-.11,37.63-.1,39.9,2.32,41.3Z"/><path class="cls-136" d="M2.32,41.28l57.8,33.37a9.73,9.73,0,0,0,8.78,0l58.25-33.4c2.43-1.39,2.44-3.66,0-5.07l-58-33.75a9.66,9.66,0,0,0-8.76,0L2.31,36.2C-.11,37.61-.1,39.88,2.32,41.28Z"/><path class="cls-137" d="M2.32,41.26l57.8,33.38a9.76,9.76,0,0,0,8.78,0l58.25-33.4c2.43-1.39,2.44-3.66,0-5.06l-58-33.75a9.6,9.6,0,0,0-8.76,0l-58,33.75C-.11,37.59-.1,39.87,2.32,41.26Z"/><path class="cls-138" d="M2.32,41.25l57.8,33.37a9.73,9.73,0,0,0,8.78,0l58.25-33.4c2.43-1.39,2.44-3.65,0-5.06l-58-33.75a9.66,9.66,0,0,0-8.76,0l-58,33.75C-.11,37.58-.1,39.85,2.32,41.25Z"/><path class="cls-139" d="M2.32,41.23,60.12,74.6a9.73,9.73,0,0,0,8.78,0l58.25-33.4c2.43-1.39,2.44-3.66,0-5.07L69.12,2.4a9.66,9.66,0,0,0-8.76,0l-58,33.75C-.11,37.56-.1,39.83,2.32,41.23Z"/><path class="cls-140" d="M2.32,41.21l57.8,33.38a9.76,9.76,0,0,0,8.78,0l58.25-33.4c2.43-1.39,2.44-3.66,0-5.06l-58-33.75a9.6,9.6,0,0,0-8.76,0l-58,33.75C-.11,37.54-.1,39.82,2.32,41.21Z"/><path class="cls-141" d="M2.32,41.2l57.8,33.37a9.73,9.73,0,0,0,8.78,0l58.25-33.4c2.43-1.39,2.44-3.65,0-5.06l-58-33.75a9.66,9.66,0,0,0-8.76,0l-58,33.75C-.11,37.53-.1,39.8,2.32,41.2Z"/><path class="cls-142" d="M2.32,41.18l57.8,33.37a9.73,9.73,0,0,0,8.78,0l58.25-33.4c2.43-1.39,2.44-3.66,0-5.07l-58-33.75a9.66,9.66,0,0,0-8.76,0L2.31,36.1C-.11,37.51-.1,39.78,2.32,41.18Z"/><path class="cls-143" d="M2.32,41.16l57.8,33.38a9.76,9.76,0,0,0,8.78,0l58.25-33.4c2.43-1.39,2.44-3.66,0-5.06l-58-33.75a9.6,9.6,0,0,0-8.76,0l-58,33.75C-.11,37.49-.1,39.77,2.32,41.16Z"/><path class="cls-144" d="M2.32,41.15l57.8,33.37a9.73,9.73,0,0,0,8.78,0l58.25-33.4c2.43-1.39,2.44-3.65,0-5.06l-58-33.75a9.66,9.66,0,0,0-8.76,0l-58,33.75C-.11,37.48-.1,39.75,2.32,41.15Z"/><path class="cls-145" d="M2.32,41.13,60.12,74.5a9.73,9.73,0,0,0,8.78,0l58.25-33.4c2.43-1.39,2.44-3.66,0-5.07L69.12,2.3a9.66,9.66,0,0,0-8.76,0l-58,33.75C-.11,37.46-.1,39.73,2.32,41.13Z"/><path class="cls-146" d="M2.32,41.11l57.8,33.38a9.76,9.76,0,0,0,8.78,0l58.25-33.4c2.43-1.39,2.44-3.66,0-5.06l-58-33.75a9.6,9.6,0,0,0-8.76,0L2.31,36C-.11,37.44-.1,39.72,2.32,41.11Z"/><path class="cls-147" d="M2.32,41.1l57.8,33.37a9.73,9.73,0,0,0,8.78,0l58.25-33.4c2.43-1.39,2.44-3.65,0-5.06l-58-33.75a9.66,9.66,0,0,0-8.76,0L2.31,36C-.11,37.43-.1,39.7,2.32,41.1Z"/><path class="cls-148" d="M2.32,41.08l57.8,33.37a9.73,9.73,0,0,0,8.78,0l58.25-33.4c2.43-1.39,2.44-3.66,0-5.07l-58-33.75a9.66,9.66,0,0,0-8.76,0L2.31,36C-.11,37.41-.1,39.68,2.32,41.08Z"/><path class="cls-149" d="M2.32,41.06l57.8,33.38a9.76,9.76,0,0,0,8.78,0l58.25-33.4c2.43-1.39,2.44-3.66,0-5.06l-58-33.75a9.6,9.6,0,0,0-8.76,0L2.31,36C-.11,37.39-.1,39.67,2.32,41.06Z"/><path class="cls-150" d="M2.32,41.05l57.8,33.37a9.73,9.73,0,0,0,8.78,0L127.15,41c2.43-1.39,2.44-3.65,0-5.06l-58-33.75a9.66,9.66,0,0,0-8.76,0L2.31,36C-.11,37.38-.1,39.65,2.32,41.05Z"/><path class="cls-151" d="M2.32,41,60.12,74.4a9.73,9.73,0,0,0,8.78,0L127.15,41c2.43-1.39,2.44-3.66,0-5.07L69.12,2.2a9.66,9.66,0,0,0-8.76,0L2.31,36C-.11,37.36-.1,39.63,2.32,41Z"/><path class="cls-152" d="M2.32,41l57.8,33.38a9.76,9.76,0,0,0,8.78,0L127.15,41c2.43-1.39,2.44-3.66,0-5.06l-58-33.75a9.6,9.6,0,0,0-8.76,0l-58,33.75C-.11,37.34-.1,39.62,2.32,41Z"/><path class="cls-153" d="M2.32,41l57.8,33.37a9.73,9.73,0,0,0,8.78,0L127.15,41c2.43-1.39,2.44-3.65,0-5.06l-58-33.75a9.66,9.66,0,0,0-8.76,0l-58,33.75C-.11,37.33-.1,39.6,2.32,41Z"/><path class="cls-154" d="M2.32,41l57.8,33.37a9.73,9.73,0,0,0,8.78,0L127.15,41c2.43-1.39,2.44-3.66,0-5.07l-58-33.75a9.66,9.66,0,0,0-8.76,0L2.31,35.9C-.11,37.31-.1,39.58,2.32,41Z"/><path class="cls-155" d="M2.32,41l57.8,33.38a9.76,9.76,0,0,0,8.78,0L127.15,41c2.43-1.39,2.44-3.66,0-5.06l-58-33.75a9.6,9.6,0,0,0-8.76,0l-58,33.75C-.11,37.29-.1,39.57,2.32,41Z"/><path class="cls-156" d="M2.32,41l57.8,33.37a9.73,9.73,0,0,0,8.78,0l58.25-33.4c2.43-1.39,2.44-3.65,0-5.06l-58-33.75a9.66,9.66,0,0,0-8.76,0l-58,33.75C-.11,37.28-.1,39.55,2.32,41Z"/><path class="cls-157" d="M2.32,40.93,60.12,74.3a9.73,9.73,0,0,0,8.78,0l58.25-33.4c2.43-1.39,2.44-3.66,0-5.07L69.12,2.1a9.66,9.66,0,0,0-8.76,0l-58,33.75C-.11,37.26-.1,39.53,2.32,40.93Z"/><path class="cls-158" d="M2.32,40.91l57.8,33.38a9.76,9.76,0,0,0,8.78,0l58.25-33.4c2.43-1.39,2.44-3.66,0-5.06l-58-33.75a9.6,9.6,0,0,0-8.76,0l-58,33.75C-.11,37.24-.1,39.52,2.32,40.91Z"/><path class="cls-159" d="M2.32,40.9l57.8,33.37a9.73,9.73,0,0,0,8.78,0l58.25-33.4c2.43-1.39,2.44-3.65,0-5.06l-58-33.75a9.66,9.66,0,0,0-8.76,0l-58,33.75C-.11,37.23-.1,39.5,2.32,40.9Z"/><path class="cls-160" d="M2.32,40.88l57.8,33.37a9.73,9.73,0,0,0,8.78,0l58.25-33.4c2.43-1.39,2.44-3.66,0-5.07l-58-33.75a9.66,9.66,0,0,0-8.76,0L2.31,35.8C-.11,37.21-.1,39.48,2.32,40.88Z"/><path class="cls-161" d="M2.32,40.86l57.8,33.38a9.76,9.76,0,0,0,8.78,0l58.25-33.4c2.43-1.39,2.44-3.66,0-5.06L69.12,2a9.6,9.6,0,0,0-8.76,0l-58,33.75C-.11,37.19-.1,39.47,2.32,40.86Z"/><path class="cls-162" d="M2.32,40.85l57.8,33.37a9.73,9.73,0,0,0,8.78,0l58.25-33.4c2.43-1.39,2.44-3.65,0-5.06L69.12,2a9.66,9.66,0,0,0-8.76,0l-58,33.75C-.11,37.18-.1,39.45,2.32,40.85Z"/><path class="cls-163" d="M2.32,40.83,60.12,74.2a9.73,9.73,0,0,0,8.78,0l58.25-33.4c2.43-1.39,2.44-3.66,0-5.07L69.12,2a9.66,9.66,0,0,0-8.76,0l-58,33.75C-.11,37.16-.1,39.43,2.32,40.83Z"/><path class="cls-164" d="M2.32,40.81l57.8,33.38a9.76,9.76,0,0,0,8.78,0l58.25-33.4c2.43-1.39,2.44-3.66,0-5.06L69.12,2a9.6,9.6,0,0,0-8.76,0l-58,33.75C-.11,37.14-.1,39.42,2.32,40.81Z"/><path class="cls-165" d="M2.32,40.8l57.8,33.37a9.73,9.73,0,0,0,8.78,0l58.25-33.4c2.43-1.39,2.44-3.65,0-5.06L69.12,2a9.66,9.66,0,0,0-8.76,0l-58,33.75C-.11,37.13-.1,39.4,2.32,40.8Z"/><path class="cls-166" d="M2.32,40.78l57.8,33.37a9.73,9.73,0,0,0,8.78,0l58.25-33.4c2.43-1.39,2.44-3.66,0-5.07L69.12,2a9.66,9.66,0,0,0-8.76,0L2.31,35.7C-.11,37.11-.1,39.38,2.32,40.78Z"/><path class="cls-167" d="M2.32,40.76l57.8,33.38a9.76,9.76,0,0,0,8.78,0l58.25-33.4c2.43-1.39,2.44-3.66,0-5.06l-58-33.75a9.6,9.6,0,0,0-8.76,0l-58,33.75C-.11,37.09-.1,39.37,2.32,40.76Z"/><path class="cls-168" d="M2.32,40.75l57.8,33.37a9.73,9.73,0,0,0,8.78,0l58.25-33.4c2.43-1.39,2.44-3.65,0-5.06l-58-33.75a9.66,9.66,0,0,0-8.76,0l-58,33.75C-.11,37.08-.1,39.35,2.32,40.75Z"/><path class="cls-169" d="M2.32,40.73,60.12,74.1a9.73,9.73,0,0,0,8.78,0l58.25-33.4c2.43-1.39,2.44-3.66,0-5.07L69.12,1.9a9.66,9.66,0,0,0-8.76,0l-58,33.75C-.11,37.06-.1,39.33,2.32,40.73Z"/><path class="cls-170" d="M2.32,40.71l57.8,33.38a9.76,9.76,0,0,0,8.78,0l58.25-33.4c2.43-1.39,2.44-3.66,0-5.06l-58-33.75a9.6,9.6,0,0,0-8.76,0l-58,33.75C-.11,37-.1,39.32,2.32,40.71Z"/><path class="cls-171" d="M2.32,40.7l57.8,33.37a9.73,9.73,0,0,0,8.78,0l58.25-33.4c2.43-1.39,2.44-3.65,0-5.06l-58-33.75a9.66,9.66,0,0,0-8.76,0l-58,33.75C-.11,37-.1,39.3,2.32,40.7Z"/><path class="cls-172" d="M2.32,40.68l57.8,33.37a9.73,9.73,0,0,0,8.78,0l58.25-33.4c2.43-1.39,2.44-3.66,0-5.07l-58-33.75a9.66,9.66,0,0,0-8.76,0L2.31,35.6C-.11,37-.1,39.28,2.32,40.68Z"/><path class="cls-173" d="M2.32,40.66,60.12,74a9.76,9.76,0,0,0,8.78,0l58.25-33.4c2.43-1.39,2.44-3.66,0-5.06l-58-33.75a9.6,9.6,0,0,0-8.76,0l-58,33.75C-.11,37-.1,39.27,2.32,40.66Z"/><path class="cls-174" d="M2.32,40.65,60.12,74a9.73,9.73,0,0,0,8.78,0l58.25-33.4c2.43-1.39,2.44-3.65,0-5.06l-58-33.75a9.66,9.66,0,0,0-8.76,0l-58,33.75C-.11,37-.1,39.25,2.32,40.65Z"/><path class="cls-175" d="M2.32,40.63,60.12,74a9.73,9.73,0,0,0,8.78,0l58.25-33.4c2.43-1.39,2.44-3.66,0-5.07L69.12,1.8a9.66,9.66,0,0,0-8.76,0l-58,33.75C-.11,37-.1,39.23,2.32,40.63Z"/><path class="cls-176" d="M2.32,40.61,60.12,74a9.76,9.76,0,0,0,8.78,0l58.25-33.4c2.43-1.39,2.44-3.66,0-5.06l-58-33.75a9.6,9.6,0,0,0-8.76,0l-58,33.75C-.11,36.94-.1,39.22,2.32,40.61Z"/><path class="cls-177" d="M2.32,40.6,60.12,74a9.73,9.73,0,0,0,8.78,0l58.25-33.4c2.43-1.39,2.44-3.65,0-5.06l-58-33.75a9.66,9.66,0,0,0-8.76,0l-58,33.75C-.11,36.93-.1,39.2,2.32,40.6Z"/><path class="cls-178" d="M2.32,40.58,60.12,74a9.73,9.73,0,0,0,8.78,0l58.25-33.4c2.43-1.39,2.44-3.66,0-5.07l-58-33.75a9.66,9.66,0,0,0-8.76,0L2.31,35.5C-.11,36.91-.1,39.18,2.32,40.58Z"/><path class="cls-179" d="M2.32,40.56l57.8,33.38a9.76,9.76,0,0,0,8.78,0l58.25-33.4c2.43-1.39,2.44-3.66,0-5.06l-58-33.75a9.6,9.6,0,0,0-8.76,0l-58,33.75C-.11,36.89-.1,39.17,2.32,40.56Z"/><path class="cls-180" d="M2.32,40.55l57.8,33.37a9.73,9.73,0,0,0,8.78,0l58.25-33.4c2.43-1.39,2.44-3.65,0-5.06l-58-33.75a9.66,9.66,0,0,0-8.76,0l-58,33.75C-.11,36.88-.1,39.15,2.32,40.55Z"/><path class="cls-181" d="M2.32,40.53,60.12,73.9a9.73,9.73,0,0,0,8.78,0l58.25-33.4c2.43-1.39,2.44-3.66,0-5.07L69.12,1.7a9.66,9.66,0,0,0-8.76,0l-58,33.75C-.11,36.86-.1,39.13,2.32,40.53Z"/><path class="cls-182" d="M2.32,40.51l57.8,33.38a9.76,9.76,0,0,0,8.78,0l58.25-33.4c2.43-1.39,2.44-3.66,0-5.06l-58-33.75a9.6,9.6,0,0,0-8.76,0l-58,33.75C-.11,36.84-.1,39.12,2.32,40.51Z"/><path class="cls-183" d="M2.32,40.5l57.8,33.37a9.73,9.73,0,0,0,8.78,0l58.25-33.4c2.43-1.39,2.44-3.65,0-5.06l-58-33.75a9.66,9.66,0,0,0-8.76,0l-58,33.75C-.11,36.83-.1,39.1,2.32,40.5Z"/><path class="cls-184" d="M2.32,40.48l57.8,33.37a9.73,9.73,0,0,0,8.78,0l58.25-33.4c2.43-1.39,2.44-3.66,0-5.07l-58-33.75a9.66,9.66,0,0,0-8.76,0L2.31,35.4C-.11,36.81-.1,39.08,2.32,40.48Z"/><path class="cls-185" d="M2.32,40.46l57.8,33.38a9.76,9.76,0,0,0,8.78,0l58.25-33.4c2.43-1.39,2.44-3.66,0-5.06l-58-33.75a9.6,9.6,0,0,0-8.76,0l-58,33.75C-.11,36.79-.1,39.07,2.32,40.46Z"/><path class="cls-186" d="M2.32,40.45l57.8,33.37a9.73,9.73,0,0,0,8.78,0l58.25-33.4c2.43-1.39,2.44-3.65,0-5.06l-58-33.75a9.66,9.66,0,0,0-8.76,0l-58,33.75C-.11,36.78-.1,39.05,2.32,40.45Z"/><path class="cls-187" d="M2.32,40.43,60.12,73.8a9.73,9.73,0,0,0,8.78,0l58.25-33.4c2.43-1.39,2.44-3.66,0-5.07L69.12,1.6a9.66,9.66,0,0,0-8.76,0l-58,33.75C-.11,36.76-.1,39,2.32,40.43Z"/><path class="cls-188" d="M2.32,40.41l57.8,33.38a9.76,9.76,0,0,0,8.78,0l58.25-33.4c2.43-1.39,2.44-3.66,0-5.06l-58-33.75a9.6,9.6,0,0,0-8.76,0l-58,33.75C-.11,36.74-.1,39,2.32,40.41Z"/><path class="cls-189" d="M2.32,40.4l57.8,33.37a9.73,9.73,0,0,0,8.78,0l58.25-33.4c2.43-1.39,2.44-3.65,0-5.06l-58-33.75a9.66,9.66,0,0,0-8.76,0l-58,33.75C-.11,36.73-.1,39,2.32,40.4Z"/><path class="cls-190" d="M2.32,40.38l57.8,33.37a9.73,9.73,0,0,0,8.78,0l58.25-33.4c2.43-1.39,2.44-3.66,0-5.07l-58-33.75a9.66,9.66,0,0,0-8.76,0L2.31,35.3C-.11,36.71-.1,39,2.32,40.38Z"/><line class="cls-191" x1="52.91" y1="36.17" x2="46.75" y2="39.73"/><line class="cls-191" x1="39.93" y1="35.65" x2="46.29" y2="31.98"/><polyline class="cls-192" points="62.62 22.85 69.05 19.14 70.33 13.86 63.98 10.11 58.64 10.46"/><line class="cls-192" x1="65.83" y1="24.7" x2="72.26" y2="20.99"/><polyline class="cls-192" points="69.05 26.56 75.47 22.85 78.98 20.8 82.34 18.85 87.1 19.79 92.53 22.85"/><polyline class="cls-192" points="72.26 28.31 78.68 24.7 82.29 22.7 87.1 23.29 89.34 24.7"/><path class="cls-193" d="M44,30.94l14.19,8.2a2.41,2.41,0,0,0,2.16,0l14.3-8.2a.66.66,0,0,0,0-1.25L60.38,21.4a2.39,2.39,0,0,0-2.15,0L44,29.69A.66.66,0,0,0,44,30.94Z"/><path class="cls-194" d="M44,30.88l14.19,8.19a2.38,2.38,0,0,0,2.16,0l14.3-8.21a.65.65,0,0,0,0-1.24L60.38,21.34a2.39,2.39,0,0,0-2.15,0L44,29.63A.66.66,0,0,0,44,30.88Z"/><path class="cls-195" d="M44,30.82,58.17,39a2.38,2.38,0,0,0,2.16,0l14.3-8.2a.65.65,0,0,0,0-1.24L60.38,21.28a2.39,2.39,0,0,0-2.15,0L44,29.57C43.38,29.91,43.38,30.47,44,30.82Z"/><path class="cls-196" d="M44,30.75,58.17,39a2.41,2.41,0,0,0,2.16,0l14.3-8.2a.65.65,0,0,0,0-1.24L60.38,21.22a2.33,2.33,0,0,0-2.15,0L44,29.51A.65.65,0,0,0,44,30.75Z"/><path class="cls-197" d="M44,30.69l14.19,8.2a2.41,2.41,0,0,0,2.16,0l14.3-8.2a.66.66,0,0,0,0-1.25L60.38,21.16a2.33,2.33,0,0,0-2.15,0L44,29.44A.66.66,0,0,0,44,30.69Z"/><path class="cls-198" d="M44,30.63l14.19,8.2a2.41,2.41,0,0,0,2.16,0l14.3-8.2a.66.66,0,0,0,0-1.25L60.38,21.09a2.39,2.39,0,0,0-2.15,0L44,29.38A.66.66,0,0,0,44,30.63Z"/><path class="cls-199" d="M44,30.57l14.19,8.19a2.38,2.38,0,0,0,2.16,0l14.3-8.21a.65.65,0,0,0,0-1.24L60.38,21a2.39,2.39,0,0,0-2.15,0L44,29.32A.66.66,0,0,0,44,30.57Z"/><path class="cls-200" d="M44,30.51,58.17,38.7a2.38,2.38,0,0,0,2.16,0l14.3-8.2a.65.65,0,0,0,0-1.24L60.38,21a2.39,2.39,0,0,0-2.15,0L44,29.26C43.38,29.6,43.38,30.16,44,30.51Z"/><path class="cls-201" d="M44,30.44l14.19,8.2a2.41,2.41,0,0,0,2.16,0l14.3-8.2a.65.65,0,0,0,0-1.24L60.38,20.91a2.33,2.33,0,0,0-2.15,0L44,29.2A.65.65,0,0,0,44,30.44Z"/><path class="cls-202" d="M44,30.38l14.19,8.2a2.41,2.41,0,0,0,2.16,0l14.3-8.2a.65.65,0,0,0,0-1.24L60.38,20.85a2.33,2.33,0,0,0-2.15,0L44,29.14A.65.65,0,0,0,44,30.38Z"/><path class="cls-203" d="M44,30.32l14.19,8.2a2.41,2.41,0,0,0,2.16,0l14.3-8.2a.66.66,0,0,0,0-1.25L60.38,20.78a2.39,2.39,0,0,0-2.15,0L44,29.07A.66.66,0,0,0,44,30.32Z"/><path class="cls-204" d="M44,30.26l14.19,8.19a2.38,2.38,0,0,0,2.16,0l14.3-8.21a.65.65,0,0,0,0-1.24L60.38,20.72a2.39,2.39,0,0,0-2.15,0L44,29A.66.66,0,0,0,44,30.26Z"/><path class="cls-205" d="M44,30.2l14.19,8.19a2.35,2.35,0,0,0,2.16,0l14.3-8.2a.65.65,0,0,0,0-1.24L60.38,20.66a2.39,2.39,0,0,0-2.15,0L44,29C43.38,29.29,43.38,29.85,44,30.2Z"/><path class="cls-206" d="M44,30.13l14.19,8.2a2.41,2.41,0,0,0,2.16,0l14.3-8.2a.65.65,0,0,0,0-1.24L60.38,20.6a2.33,2.33,0,0,0-2.15,0L44,28.89A.65.65,0,0,0,44,30.13Z"/><path class="cls-207" d="M44,30.07l14.19,8.2a2.41,2.41,0,0,0,2.16,0l14.3-8.2a.65.65,0,0,0,0-1.24L60.38,20.54a2.33,2.33,0,0,0-2.15,0L44,28.83A.65.65,0,0,0,44,30.07Z"/><path class="cls-208" d="M44,30l14.19,8.2a2.41,2.41,0,0,0,2.16,0L74.63,30a.66.66,0,0,0,0-1.25L60.38,20.47a2.39,2.39,0,0,0-2.15,0L44,28.76A.66.66,0,0,0,44,30Z"/><path class="cls-209" d="M44,30l14.19,8.19a2.38,2.38,0,0,0,2.16,0l14.3-8.21a.65.65,0,0,0,0-1.24L60.38,20.41a2.39,2.39,0,0,0-2.15,0L44,28.7A.66.66,0,0,0,44,30Z"/><path class="cls-210" d="M44,29.89l14.19,8.19a2.38,2.38,0,0,0,2.16,0l14.3-8.21a.65.65,0,0,0,0-1.24L60.38,20.35a2.39,2.39,0,0,0-2.15,0L44,28.64C43.38,29,43.38,29.54,44,29.89Z"/><path class="cls-211" d="M44,29.82,58.17,38a2.41,2.41,0,0,0,2.16,0l14.3-8.2a.65.65,0,0,0,0-1.24L60.38,20.29a2.33,2.33,0,0,0-2.15,0L44,28.58A.65.65,0,0,0,44,29.82Z"/><path class="cls-212" d="M44,29.76,58.17,38a2.41,2.41,0,0,0,2.16,0l14.3-8.2a.65.65,0,0,0,0-1.24L60.38,20.23a2.33,2.33,0,0,0-2.15,0L44,28.52A.65.65,0,0,0,44,29.76Z"/><path class="cls-213" d="M44,29.7l14.19,8.2a2.41,2.41,0,0,0,2.16,0l14.3-8.2a.66.66,0,0,0,0-1.25L60.38,20.16a2.39,2.39,0,0,0-2.15,0L44,28.45A.66.66,0,0,0,44,29.7Z"/><path class="cls-214" d="M44,29.64l14.19,8.19a2.38,2.38,0,0,0,2.16,0l14.3-8.21a.65.65,0,0,0,0-1.24L60.38,20.1a2.39,2.39,0,0,0-2.15,0L44,28.39A.66.66,0,0,0,44,29.64Z"/><path class="cls-214" d="M44,29.58l14.19,8.19a2.38,2.38,0,0,0,2.16,0l14.3-8.21a.65.65,0,0,0,0-1.24L60.38,20a2.39,2.39,0,0,0-2.15,0L44,28.33C43.38,28.67,43.38,29.23,44,29.58Z"/><path class="cls-215" d="M44,29.51l14.19,8.2a2.41,2.41,0,0,0,2.16,0l14.3-8.2a.65.65,0,0,0,0-1.24L60.38,20a2.33,2.33,0,0,0-2.15,0L44,28.27A.65.65,0,0,0,44,29.51Z"/><path class="cls-216" d="M44,29.45l14.19,8.2a2.41,2.41,0,0,0,2.16,0l14.3-8.2a.65.65,0,0,0,0-1.24L60.38,19.92a2.33,2.33,0,0,0-2.15,0L44,28.21A.65.65,0,0,0,44,29.45Z"/><path class="cls-217" d="M44,29.39l14.19,8.2a2.41,2.41,0,0,0,2.16,0l14.3-8.2a.66.66,0,0,0,0-1.25L60.38,19.85a2.39,2.39,0,0,0-2.15,0L44,28.14A.66.66,0,0,0,44,29.39Z"/><path class="cls-218" d="M44,29.33l14.19,8.19a2.38,2.38,0,0,0,2.16,0l14.3-8.21a.65.65,0,0,0,0-1.24L60.38,19.79a2.39,2.39,0,0,0-2.15,0L44,28.08A.66.66,0,0,0,44,29.33Z"/><path class="cls-219" d="M44,29.27l14.19,8.19a2.38,2.38,0,0,0,2.16,0l14.3-8.21a.65.65,0,0,0,0-1.24L60.38,19.73a2.39,2.39,0,0,0-2.15,0L44,28C43.38,28.36,43.38,28.92,44,29.27Z"/><path class="cls-220" d="M44,29.2l14.19,8.2a2.41,2.41,0,0,0,2.16,0l14.3-8.2a.65.65,0,0,0,0-1.24L60.38,19.67a2.33,2.33,0,0,0-2.15,0L44,28A.65.65,0,0,0,44,29.2Z"/><path class="cls-221" d="M44,29.14l14.19,8.2a2.41,2.41,0,0,0,2.16,0l14.3-8.2a.65.65,0,0,0,0-1.24L60.38,19.61a2.33,2.33,0,0,0-2.15,0L44,27.9A.65.65,0,0,0,44,29.14Z"/><path class="cls-222" d="M44,29.08l14.19,8.2a2.41,2.41,0,0,0,2.16,0l14.3-8.2a.66.66,0,0,0,0-1.25L60.38,19.54a2.39,2.39,0,0,0-2.15,0L44,27.83A.66.66,0,0,0,44,29.08Z"/><path class="cls-223" d="M44,29l14.19,8.19a2.38,2.38,0,0,0,2.16,0L74.63,29a.65.65,0,0,0,0-1.24L60.38,19.48a2.39,2.39,0,0,0-2.15,0L44,27.77A.66.66,0,0,0,44,29Z"/><path class="cls-224" d="M44,29l14.19,8.19a2.38,2.38,0,0,0,2.16,0L74.63,29a.65.65,0,0,0,0-1.24L60.38,19.42a2.39,2.39,0,0,0-2.15,0L44,27.71C43.38,28.05,43.38,28.61,44,29Z"/><path class="cls-225" d="M44,28.89l14.19,8.2a2.38,2.38,0,0,0,2.16,0l14.3-8.2a.65.65,0,0,0,0-1.24L60.38,19.36a2.33,2.33,0,0,0-2.15,0L44,27.65A.65.65,0,0,0,44,28.89Z"/><path class="cls-226" d="M44,28.83,58.17,37a2.41,2.41,0,0,0,2.16,0l14.3-8.2a.65.65,0,0,0,0-1.24L60.38,19.3a2.33,2.33,0,0,0-2.15,0L44,27.59A.65.65,0,0,0,44,28.83Z"/><path class="cls-227" d="M44,28.77,58.17,37a2.41,2.41,0,0,0,2.16,0l14.3-8.2a.66.66,0,0,0,0-1.25L60.38,19.24a2.33,2.33,0,0,0-2.15,0L44,27.52A.66.66,0,0,0,44,28.77Z"/><path class="cls-228" d="M44,28.71,58.17,36.9a2.38,2.38,0,0,0,2.16,0l14.3-8.2a.66.66,0,0,0,0-1.25L60.38,19.17a2.39,2.39,0,0,0-2.15,0L44,27.46A.66.66,0,0,0,44,28.71Z"/><path class="cls-229" d="M44,28.65l14.19,8.19a2.38,2.38,0,0,0,2.16,0l14.3-8.21a.65.65,0,0,0,0-1.24L60.38,19.11a2.39,2.39,0,0,0-2.15,0L44,27.4A.66.66,0,0,0,44,28.65Z"/><path class="cls-230" d="M44,28.58l14.19,8.2a2.38,2.38,0,0,0,2.16,0l14.3-8.2a.65.65,0,0,0,0-1.24L60.38,19.05a2.33,2.33,0,0,0-2.15,0L44,27.34A.65.65,0,0,0,44,28.58Z"/><path class="cls-231" d="M44,28.52l14.19,8.2a2.41,2.41,0,0,0,2.16,0l14.3-8.2a.65.65,0,0,0,0-1.24L60.38,19a2.33,2.33,0,0,0-2.15,0L44,27.28A.65.65,0,0,0,44,28.52Z"/><path class="cls-232" d="M44,28.46l14.19,8.2a2.41,2.41,0,0,0,2.16,0l14.3-8.2a.66.66,0,0,0,0-1.25L60.38,18.93a2.33,2.33,0,0,0-2.15,0L44,27.21A.66.66,0,0,0,44,28.46Z"/><path class="cls-233" d="M44,28.4l14.19,8.19a2.38,2.38,0,0,0,2.16,0l14.3-8.2a.66.66,0,0,0,0-1.25L60.38,18.86a2.39,2.39,0,0,0-2.15,0L44,27.15A.66.66,0,0,0,44,28.4Z"/><path class="cls-234" d="M44,28.34l14.19,8.19a2.38,2.38,0,0,0,2.16,0l14.3-8.21a.65.65,0,0,0,0-1.24L60.38,18.8a2.39,2.39,0,0,0-2.15,0L44,27.09A.66.66,0,0,0,44,28.34Z"/><path class="cls-235" d="M44,28.27l14.19,8.2a2.38,2.38,0,0,0,2.16,0l14.3-8.2a.65.65,0,0,0,0-1.24L60.38,18.74a2.33,2.33,0,0,0-2.15,0L44,27A.65.65,0,0,0,44,28.27Z"/><path class="cls-236" d="M44,28.21l14.19,8.2a2.41,2.41,0,0,0,2.16,0l14.3-8.2a.65.65,0,0,0,0-1.24L60.38,18.68a2.33,2.33,0,0,0-2.15,0L44,27A.65.65,0,0,0,44,28.21Z"/><circle class="cls-1" cx="102.04" cy="1.12" r="0.46"/><path class="cls-193" d="M87.13,28.06l7.37,4.25a1.23,1.23,0,0,0,1.12,0l7.43-4.26c.31-.17.31-.46,0-.64l-7.4-4.31a1.23,1.23,0,0,0-1.12,0l-7.4,4.31A.34.34,0,0,0,87.13,28.06Z"/><path class="cls-194" d="M87.13,28l7.37,4.26a1.23,1.23,0,0,0,1.12,0L103.05,28c.31-.18.31-.46,0-.64l-7.4-4.31a1.23,1.23,0,0,0-1.12,0l-7.4,4.31C86.82,27.56,86.82,27.85,87.13,28Z"/><path class="cls-195" d="M87.13,28l7.37,4.26a1.23,1.23,0,0,0,1.12,0L103.05,28a.34.34,0,0,0,0-.65L95.65,23a1.23,1.23,0,0,0-1.12,0l-7.4,4.3A.34.34,0,0,0,87.13,28Z"/><path class="cls-196" d="M87.13,28l7.37,4.26a1.26,1.26,0,0,0,1.12,0L103.05,28a.34.34,0,0,0,0-.65L95.65,23a1.23,1.23,0,0,0-1.12,0l-7.4,4.3A.34.34,0,0,0,87.13,28Z"/><path class="cls-197" d="M87.13,27.93l7.37,4.25a1.26,1.26,0,0,0,1.12,0l7.43-4.26a.34.34,0,0,0,0-.65L95.65,23a1.29,1.29,0,0,0-1.12,0l-7.4,4.31A.34.34,0,0,0,87.13,27.93Z"/><path class="cls-198" d="M87.13,27.9l7.37,4.25a1.23,1.23,0,0,0,1.12,0l7.43-4.26c.31-.17.31-.46,0-.64l-7.4-4.31a1.23,1.23,0,0,0-1.12,0l-7.4,4.31A.34.34,0,0,0,87.13,27.9Z"/><path class="cls-199" d="M87.13,27.86l7.37,4.26a1.23,1.23,0,0,0,1.12,0l7.43-4.26c.31-.18.31-.47,0-.64l-7.4-4.31a1.23,1.23,0,0,0-1.12,0l-7.4,4.31C86.82,27.39,86.82,27.68,87.13,27.86Z"/><path class="cls-200" d="M87.13,27.83l7.37,4.26a1.23,1.23,0,0,0,1.12,0l7.43-4.26a.34.34,0,0,0,0-.65l-7.4-4.3a1.23,1.23,0,0,0-1.12,0l-7.4,4.3A.34.34,0,0,0,87.13,27.83Z"/><path class="cls-201" d="M87.13,27.8l7.37,4.26a1.29,1.29,0,0,0,1.12,0l7.43-4.26a.34.34,0,0,0,0-.65l-7.4-4.3a1.23,1.23,0,0,0-1.12,0l-7.4,4.3A.34.34,0,0,0,87.13,27.8Z"/><path class="cls-202" d="M87.13,27.77,94.5,32a1.26,1.26,0,0,0,1.12,0l7.43-4.27c.31-.17.31-.46,0-.64l-7.4-4.31a1.23,1.23,0,0,0-1.12,0l-7.4,4.31A.34.34,0,0,0,87.13,27.77Z"/><path class="cls-203" d="M87.13,27.73,94.5,32a1.23,1.23,0,0,0,1.12,0l7.43-4.26c.31-.17.31-.46,0-.64l-7.4-4.31a1.23,1.23,0,0,0-1.12,0l-7.4,4.31C86.82,27.27,86.82,27.56,87.13,27.73Z"/><path class="cls-204" d="M87.13,27.7,94.5,32a1.23,1.23,0,0,0,1.12,0l7.43-4.26a.34.34,0,0,0,0-.65l-7.4-4.3a1.23,1.23,0,0,0-1.12,0l-7.4,4.3A.34.34,0,0,0,87.13,27.7Z"/><path class="cls-205" d="M87.13,27.67l7.37,4.26a1.23,1.23,0,0,0,1.12,0l7.43-4.26a.34.34,0,0,0,0-.65l-7.4-4.3a1.23,1.23,0,0,0-1.12,0L87.13,27A.34.34,0,0,0,87.13,27.67Z"/><path class="cls-206" d="M87.13,27.64l7.37,4.25a1.26,1.26,0,0,0,1.12,0l7.43-4.26a.34.34,0,0,0,0-.65l-7.4-4.31a1.29,1.29,0,0,0-1.12,0L87.13,27A.34.34,0,0,0,87.13,27.64Z"/><path class="cls-207" d="M87.13,27.61l7.37,4.25a1.23,1.23,0,0,0,1.12,0l7.43-4.26c.31-.17.31-.46,0-.64l-7.4-4.31a1.23,1.23,0,0,0-1.12,0L87.13,27A.34.34,0,0,0,87.13,27.61Z"/><path class="cls-208" d="M87.13,27.57l7.37,4.26a1.23,1.23,0,0,0,1.12,0l7.43-4.26c.31-.18.31-.46,0-.64l-7.4-4.31a1.23,1.23,0,0,0-1.12,0l-7.4,4.31C86.82,27.11,86.82,27.39,87.13,27.57Z"/><path class="cls-209" d="M87.13,27.54,94.5,31.8a1.23,1.23,0,0,0,1.12,0l7.43-4.26a.34.34,0,0,0,0-.65l-7.4-4.3a1.23,1.23,0,0,0-1.12,0l-7.4,4.3A.34.34,0,0,0,87.13,27.54Z"/><path class="cls-210" d="M87.13,27.51l7.37,4.26a1.26,1.26,0,0,0,1.12,0l7.43-4.26a.34.34,0,0,0,0-.65l-7.4-4.3a1.23,1.23,0,0,0-1.12,0l-7.4,4.3A.34.34,0,0,0,87.13,27.51Z"/><path class="cls-211" d="M87.13,27.48l7.37,4.25a1.26,1.26,0,0,0,1.12,0l7.43-4.27c.31-.17.31-.46,0-.64l-7.4-4.31a1.23,1.23,0,0,0-1.12,0l-7.4,4.31A.34.34,0,0,0,87.13,27.48Z"/><path class="cls-212" d="M87.13,27.44,94.5,31.7a1.23,1.23,0,0,0,1.12,0l7.43-4.26c.31-.17.31-.46,0-.64l-7.4-4.31a1.23,1.23,0,0,0-1.12,0l-7.4,4.31C86.82,27,86.82,27.27,87.13,27.44Z"/><path class="cls-213" d="M87.13,27.41l7.37,4.26a1.23,1.23,0,0,0,1.12,0l7.43-4.26a.34.34,0,0,0,0-.65l-7.4-4.3a1.23,1.23,0,0,0-1.12,0l-7.4,4.3A.34.34,0,0,0,87.13,27.41Z"/><path class="cls-214" d="M87.13,27.38l7.37,4.26a1.23,1.23,0,0,0,1.12,0l7.43-4.26a.34.34,0,0,0,0-.65l-7.4-4.3a1.23,1.23,0,0,0-1.12,0l-7.4,4.3A.34.34,0,0,0,87.13,27.38Z"/><path class="cls-214" d="M87.13,27.35l7.37,4.26a1.29,1.29,0,0,0,1.12,0l7.43-4.26a.34.34,0,0,0,0-.65l-7.4-4.3a1.23,1.23,0,0,0-1.12,0l-7.4,4.3A.34.34,0,0,0,87.13,27.35Z"/><path class="cls-215" d="M87.13,27.32l7.37,4.25a1.23,1.23,0,0,0,1.12,0l7.43-4.26c.31-.17.31-.46,0-.64l-7.4-4.31a1.23,1.23,0,0,0-1.12,0l-7.4,4.31A.34.34,0,0,0,87.13,27.32Z"/><path class="cls-216" d="M87.13,27.28l7.37,4.26a1.23,1.23,0,0,0,1.12,0l7.43-4.26c.31-.18.31-.46,0-.64l-7.4-4.31a1.23,1.23,0,0,0-1.12,0l-7.4,4.31C86.82,26.82,86.82,27.11,87.13,27.28Z"/><path class="cls-217" d="M87.13,27.25l7.37,4.26a1.23,1.23,0,0,0,1.12,0l7.43-4.26a.34.34,0,0,0,0-.65l-7.4-4.3a1.23,1.23,0,0,0-1.12,0l-7.4,4.3A.34.34,0,0,0,87.13,27.25Z"/><path class="cls-218" d="M87.13,27.22l7.37,4.26a1.26,1.26,0,0,0,1.12,0l7.43-4.26a.34.34,0,0,0,0-.65l-7.4-4.3a1.23,1.23,0,0,0-1.12,0l-7.4,4.3A.34.34,0,0,0,87.13,27.22Z"/><path class="cls-219" d="M87.13,27.19l7.37,4.25a1.26,1.26,0,0,0,1.12,0l7.43-4.26a.34.34,0,0,0,0-.65l-7.4-4.31a1.23,1.23,0,0,0-1.12,0l-7.4,4.31A.34.34,0,0,0,87.13,27.19Z"/><path class="cls-220" d="M87.13,27.15l7.37,4.26a1.23,1.23,0,0,0,1.12,0l7.43-4.26c.31-.17.31-.46,0-.64l-7.4-4.31a1.23,1.23,0,0,0-1.12,0l-7.4,4.31C86.82,26.69,86.82,27,87.13,27.15Z"/><path class="cls-221" d="M87.13,27.12l7.37,4.26a1.23,1.23,0,0,0,1.12,0l7.43-4.26c.31-.18.31-.47,0-.64l-7.4-4.31a1.23,1.23,0,0,0-1.12,0l-7.4,4.31C86.82,26.65,86.82,26.94,87.13,27.12Z"/><path class="cls-222" d="M87.13,27.09l7.37,4.26a1.23,1.23,0,0,0,1.12,0l7.43-4.26a.34.34,0,0,0,0-.65l-7.4-4.3a1.23,1.23,0,0,0-1.12,0l-7.4,4.3A.34.34,0,0,0,87.13,27.09Z"/><path class="cls-223" d="M87.13,27.06l7.37,4.26a1.29,1.29,0,0,0,1.12,0l7.43-4.26a.34.34,0,0,0,0-.65l-7.4-4.3a1.23,1.23,0,0,0-1.12,0l-7.4,4.3A.34.34,0,0,0,87.13,27.06Z"/><path class="cls-224" d="M87.13,27l7.37,4.25a1.23,1.23,0,0,0,1.12,0L103.05,27c.31-.17.31-.46,0-.64l-7.4-4.31a1.23,1.23,0,0,0-1.12,0l-7.4,4.31A.34.34,0,0,0,87.13,27Z"/><path class="cls-225" d="M87.13,27l7.37,4.26a1.23,1.23,0,0,0,1.12,0L103.05,27c.31-.18.31-.46,0-.64L95.65,22a1.23,1.23,0,0,0-1.12,0l-7.4,4.31C86.82,26.53,86.82,26.82,87.13,27Z"/><path class="cls-226" d="M87.13,27l7.37,4.26a1.23,1.23,0,0,0,1.12,0L103.05,27a.34.34,0,0,0,0-.65L95.65,22a1.23,1.23,0,0,0-1.12,0l-7.4,4.3A.34.34,0,0,0,87.13,27Z"/><path class="cls-227" d="M87.13,26.93l7.37,4.26a1.26,1.26,0,0,0,1.12,0l7.43-4.26a.34.34,0,0,0,0-.65L95.65,22a1.23,1.23,0,0,0-1.12,0l-7.4,4.3A.34.34,0,0,0,87.13,26.93Z"/><path class="cls-228" d="M87.13,26.9l7.37,4.25a1.26,1.26,0,0,0,1.12,0l7.43-4.26a.34.34,0,0,0,0-.65l-7.4-4.31a1.29,1.29,0,0,0-1.12,0l-7.4,4.31A.34.34,0,0,0,87.13,26.9Z"/><path class="cls-229" d="M87.13,26.87l7.37,4.25a1.23,1.23,0,0,0,1.12,0l7.43-4.26c.31-.17.31-.46,0-.64l-7.4-4.31a1.23,1.23,0,0,0-1.12,0l-7.4,4.31A.34.34,0,0,0,87.13,26.87Z"/><path class="cls-230" d="M87.13,26.83l7.37,4.26a1.23,1.23,0,0,0,1.12,0l7.43-4.26c.31-.18.31-.47,0-.64l-7.4-4.31a1.23,1.23,0,0,0-1.12,0l-7.4,4.31C86.82,26.36,86.82,26.65,87.13,26.83Z"/><path class="cls-231" d="M87.13,26.8l7.37,4.26a1.23,1.23,0,0,0,1.12,0l7.43-4.26a.34.34,0,0,0,0-.65l-7.4-4.3a1.23,1.23,0,0,0-1.12,0l-7.4,4.3A.34.34,0,0,0,87.13,26.8Z"/><path class="cls-232" d="M87.13,26.77,94.5,31a1.29,1.29,0,0,0,1.12,0l7.43-4.26a.34.34,0,0,0,0-.65l-7.4-4.3a1.23,1.23,0,0,0-1.12,0l-7.4,4.3A.34.34,0,0,0,87.13,26.77Z"/><path class="cls-233" d="M87.13,26.74,94.5,31a1.26,1.26,0,0,0,1.12,0l7.43-4.27c.31-.17.31-.46,0-.64l-7.4-4.31a1.23,1.23,0,0,0-1.12,0l-7.4,4.31A.34.34,0,0,0,87.13,26.74Z"/><path class="cls-234" d="M87.13,26.7,94.5,31a1.23,1.23,0,0,0,1.12,0l7.43-4.26c.31-.17.31-.46,0-.64l-7.4-4.31a1.23,1.23,0,0,0-1.12,0l-7.4,4.31C86.82,26.24,86.82,26.53,87.13,26.7Z"/><path class="cls-235" d="M87.13,26.67l7.37,4.26a1.23,1.23,0,0,0,1.12,0l7.43-4.26a.34.34,0,0,0,0-.65l-7.4-4.3a1.23,1.23,0,0,0-1.12,0L87.13,26A.34.34,0,0,0,87.13,26.67Z"/><path class="cls-236" d="M87.13,26.64,94.5,30.9a1.23,1.23,0,0,0,1.12,0l7.43-4.26a.34.34,0,0,0,0-.65l-7.4-4.3a1.23,1.23,0,0,0-1.12,0L87.13,26A.34.34,0,0,0,87.13,26.64Z"/><text class="cls-237" transform="matrix(0.75, -0.43, 0.87, 0.5, 56.59, 29.86)">1609</text><text class="cls-238" transform="matrix(0.75, -0.43, 0.87, 0.5, 68.9, 37.37)">IC1</text><text class="cls-238" transform="matrix(0.75, -0.43, 0.87, 0.5, 35.54, 36.82)">R1</text><ellipse class="cls-239" cx="29.12" cy="26.5" rx="4.28" ry="2.86"/><polyline class="cls-240" points="25.61 20.27 25.62 26.69 25.9 27.44 26.82 28.27 27.99 28.72 29.71 28.84 31.11 28.43 31.8 28.01 32.27 27.52 32.62 26.63 32.62 26.36 32.62 20.27"/><ellipse class="cls-241" cx="29.12" cy="20.27" rx="3.51" ry="2.34"/><ellipse class="cls-242" cx="29.12" cy="20.27" rx="2.73" ry="1.95"/><line class="cls-243" x1="21.95" y1="27.03" x2="23.91" y2="28.16"/><line class="cls-243" x1="23.91" y1="27.03" x2="21.95" y2="28.16"/><line class="cls-243" x1="34.73" y1="20.84" x2="32.77" y2="21.97"/><text class="cls-238" transform="matrix(0.75, -0.43, 0.87, 0.5, 33.68, 30.71)">C1</text><polygon class="cls-244" points="41.35 36.34 36.64 39.06 34.44 37.79 39.15 35.07 41.35 36.34"/><polygon class="cls-245" points="41.35 36.35 36.64 39.08 34.44 37.8 39.15 35.09 41.35 36.35"/><polygon class="cls-246" points="41.35 36.37 36.64 39.09 34.44 37.82 39.15 35.1 41.35 36.37"/><polygon class="cls-247" points="41.35 36.38 36.64 39.1 34.44 37.84 39.15 35.12 41.35 36.38"/><polygon class="cls-248" points="41.35 36.4 36.64 39.12 34.44 37.85 39.15 35.13 41.35 36.4"/><polygon class="cls-249" points="41.35 36.41 36.64 39.13 34.44 37.87 39.15 35.15 41.35 36.41"/><polygon class="cls-250" points="41.35 36.43 36.64 39.15 34.44 37.88 39.15 35.16 41.35 36.43"/><polygon class="cls-251" points="41.35 36.45 36.64 39.16 34.44 37.9 39.15 35.17 41.35 36.45"/><polygon class="cls-252" points="41.35 36.46 36.64 39.18 34.44 37.91 39.15 35.19 41.35 36.46"/><polygon class="cls-253" points="41.35 36.48 36.64 39.2 34.44 37.92 39.15 35.2 41.35 36.48"/><polygon class="cls-254" points="41.35 36.49 36.64 39.21 34.44 37.94 39.15 35.22 41.35 36.49"/><polygon class="cls-255" points="41.35 36.51 36.64 39.23 34.44 37.95 39.15 35.23 41.35 36.51"/><polygon class="cls-256" points="41.35 36.52 36.64 39.24 34.44 37.97 39.15 35.25 41.35 36.52"/><polygon class="cls-257" points="41.35 36.53 36.64 39.26 34.44 37.98 39.15 35.26 41.35 36.53"/><polygon class="cls-257" points="41.35 36.55 36.64 39.27 34.44 38 39.15 35.28 41.35 36.55"/><polygon class="cls-258" points="41.35 36.56 36.64 39.28 34.44 38.02 39.15 35.29 41.35 36.56"/><polygon class="cls-259" points="41.35 36.58 36.64 39.3 34.44 38.03 39.15 35.31 41.35 36.58"/><polygon class="cls-260" points="41.35 36.59 36.64 39.31 34.44 38.05 39.15 35.32 41.35 36.59"/><polygon class="cls-261" points="41.35 36.61 36.64 39.33 34.44 38.06 39.15 35.34 41.35 36.61"/><polygon class="cls-262" points="41.35 36.62 36.64 39.34 34.44 38.08 39.15 35.35 41.35 36.62"/><polygon class="cls-263" points="41.35 36.64 36.64 39.36 34.44 38.09 39.15 35.37 41.35 36.64"/><polygon class="cls-264" points="41.35 36.65 36.64 39.38 34.44 38.1 39.15 35.38 41.35 36.65"/><polygon class="cls-265" points="41.35 36.67 36.64 39.39 34.44 38.12 39.15 35.4 41.35 36.67"/><polygon class="cls-266" points="41.35 36.68 36.64 39.41 34.44 38.13 39.15 35.41 41.35 36.68"/><polygon class="cls-267" points="41.35 36.7 36.64 39.42 34.44 38.15 39.15 35.43 41.35 36.7"/><polygon class="cls-268" points="41.35 36.71 36.64 39.44 34.44 38.16 39.15 35.44 41.35 36.71"/><polygon class="cls-269" points="41.35 36.73 36.64 39.45 34.44 38.18 39.15 35.46 41.35 36.73"/><polygon points="40.45 36.86 37.54 38.54 35.34 37.27 38.25 35.59 40.45 36.86"/><text class="cls-270" transform="matrix(0.75, -0.43, 0.87, 0.5, 36.99, 38.09)">R100</text><polygon class="cls-244" points="38.49 41.64 33.78 44.36 31.58 43.09 36.29 40.37 38.49 41.64"/><polygon class="cls-245" points="38.49 41.65 33.78 44.38 31.58 43.1 36.29 40.38 38.49 41.65"/><polygon class="cls-246" points="38.49 41.67 33.78 44.39 31.58 43.12 36.29 40.4 38.49 41.67"/><polygon class="cls-247" points="38.49 41.68 33.78 44.41 31.58 43.13 36.29 40.41 38.49 41.68"/><polygon class="cls-248" points="38.49 41.7 33.78 44.42 31.58 43.15 36.29 40.43 38.49 41.7"/><polygon class="cls-249" points="38.49 41.71 33.78 44.44 31.58 43.16 36.29 40.44 38.49 41.71"/><polygon class="cls-250" points="38.49 41.73 33.78 44.45 31.58 43.18 36.29 40.46 38.49 41.73"/><polygon class="cls-251" points="38.49 41.74 33.78 44.47 31.58 43.2 36.29 40.47 38.49 41.74"/><polygon class="cls-252" points="38.49 41.76 33.78 44.48 31.58 43.21 36.29 40.49 38.49 41.76"/><polygon class="cls-253" points="38.49 41.77 33.78 44.49 31.58 43.23 36.29 40.5 38.49 41.77"/><polygon class="cls-254" points="38.49 41.79 33.78 44.51 31.58 43.24 36.29 40.52 38.49 41.79"/><polygon class="cls-255" points="38.49 41.8 33.78 44.52 31.58 43.26 36.29 40.53 38.49 41.8"/><polygon class="cls-256" points="38.49 41.82 33.78 44.54 31.58 43.27 36.29 40.55 38.49 41.82"/><polygon class="cls-257" points="38.49 41.83 33.78 44.55 31.58 43.28 36.29 40.56 38.49 41.83"/><polygon class="cls-257" points="38.49 41.85 33.78 44.57 31.58 43.3 36.29 40.58 38.49 41.85"/><polygon class="cls-258" points="38.49 41.86 33.78 44.59 31.58 43.31 36.29 40.59 38.49 41.86"/><polygon class="cls-259" points="38.49 41.88 33.78 44.6 31.58 43.33 36.29 40.61 38.49 41.88"/><polygon class="cls-260" points="38.49 41.89 33.78 44.62 31.58 43.34 36.29 40.62 38.49 41.89"/><polygon class="cls-261" points="38.49 41.91 33.78 44.63 31.58 43.36 36.29 40.64 38.49 41.91"/><polygon class="cls-262" points="38.49 41.92 33.78 44.65 31.58 43.38 36.29 40.65 38.49 41.92"/><polygon class="cls-263" points="38.49 41.94 33.78 44.66 31.58 43.39 36.29 40.67 38.49 41.94"/><polygon class="cls-264" points="38.49 41.95 33.78 44.67 31.58 43.41 36.29 40.68 38.49 41.95"/><polygon class="cls-265" points="38.49 41.97 33.78 44.69 31.58 43.42 36.29 40.7 38.49 41.97"/><polygon class="cls-266" points="38.49 41.98 33.78 44.7 31.58 43.44 36.29 40.71 38.49 41.98"/><polygon class="cls-267" points="38.49 42 33.78 44.72 31.58 43.45 36.29 40.73 38.49 42"/><polygon class="cls-268" points="38.49 42.01 33.78 44.73 31.58 43.47 36.29 40.74 38.49 42.01"/><polygon class="cls-269" points="38.49 42.03 33.78 44.75 31.58 43.48 36.29 40.76 38.49 42.03"/><polygon points="37.59 42.16 34.68 43.84 32.48 42.57 35.39 40.89 37.59 42.16"/><text class="cls-270" transform="matrix(0.75, -0.43, 0.87, 0.5, 34.13, 43.39)">R100</text><polygon class="cls-244" points="47.84 40.08 43.13 42.8 40.92 41.53 45.64 38.81 47.84 40.08"/><polygon class="cls-245" points="47.84 40.1 43.13 42.82 40.92 41.55 45.64 38.83 47.84 40.1"/><polygon class="cls-246" points="47.84 40.11 43.13 42.83 40.92 41.56 45.64 38.84 47.84 40.11"/><polygon class="cls-247" points="47.84 40.13 43.13 42.85 40.92 41.58 45.64 38.86 47.84 40.13"/><polygon class="cls-248" points="47.84 40.14 43.13 42.86 40.92 41.59 45.64 38.87 47.84 40.14"/><polygon class="cls-249" points="47.84 40.16 43.13 42.88 40.92 41.61 45.64 38.89 47.84 40.16"/><polygon class="cls-250" points="47.84 40.17 43.13 42.89 40.92 41.62 45.64 38.9 47.84 40.17"/><polygon class="cls-251" points="47.84 40.19 43.13 42.91 40.92 41.64 45.64 38.92 47.84 40.19"/><polygon class="cls-252" points="47.84 40.2 43.13 42.92 40.92 41.65 45.64 38.93 47.84 40.2"/><polygon class="cls-253" points="47.84 40.22 43.13 42.94 40.92 41.67 45.64 38.95 47.84 40.22"/><polygon class="cls-254" points="47.84 40.23 43.13 42.95 40.92 41.68 45.64 38.96 47.84 40.23"/><polygon class="cls-255" points="47.84 40.25 43.13 42.97 40.92 41.7 45.64 38.98 47.84 40.25"/><polygon class="cls-256" points="47.84 40.26 43.13 42.98 40.92 41.71 45.64 38.99 47.84 40.26"/><polygon class="cls-257" points="47.84 40.28 43.13 43 40.92 41.73 45.64 39.01 47.84 40.28"/><polygon class="cls-257" points="47.84 40.29 43.13 43.01 40.92 41.74 45.64 39.02 47.84 40.29"/><polygon class="cls-258" points="47.84 40.31 43.13 43.03 40.92 41.76 45.64 39.04 47.84 40.31"/><polygon class="cls-259" points="47.84 40.32 43.13 43.04 40.92 41.77 45.64 39.05 47.84 40.32"/><polygon class="cls-260" points="47.84 40.34 43.13 43.06 40.92 41.79 45.64 39.07 47.84 40.34"/><polygon class="cls-261" points="47.84 40.35 43.13 43.07 40.92 41.8 45.64 39.08 47.84 40.35"/><polygon class="cls-262" points="47.84 40.37 43.13 43.09 40.92 41.82 45.64 39.1 47.84 40.37"/><polygon class="cls-263" points="47.84 40.38 43.13 43.1 40.92 41.83 45.64 39.11 47.84 40.38"/><polygon class="cls-264" points="47.84 40.4 43.13 43.12 40.92 41.85 45.64 39.13 47.84 40.4"/><polygon class="cls-265" points="47.84 40.41 43.13 43.13 40.92 41.86 45.64 39.14 47.84 40.41"/><polygon class="cls-266" points="47.84 40.43 43.13 43.15 40.92 41.88 45.64 39.16 47.84 40.43"/><polygon class="cls-267" points="47.84 40.44 43.13 43.16 40.92 41.89 45.64 39.17 47.84 40.44"/><polygon class="cls-268" points="47.84 40.46 43.13 43.18 40.92 41.91 45.64 39.19 47.84 40.46"/><polygon class="cls-269" points="47.84 40.47 43.13 43.19 40.92 41.92 45.64 39.2 47.84 40.47"/><polygon points="46.94 40.6 44.03 42.28 41.83 41.01 44.73 39.33 46.94 40.6"/><text class="cls-270" transform="matrix(0.75, -0.43, 0.87, 0.5, 43.47, 41.83)">R100</text><line class="cls-192" x1="52.83" y1="12.77" x2="32.58" y2="24.56"/><text class="cls-238" transform="matrix(0.75, -0.43, 0.87, 0.5, 88.02, 33.31)">IC2</text><ellipse class="cls-239" cx="55.13" cy="11" rx="4.28" ry="2.86"/><polyline class="cls-240" points="51.62 4.77 51.64 11.18 51.92 11.94 52.83 12.77 54 13.21 55.72 13.34 57.12 12.93 57.81 12.51 58.28 12.02 58.64 11.13 58.64 10.86 58.64 4.77"/><ellipse class="cls-241" cx="55.13" cy="4.77" rx="3.51" ry="2.34"/><ellipse class="cls-242" cx="55.13" cy="4.77" rx="2.73" ry="1.95"/><line class="cls-243" x1="47.96" y1="11.53" x2="49.92" y2="12.66"/><line class="cls-243" x1="49.92" y1="11.53" x2="47.96" y2="12.66"/><line class="cls-243" x1="60.86" y1="5.59" x2="58.91" y2="6.72"/><text class="cls-238" transform="matrix(0.75, -0.43, 0.87, 0.5, 59.7, 15.21)">C2</text><text class="cls-237" transform="matrix(0.75, -0.43, 0.87, 0.5, 93.58, 28.15)">2701</text><text class="cls-238" transform="matrix(0.75, -0.43, 0.87, 0.5, 31.79, 41.92)">R2</text><text class="cls-238" transform="matrix(0.75, -0.43, 0.87, 0.5, 46.98, 43.87)">R3</text><line class="cls-271" x1="49.32" y1="34.03" x2="37.34" y2="40.89"/><ellipse class="cls-272" cx="59.11" cy="35.21" rx="0.78" ry="0.52"/><ellipse class="cls-273" cx="123.61" cy="37.99" rx="2.79" ry="1.86"/><ellipse class="cls-274" cx="123.65" cy="37.85" rx="1.82" ry="1.22"/><path class="cls-275" d="M122.26,38.63a2.42,2.42,0,0,1,2.78,0,1.06,1.06,0,0,0,.43-.78c0-.67-.81-1.22-1.82-1.22s-1.82.55-1.82,1.22A1,1,0,0,0,122.26,38.63Z"/><ellipse class="cls-273" cx="64.78" cy="3.2" rx="2.79" ry="1.86"/><ellipse class="cls-274" cx="64.81" cy="3.06" rx="1.82" ry="1.22"/><path class="cls-275" d="M63.43,3.84a2.25,2.25,0,0,1,1.38-.43,2.28,2.28,0,0,1,1.39.43,1,1,0,0,0,.44-.78c0-.67-.82-1.21-1.83-1.21S63,2.39,63,3.06A1,1,0,0,0,63.43,3.84Z"/><ellipse class="cls-273" cx="6.36" cy="37.93" rx="2.79" ry="1.86"/><ellipse class="cls-274" cx="6.4" cy="37.79" rx="1.82" ry="1.22"/><path class="cls-275" d="M5,38.56a2.3,2.3,0,0,1,1.39-.43,2.28,2.28,0,0,1,1.39.43,1,1,0,0,0,.43-.77c0-.68-.81-1.22-1.82-1.22s-1.82.54-1.82,1.22A1,1,0,0,0,5,38.56Z"/><ellipse class="cls-273" cx="64.1" cy="70.78" rx="2.79" ry="1.86"/><ellipse class="cls-274" cx="64.14" cy="70.64" rx="1.82" ry="1.22"/><path class="cls-275" d="M62.75,71.42a2.42,2.42,0,0,1,2.78,0,1,1,0,0,0,.43-.78c0-.67-.81-1.21-1.82-1.21s-1.82.54-1.82,1.21A1,1,0,0,0,62.75,71.42Z"/><polygon class="cls-1" points="49.48 56.24 48.93 56.56 48.29 56.19 48.84 55.87 49.48 56.24"/><polygon class="cls-1" points="47.9 56.63 47.34 56.95 46.7 56.58 47.26 56.26 47.9 56.63"/><ellipse class="cls-239" cx="48.08" cy="56.06" rx="2.26" ry="1.41"/><text class="cls-238" transform="matrix(0.75, -0.43, 0.87, 0.5, 51.1, 59.77)">D1</text><ellipse class="cls-276" cx="47.97" cy="54.59" rx="1.05" ry="1.86" transform="translate(-12.02 95.6) rotate(-83.05)"/><ellipse class="cls-277" cx="47.97" cy="54.62" rx="1.05" ry="1.86" transform="translate(-12.06 95.63) rotate(-83.05)"/><ellipse class="cls-278" cx="47.96" cy="54.66" rx="1.05" ry="1.86" transform="translate(-12.1 95.66) rotate(-83.05)"/><ellipse class="cls-279" cx="47.96" cy="54.7" rx="1.05" ry="1.86" transform="translate(-12.14 95.69) rotate(-83.05)"/><ellipse class="cls-279" cx="47.95" cy="54.74" rx="1.05" ry="1.86" transform="translate(-12.19 95.72) rotate(-83.05)"/><ellipse class="cls-280" cx="47.95" cy="54.78" rx="1.05" ry="1.86" transform="translate(-12.23 95.75) rotate(-83.05)"/><ellipse class="cls-281" cx="47.95" cy="54.82" rx="1.05" ry="1.86" transform="translate(-12.27 95.78) rotate(-83.05)"/><polyline class="cls-282" points="48.86 56.22 48.86 52.64 48.42 53.42"/><polyline class="cls-282" points="47.3 56.61 47.3 53.03 47.79 53.46"/><ellipse class="cls-283" cx="48.08" cy="53.35" rx="0.21" ry="0.35" transform="translate(-10.7 94.62) rotate(-83.05)"/><ellipse class="cls-284" cx="48.08" cy="53.31" rx="0.23" ry="0.37" transform="translate(-10.66 94.59) rotate(-83.05)"/><ellipse class="cls-285" cx="48.08" cy="53.27" rx="0.24" ry="0.39" transform="translate(-10.62 94.56) rotate(-83.05)"/><ellipse class="cls-286" cx="48.08" cy="53.24" rx="0.25" ry="0.42" transform="translate(-10.58 94.52) rotate(-83.05)"/><ellipse class="cls-287" cx="48.08" cy="53.2" rx="0.27" ry="0.44" transform="translate(-10.55 94.49) rotate(-83.05)"/><ellipse class="cls-288" cx="48.08" cy="53.16" rx="0.28" ry="0.46" transform="translate(-10.51 94.46) rotate(-83.05)"/><ellipse class="cls-289" cx="48.08" cy="53.12" rx="0.29" ry="0.48" transform="translate(-10.47 94.42) rotate(-83.05)"/><ellipse class="cls-290" cx="48.08" cy="53.08" rx="0.31" ry="0.5" transform="translate(-10.43 94.39) rotate(-83.05)"/><ellipse class="cls-291" cx="48.08" cy="53.05" rx="0.32" ry="0.52" transform="translate(-10.39 94.35) rotate(-83.05)"/><ellipse class="cls-292" cx="48.08" cy="53.01" rx="0.33" ry="0.54" transform="translate(-10.36 94.32) rotate(-83.05)"/><ellipse class="cls-293" cx="48.08" cy="52.97" rx="0.35" ry="0.56" transform="translate(-10.32 94.29) rotate(-83.05)"/><ellipse class="cls-244" cx="48.08" cy="52.93" rx="0.36" ry="0.58" transform="translate(-10.28 94.25) rotate(-83.05)"/><path class="cls-278" d="M48.07,50c-.86,0-1.55.49-1.55,1.09v3.27c0,.61.69,1.09,1.55,1.09s1.56-.48,1.56-1.09V51C49.63,50.44,48.93,50,48.07,50Z"/><ellipse class="cls-294" cx="47.3" cy="50.77" rx="0.68" ry="0.41" transform="translate(-21.84 56.69) rotate(-51.92)"/><path class="cls-294" d="M47,51.56a.4.4,0,0,0-.4.4V54.1a.4.4,0,0,0,.8,0V52A.4.4,0,0,0,47,51.56Z"/><polygon class="cls-1" points="58.73 51.41 58.18 51.73 57.54 51.36 58.09 51.04 58.73 51.41"/><polygon class="cls-1" points="57.14 51.8 56.59 52.12 55.95 51.75 56.5 51.43 57.14 51.8"/><ellipse class="cls-239" cx="57.32" cy="51.23" rx="2.26" ry="1.41"/><text class="cls-238" transform="matrix(0.75, -0.43, 0.87, 0.5, 60.34, 54.94)">D2</text><ellipse class="cls-276" cx="57.22" cy="49.75" rx="1.05" ry="1.86" transform="translate(0.91 100.53) rotate(-83.05)"/><ellipse class="cls-277" cx="57.21" cy="49.79" rx="1.05" ry="1.86" transform="translate(0.87 100.56) rotate(-83.05)"/><ellipse class="cls-278" cx="57.21" cy="49.83" rx="1.05" ry="1.86" transform="translate(0.82 100.59) rotate(-83.05)"/><ellipse class="cls-279" cx="57.2" cy="49.87" rx="1.05" ry="1.86" transform="translate(0.78 100.62) rotate(-83.05)"/><ellipse class="cls-279" cx="57.2" cy="49.91" rx="1.05" ry="1.86" transform="translate(0.74 100.65) rotate(-83.05)"/><ellipse class="cls-280" cx="57.19" cy="49.95" rx="1.05" ry="1.86" transform="translate(0.7 100.68) rotate(-83.05)"/><ellipse class="cls-281" cx="57.19" cy="49.98" rx="1.05" ry="1.86" transform="translate(0.65 100.71) rotate(-83.05)"/><polyline class="cls-282" points="58.1 51.38 58.1 47.81 57.67 48.59"/><polyline class="cls-282" points="56.55 51.77 56.55 48.2 57.03 48.63"/><ellipse class="cls-283" cx="57.32" cy="48.52" rx="0.21" ry="0.35" transform="translate(2.23 99.55) rotate(-83.05)"/><ellipse class="cls-284" cx="57.32" cy="48.48" rx="0.23" ry="0.37" transform="translate(2.27 99.52) rotate(-83.05)"/><ellipse class="cls-285" cx="57.32" cy="48.44" rx="0.24" ry="0.39" transform="translate(2.3 99.48) rotate(-83.05)"/><ellipse class="cls-286" cx="57.32" cy="48.4" rx="0.25" ry="0.42" transform="translate(2.34 99.45) rotate(-83.05)"/><ellipse class="cls-287" cx="57.32" cy="48.37" rx="0.27" ry="0.44" transform="translate(2.38 99.42) rotate(-83.05)"/><ellipse class="cls-288" cx="57.32" cy="48.33" rx="0.28" ry="0.46" transform="translate(2.42 99.38) rotate(-83.05)"/><ellipse class="cls-289" cx="57.32" cy="48.29" rx="0.29" ry="0.48" transform="translate(2.45 99.35) rotate(-83.05)"/><ellipse class="cls-290" cx="57.32" cy="48.25" rx="0.31" ry="0.5" transform="translate(2.49 99.32) rotate(-83.05)"/><ellipse class="cls-291" cx="57.32" cy="48.21" rx="0.32" ry="0.52" transform="translate(2.53 99.28) rotate(-83.05)"/><ellipse class="cls-292" cx="57.32" cy="48.18" rx="0.33" ry="0.54" transform="translate(2.57 99.25) rotate(-83.05)"/><ellipse class="cls-293" cx="57.32" cy="48.14" rx="0.35" ry="0.56" transform="translate(2.61 99.22) rotate(-83.05)"/><ellipse class="cls-244" cx="57.32" cy="48.1" rx="0.36" ry="0.58" transform="translate(2.64 99.18) rotate(-83.05)"/><path class="cls-278" d="M57.32,45.12c-.86,0-1.56.49-1.56,1.09v3.27c0,.6.7,1.09,1.56,1.09s1.56-.49,1.56-1.09V46.21C58.88,45.61,58.18,45.12,57.32,45.12Z"/><ellipse class="cls-294" cx="56.55" cy="45.94" rx="0.68" ry="0.41" transform="translate(-14.49 62.12) rotate(-51.92)"/><path class="cls-294" d="M56.28,46.73a.39.39,0,0,0-.39.4v2.14a.38.38,0,0,0,.39.39.39.39,0,0,0,.4-.39V47.13A.4.4,0,0,0,56.28,46.73Z"/></g></g></svg>