<svg xmlns="http://www.w3.org/2000/svg" viewBox="0 0 100 100"><defs><style>.cls-1{fill:#009dff;}.cls-2{fill:#009eff;}.cls-3{fill:#009fff;}.cls-4{fill:#00a0ff;}.cls-5{fill:#00a1ff;}.cls-6{fill:#00a2ff;}.cls-7{fill:#00a3ff;}.cls-8{fill:#00a4ff;}.cls-9{fill:#00a5ff;}.cls-10{fill:#00a6ff;}.cls-11{fill:#00a7ff;}.cls-12{fill:#00a8ff;}.cls-13{fill:#00a9ff;}.cls-14{fill:#0af;}.cls-15{fill:#00abff;}.cls-16{fill:#00acff;}.cls-17{fill:#00adff;}.cls-18{fill:#00aeff;}.cls-19{fill:#00afff;}.cls-20{fill:#00b0ff;}.cls-21{fill:#00b1ff;}.cls-22{fill:#00b2ff;}.cls-23{fill:#00b3ff;}.cls-24{fill:#00b4ff;}.cls-25{fill:#00b5ff;}.cls-26{fill:#00b6ff;}.cls-27{fill:#00b7ff;}.cls-28{fill:#00b8ff;}.cls-29{fill:#00b9ff;}.cls-30{fill:#00baff;}.cls-31{fill:#0bf;}.cls-32{fill:#00bcff;}.cls-33{fill:#00bdff;}.cls-34{fill:#00beff;}.cls-35{fill:#00bfff;}.cls-36{fill:#00c0ff;}.cls-37{fill:#00c1ff;}.cls-38,.cls-39,.cls-50,.cls-51{fill:none;}.cls-38{stroke:#005eff;stroke-width:2px;}.cls-38,.cls-39,.cls-50,.cls-51,.cls-54{stroke-miterlimit:10;}.cls-39{stroke:#0086ff;}.cls-40{fill:#0069ff;}.cls-41,.cls-54{fill:#0086ff;}.cls-42{fill:#0053ff;}.cls-43{fill:#0068ff;}.cls-44{fill:#0067ff;}.cls-45{fill:#007aff;}.cls-46,.cls-47{fill:#0083ff;}.cls-46{opacity:0.76;}.cls-48{fill:#00daff;}.cls-49{fill:#0051ff;}.cls-50{stroke:#0083ff;}.cls-51{stroke:#006dff;}.cls-52{fill:#0030ff;}.cls-53{fill:#0074ff;}.cls-54{stroke:#0059ff;}</style></defs><g id="Landing-Page"><polygon class="cls-1" points="58.15 93.91 48.71 99.36 34.55 91.18 58.16 77.55 72.32 85.73 58.15 93.91"/><polygon class="cls-2" points="58.15 93.76 48.71 99.21 34.55 91.03 58.16 77.4 72.32 85.58 58.15 93.76"/><polygon class="cls-3" points="58.15 93.61 48.71 99.06 34.55 90.88 58.16 77.25 72.32 85.43 58.15 93.61"/><polygon class="cls-4" points="58.15 93.46 48.71 98.91 34.55 90.74 58.16 77.11 72.32 85.28 58.15 93.46"/><polygon class="cls-5" points="58.15 93.31 48.71 98.77 34.55 90.59 58.16 76.96 72.32 85.14 58.15 93.31"/><polygon class="cls-6" points="58.15 93.17 48.71 98.62 34.55 90.44 58.16 76.81 72.32 84.99 58.15 93.17"/><polygon class="cls-7" points="58.15 93.02 48.71 98.47 34.55 90.3 58.16 76.67 72.32 84.84 58.15 93.02"/><polygon class="cls-8" points="58.15 92.87 48.71 98.33 34.55 90.15 58.16 76.52 72.32 84.7 58.15 92.87"/><polygon class="cls-9" points="58.15 92.73 48.71 98.18 34.55 90 58.16 76.37 72.32 84.55 58.15 92.73"/><polygon class="cls-10" points="58.15 92.58 48.71 98.03 34.55 89.85 58.16 76.22 72.32 84.4 58.15 92.58"/><polygon class="cls-11" points="58.15 92.43 48.71 97.88 34.55 89.7 58.16 76.08 72.32 84.25 58.15 92.43"/><polygon class="cls-12" points="58.15 92.28 48.71 97.73 34.55 89.56 58.16 75.93 72.32 84.11 58.15 92.28"/><polygon class="cls-13" points="58.15 92.14 48.71 97.59 34.55 89.41 58.16 75.78 72.32 83.96 58.15 92.14"/><polygon class="cls-14" points="58.15 91.99 48.71 97.44 34.55 89.26 58.16 75.63 72.32 83.81 58.15 91.99"/><polygon class="cls-15" points="58.15 91.84 48.71 97.29 34.55 89.12 58.16 75.49 72.32 83.66 58.15 91.84"/><polygon class="cls-16" points="58.15 91.69 48.71 97.15 34.55 88.97 58.16 75.34 72.32 83.52 58.15 91.69"/><polygon class="cls-17" points="58.15 91.55 48.71 97 34.55 88.82 58.16 75.19 72.32 83.37 58.15 91.55"/><polygon class="cls-18" points="58.15 91.4 48.71 96.85 34.55 88.67 58.16 75.05 72.32 83.22 58.15 91.4"/><polygon class="cls-19" points="58.15 91.25 48.71 96.7 34.55 88.53 58.16 74.9 72.32 83.08 58.15 91.25"/><polygon class="cls-19" points="58.15 91.11 48.71 96.56 34.55 88.38 58.16 74.75 72.32 82.93 58.15 91.11"/><polygon class="cls-20" points="58.15 90.96 48.71 96.41 34.55 88.23 58.16 74.6 72.32 82.78 58.15 90.96"/><polygon class="cls-21" points="58.15 90.81 48.71 96.26 34.55 88.08 58.16 74.45 72.32 82.63 58.15 90.81"/><polygon class="cls-22" points="58.15 90.66 48.71 96.11 34.55 87.94 58.16 74.31 72.32 82.48 58.15 90.66"/><polygon class="cls-23" points="58.15 90.52 48.71 95.97 34.55 87.79 58.16 74.16 72.32 82.34 58.15 90.52"/><polygon class="cls-24" points="58.15 90.37 48.71 95.82 34.55 87.64 58.16 74.01 72.32 82.19 58.15 90.37"/><polygon class="cls-25" points="58.15 90.22 48.71 95.67 34.55 87.5 58.16 73.87 72.32 82.04 58.15 90.22"/><polygon class="cls-26" points="58.15 90.07 48.71 95.53 34.55 87.35 58.16 73.72 72.32 81.9 58.15 90.07"/><polygon class="cls-27" points="58.15 89.93 48.71 95.38 34.55 87.2 58.16 73.57 72.32 81.75 58.15 89.93"/><polygon class="cls-28" points="58.15 89.78 48.71 95.23 34.55 87.05 58.16 73.42 72.32 81.6 58.15 89.78"/><polygon class="cls-29" points="58.15 89.63 48.71 95.08 34.55 86.91 58.16 73.28 72.32 81.45 58.15 89.63"/><polygon class="cls-30" points="58.15 89.48 48.71 94.94 34.55 86.76 58.16 73.13 72.32 81.31 58.15 89.48"/><polygon class="cls-31" points="58.15 89.34 48.71 94.79 34.55 86.61 58.16 72.98 72.32 81.16 58.15 89.34"/><polygon class="cls-32" points="58.15 89.19 48.71 94.64 34.55 86.46 58.16 72.83 72.32 81.01 58.15 89.19"/><polygon class="cls-33" points="58.15 89.04 48.71 94.49 34.55 86.32 58.16 72.69 72.32 80.86 58.15 89.04"/><polygon class="cls-34" points="58.15 88.89 48.71 94.35 34.55 86.17 58.16 72.54 72.32 80.72 58.15 88.89"/><polygon class="cls-35" points="58.15 88.75 48.71 94.2 34.55 86.02 58.16 72.39 72.32 80.57 58.15 88.75"/><polygon class="cls-36" points="58.15 88.6 48.71 94.05 34.55 85.87 58.16 72.25 72.32 80.42 58.15 88.6"/><polygon class="cls-37" points="58.15 88.45 48.71 93.9 34.55 85.73 58.16 72.1 72.32 80.28 58.15 88.45"/><line class="cls-38" x1="53.43" y1="80.28" x2="48.71" y2="83"/><line class="cls-38" x1="58.15" y1="83" x2="53.43" y2="80.28"/><line class="cls-39" x1="53.43" y1="85.73" x2="58.15" y2="83"/><line class="cls-39" x1="48.71" y1="83" x2="53.43" y2="85.73"/><line class="cls-38" x1="53.43" y1="25.76" x2="48.71" y2="28.48"/><line class="cls-38" x1="53.43" y1="31.21" x2="48.71" y2="33.94"/><line class="cls-38" x1="53.43" y1="36.66" x2="48.71" y2="39.39"/><polyline class="cls-38" points="48.71 77.55 53.43 74.82 58.15 77.55"/><polyline class="cls-38" points="48.71 72.1 53.43 69.37 58.16 72.1"/><line class="cls-39" x1="53.43" y1="80.28" x2="48.71" y2="77.55"/><line class="cls-39" x1="53.43" y1="74.82" x2="48.71" y2="72.1"/><line class="cls-39" x1="58.15" y1="72.1" x2="53.43" y2="74.82"/><line class="cls-38" x1="53.43" y1="53.02" x2="48.71" y2="55.74"/><path class="cls-39" d="M53.81,25.45,58,23.19c.2-.12.2-.3,0-.41l-4.19-2.27a.92.92,0,0,0-.76,0l-4.18,2.27c-.21.11-.21.29,0,.41l4.18,2.26A.85.85,0,0,0,53.81,25.45Z"/><line class="cls-38" x1="53.43" y1="47.56" x2="48.71" y2="50.29"/><line class="cls-38" x1="53.43" y1="63.92" x2="48.71" y2="66.65"/><line class="cls-39" x1="53.43" y1="58.47" x2="48.71" y2="55.74"/><line class="cls-38" x1="53.43" y1="42.11" x2="48.71" y2="44.84"/><line class="cls-39" x1="48.71" y1="50.29" x2="53.43" y2="53.02"/><line class="cls-39" x1="48.71" y1="39.39" x2="53.43" y2="42.11"/><line class="cls-39" x1="53.43" y1="69.37" x2="48.71" y2="66.65"/><line class="cls-39" x1="48.71" y1="44.84" x2="53.43" y2="47.56"/><line class="cls-38" x1="53.43" y1="63.92" x2="58.15" y2="66.65"/><line class="cls-39" x1="48.71" y1="33.94" x2="53.43" y2="36.66"/><line class="cls-38" x1="53.43" y1="58.47" x2="58.15" y2="61.19"/><line class="cls-39" x1="58.15" y1="66.65" x2="53.43" y2="69.37"/><line class="cls-38" x1="53.43" y1="58.47" x2="48.71" y2="61.19"/><line class="cls-39" x1="58.15" y1="77.55" x2="53.43" y2="80.28"/><line class="cls-38" x1="53.43" y1="36.66" x2="58.15" y2="39.39"/><path class="cls-39" d="M48.72,23h0V83s0,0,0,0l4.7,2.71h0v-60Z"/><line class="cls-39" x1="53.43" y1="63.92" x2="48.71" y2="61.19"/><line class="cls-39" x1="58.15" y1="61.19" x2="53.43" y2="63.92"/><line class="cls-38" x1="53.43" y1="53.02" x2="58.15" y2="55.74"/><line class="cls-38" x1="53.43" y1="47.56" x2="58.15" y2="50.29"/><line class="cls-38" x1="53.43" y1="31.21" x2="58.15" y2="33.93"/><line class="cls-38" x1="53.43" y1="42.11" x2="58.15" y2="44.84"/><line class="cls-38" x1="53.43" y1="25.76" x2="58.15" y2="28.48"/><line class="cls-39" x1="58.15" y1="39.39" x2="53.43" y2="42.11"/><line class="cls-39" x1="58.15" y1="33.93" x2="53.43" y2="36.66"/><line class="cls-39" x1="58.15" y1="50.29" x2="53.43" y2="53.02"/><path class="cls-39" d="M53.43,26.76a1.91,1.91,0,0,1,.87-1.5l3-1.73c.47-.27.86-.05.86.5V82a1.92,1.92,0,0,1-.86,1.5l-3,1.73c-.48.27-.87,0-.87-.5Z"/><line class="cls-39" x1="58.15" y1="44.84" x2="53.43" y2="47.56"/><line class="cls-39" x1="58.15" y1="55.74" x2="53.43" y2="58.47"/><line class="cls-39" x1="53.43" y1="31.21" x2="48.71" y2="28.48"/><line class="cls-39" x1="58.15" y1="28.48" x2="53.43" y2="31.21"/><line class="cls-39" x1="48.71" y1="28.48" x2="51.07" y2="24.39"/><line class="cls-39" x1="58.15" y1="23.03" x2="53.43" y2="31.21"/><line class="cls-39" x1="53.43" y1="31.21" x2="48.71" y2="23.03"/><line class="cls-39" x1="55.79" y1="24.4" x2="58.15" y2="28.48"/><line class="cls-39" x1="48.71" y1="33.93" x2="51.07" y2="29.85"/><line class="cls-39" x1="58.15" y1="28.48" x2="53.43" y2="36.66"/><line class="cls-39" x1="53.43" y1="36.66" x2="48.71" y2="28.48"/><line class="cls-39" x1="55.79" y1="29.85" x2="58.15" y2="33.93"/><line class="cls-39" x1="48.71" y1="39.39" x2="51.07" y2="35.3"/><line class="cls-39" x1="58.15" y1="33.94" x2="53.43" y2="42.11"/><line class="cls-39" x1="53.43" y1="42.11" x2="48.71" y2="33.94"/><line class="cls-39" x1="55.79" y1="35.3" x2="58.15" y2="39.39"/><line class="cls-39" x1="48.71" y1="45" x2="51.07" y2="40.91"/><line class="cls-39" x1="58.15" y1="39.55" x2="53.43" y2="47.73"/><line class="cls-39" x1="53.43" y1="47.73" x2="48.71" y2="39.55"/><line class="cls-39" x1="55.79" y1="40.92" x2="58.15" y2="45"/><line class="cls-39" x1="48.71" y1="50.45" x2="51.07" y2="46.36"/><line class="cls-39" x1="58.15" y1="45" x2="53.43" y2="53.18"/><line class="cls-39" x1="53.43" y1="53.18" x2="48.71" y2="45"/><line class="cls-39" x1="55.79" y1="46.37" x2="58.15" y2="50.45"/><line class="cls-39" x1="48.71" y1="55.61" x2="51.07" y2="51.52"/><line class="cls-39" x1="58.15" y1="50.16" x2="53.43" y2="58.34"/><line class="cls-39" x1="53.43" y1="58.34" x2="48.71" y2="50.16"/><line class="cls-39" x1="55.79" y1="51.52" x2="58.15" y2="55.61"/><line class="cls-39" x1="48.71" y1="61.24" x2="51.07" y2="57.15"/><line class="cls-39" x1="58.15" y1="55.79" x2="53.43" y2="63.97"/><line class="cls-39" x1="53.43" y1="63.97" x2="48.71" y2="55.79"/><line class="cls-39" x1="55.79" y1="57.15" x2="58.15" y2="61.24"/><line class="cls-39" x1="48.71" y1="66.69" x2="51.07" y2="62.6"/><line class="cls-39" x1="58.15" y1="61.24" x2="53.43" y2="69.42"/><line class="cls-39" x1="53.43" y1="69.42" x2="48.71" y2="61.24"/><line class="cls-39" x1="55.79" y1="62.6" x2="58.15" y2="66.69"/><line class="cls-39" x1="48.71" y1="72.3" x2="51.07" y2="68.22"/><line class="cls-39" x1="58.15" y1="66.85" x2="53.43" y2="75.03"/><line class="cls-39" x1="53.43" y1="75.03" x2="48.71" y2="66.85"/><line class="cls-39" x1="55.79" y1="68.22" x2="58.15" y2="72.3"/><line class="cls-39" x1="48.71" y1="77.75" x2="51.07" y2="73.67"/><line class="cls-39" x1="58.15" y1="72.3" x2="53.43" y2="80.48"/><line class="cls-39" x1="53.43" y1="80.48" x2="48.71" y2="72.3"/><line class="cls-39" x1="55.79" y1="73.67" x2="58.15" y2="77.75"/><line class="cls-39" x1="48.71" y1="82.96" x2="51.07" y2="78.87"/><line class="cls-39" x1="58.15" y1="77.51" x2="53.43" y2="85.68"/><line class="cls-39" x1="48.71" y1="77.51" x2="53.43" y2="85.68"/><line class="cls-39" x1="55.79" y1="78.87" x2="58.15" y2="82.96"/><polygon class="cls-40" points="71.1 8.25 75.83 10.97 80.55 8.25 75.83 5.52 71.1 8.25"/><polygon class="cls-41" points="71.11 13.7 71.1 8.25 75.83 10.97 75.83 16.43 71.11 13.7"/><polygon class="cls-42" points="75.83 10.97 80.55 8.25 80.55 13.7 75.83 16.43 75.83 10.97"/><polyline class="cls-39" points="75 6 56.51 16.56 61.23 19.28 80.12 8.38 76.2 5.31 56.51 16.56 58.87 13.15 77.04 2.66 80.12 8.38 71.86 5.65 70.68 13.83 63.79 10.31 61.23 19.11"/><polygon class="cls-17" points="50.34 28.01 61.5 21.56 54.06 17.27 42.9 23.71 50.34 28.01"/><polygon class="cls-43" points="50.34 25.03 61.5 18.58 54.06 14.29 42.9 20.73 50.34 25.03"/><polygon class="cls-44" points="46.62 13.13 54.06 17.42 61.5 13.13 54.06 8.83 46.62 13.13"/><polygon class="cls-45" points="42.9 20.73 42.9 23.71 50.34 28.01 50.34 25.03 42.9 20.73"/><polygon class="cls-42" points="50.34 25.03 61.5 18.58 61.5 21.56 50.34 28.01 50.34 25.03"/><polygon class="cls-42" points="61.5 18.58 61.5 13.13 54.06 17.42 50.34 25.03 61.5 18.58"/><polygon class="cls-46" points="42.9 20.73 46.62 13.13 54.06 17.42 50.34 25.03 42.9 20.73"/><polygon class="cls-46" points="54.34 17.8 56.06 16.81 56.06 21.29 51.28 24.05 54.34 17.8"/><polyline class="cls-47" points="58.55 23.29 58.55 14.85 57.92 15.22 57.99 23.61"/><polygon class="cls-48" points="14.73 42.69 19.45 45.41 24.17 42.69 19.45 39.96 14.73 42.69"/><polygon class="cls-40" points="14.73 57.91 19.45 60.63 24.17 57.91 19.45 55.18 14.73 57.91"/><polygon class="cls-41" points="14.73 63.36 14.73 57.91 19.45 60.63 19.45 66.08 14.73 63.36"/><polygon class="cls-42" points="19.45 60.63 24.17 57.91 24.17 63.36 19.45 66.08 19.45 60.63"/><polygon class="cls-49" points="14.73 40.98 19.45 43.71 24.17 40.98 19.45 38.26 14.73 40.98"/><path class="cls-50" d="M11.81,42.64c-.48.27-.61.13-.3-.33l1.22-1.76a5.18,5.18,0,0,1,1.44-1.32L45.48,21.15c.48-.28.63-.12.34.35l-1.13,1.81a4.8,4.8,0,0,1-1.39,1.34Z"/><path class="cls-50" d="M45,24.66a1.92,1.92,0,0,0-1.73,0l-31.49,18c-.48.27-.48.72,0,1l3,1.72a1.89,1.89,0,0,0,1.73,0L47.84,27.28c.48-.27.48-.72,0-1Z"/><path class="cls-51" d="M46.71,21.58a.83.83,0,0,0-1.23-.43L14.17,39.23a1.2,1.2,0,0,0-.51,1.43l1.64,4.27a.83.83,0,0,0,1.23.43L47.84,27.28a1.2,1.2,0,0,0,.51-1.43Z"/><polyline class="cls-39" points="46.35 20.65 43.99 29.51 36.55 26.3 34.55 34.96 26.29 32.23 25.1 40.41 18.21 36.89 15.66 45.69"/><polygon class="cls-52" points="17.28 58.11 19.45 59.47 21.62 58.11 19.45 56.78 17.28 58.11"/><polygon class="cls-53" points="17.27 57.24 19.45 58.59 21.62 57.23 19.45 55.91 17.27 57.24"/><polygon class="cls-41" points="17.27 57.24 17.28 58.11 19.45 59.47 19.45 58.59 17.27 57.24"/><polygon class="cls-42" points="19.45 58.59 21.62 57.23 21.62 58.11 19.45 59.47 19.45 58.59"/><line class="cls-54" x1="19.45" y1="44.65" x2="19.45" y2="57.6"/><line class="cls-39" x1="77.04" y1="2.66" x2="76.2" y2="5.31"/><polyline class="cls-41" points="19.45 43.71 19.45 45.41 14.73 42.69 14.73 41.1 14.73 40.98"/><polyline class="cls-42" points="24.17 40.98 24.17 42.69 19.45 45.41 19.45 43.71"/></g></svg>